{"glyphs":{"0":{"ha":696,"x_min":53,"x_max":643,"o":"m 347 -17 q 196 26 263 -17 q 91 142 129 69 q 53 308 53 215 q 92 475 53 403 q 197 590 131 547 q 347 632 264 632 q 499 590 433 632 q 604 475 565 547 q 643 310 643 403 q 605 142 643 215 q 500 26 567 69 q 347 -17 433 -17 m 347 22 q 469 92 431 22 q 508 308 508 163 q 469 525 508 456 q 347 594 431 594 q 226 525 265 594 q 188 308 188 456 q 226 92 188 163 q 347 22 265 22 z "},"1":{"ha":431,"x_min":39,"x_max":392,"o":"m 39 -4 l 39 32 l 61 35 q 122 51 103 40 q 148 88 142 61 q 154 169 154 115 l 154 439 q 130 528 154 504 q 43 550 106 551 l 43 596 q 123 599 85 596 q 196 611 161 603 q 258 632 231 619 l 275 632 l 275 169 q 281 88 275 115 q 308 51 288 61 q 369 35 328 40 l 392 32 l 392 -4 l 215 0 l 39 -4 z "},"2":{"ha":608,"x_min":53,"x_max":525,"o":"m 474 -118 l 471 -97 q 453 -34 465 -54 q 413 -7 442 -14 q 324 0 383 0 l 93 0 l 93 26 l 201 133 q 316 255 275 206 q 373 345 357 304 q 389 431 389 386 q 351 538 389 497 q 249 578 313 578 q 142 540 183 578 q 100 444 100 503 q 123 374 100 408 q 182 324 146 339 l 165 292 q 83 356 114 313 q 53 450 53 399 q 83 544 53 503 q 165 608 113 585 q 285 632 218 632 q 459 583 393 632 q 525 451 525 533 q 468 316 525 388 q 281 144 411 244 l 175 64 l 169 92 l 521 114 l 514 56 l 513 -118 l 474 -118 z "},"3":{"ha":639,"x_min":4,"x_max":574,"o":"m 251 -311 q 126 -291 182 -311 q 37 -235 69 -271 q 4 -156 4 -199 q 26 -97 4 -119 q 82 -74 47 -74 q 131 -92 113 -74 q 149 -139 149 -111 q 148 -158 149 -149 q 143 -178 147 -167 q 136 -214 136 -203 q 162 -256 136 -240 q 231 -271 188 -271 q 377 -204 322 -271 q 432 -28 432 -137 q 394 108 432 63 q 285 154 356 154 q 228 147 256 154 q 179 129 200 140 l 164 164 q 339 292 276 219 q 401 439 401 364 q 362 538 401 500 q 257 576 322 576 q 147 538 190 576 q 103 443 103 500 q 151 340 103 381 l 128 310 q 56 447 56 360 q 87 543 56 501 q 173 608 118 585 q 297 632 228 632 q 422 608 368 632 q 507 543 476 585 q 538 447 538 501 q 495 337 538 389 q 357 236 453 285 l 242 174 l 239 189 q 267 193 250 192 q 304 194 285 194 q 446 165 385 194 q 540 84 507 136 q 574 -40 574 32 q 531 -179 574 -118 q 417 -276 489 -240 q 251 -311 344 -311 z "},"4":{"ha":775,"x_min":60,"x_max":746,"o":"m 346 -294 l 346 -260 l 368 -256 q 431 -239 411 -250 q 456 -200 450 -228 q 463 -115 463 -172 l 465 511 l 500 507 l 89 14 l 93 58 l 486 58 l 486 0 l 60 0 l 60 44 l 542 632 l 582 632 l 582 -115 q 588 -201 582 -174 q 615 -240 594 -229 q 676 -257 635 -251 l 699 -260 l 699 -294 l 522 -292 l 346 -294 m 564 0 l 564 58 l 746 58 l 746 0 l 564 0 z "},"5":{"ha":664,"x_min":21,"x_max":594,"o":"m 260 -311 q 137 -290 190 -311 q 52 -231 83 -268 q 21 -147 21 -194 q 44 -83 21 -108 q 103 -58 67 -58 q 151 -75 133 -58 q 169 -119 169 -92 q 168 -133 169 -125 q 163 -157 167 -142 q 157 -180 158 -171 q 156 -197 156 -189 q 183 -249 156 -229 q 254 -269 210 -269 q 358 -235 313 -269 q 428 -137 403 -200 q 453 7 453 -75 q 413 160 453 106 q 299 215 372 215 q 212 190 250 215 q 144 124 174 165 l 111 122 l 151 649 l 192 649 l 154 163 l 139 179 q 218 244 169 221 q 328 267 267 267 q 467 234 407 267 q 561 143 528 201 q 594 7 594 85 q 550 -156 594 -83 q 431 -269 506 -228 q 260 -311 356 -311 m 157 485 l 165 608 l 338 608 q 461 615 418 608 q 526 636 504 622 l 544 636 l 544 619 q 484 515 544 546 q 272 485 424 485 l 157 485 z "},"6":{"ha":708,"x_min":69,"x_max":656,"o":"m 360 -17 q 143 94 217 -17 q 69 421 69 206 q 112 681 69 567 q 236 862 154 796 q 435 928 318 928 q 566 897 517 928 q 615 815 615 867 q 597 763 615 783 q 546 743 578 743 q 501 758 519 743 q 478 796 483 772 l 471 822 q 399 888 453 888 q 311 847 350 888 q 247 739 272 807 q 210 584 222 671 q 203 404 199 497 l 176 414 q 267 528 210 489 q 403 568 325 568 q 533 531 476 568 q 623 431 590 494 q 656 286 656 368 q 617 129 656 197 q 513 22 579 61 q 360 -17 447 -17 m 361 22 q 446 56 410 22 q 501 151 482 90 q 521 294 521 213 q 482 466 519 406 q 378 526 444 526 q 257 454 303 526 q 211 265 211 382 q 230 137 211 192 q 282 52 249 82 q 361 22 315 22 z "},"7":{"ha":622,"x_min":39,"x_max":581,"o":"m 239 -311 q 191 -292 210 -311 q 171 -243 172 -274 q 188 -176 169 -212 l 539 535 l 532 489 l 53 489 l 53 608 l 581 608 l 581 582 l 329 -217 q 294 -289 314 -267 q 239 -311 274 -311 m 39 356 l 39 678 l 75 678 l 75 356 l 39 356 z "},"8":{"ha":697,"x_min":69,"x_max":631,"o":"m 325 -17 q 139 42 208 -17 q 69 199 69 100 q 89 288 69 246 q 154 376 108 331 q 275 478 200 421 l 317 456 q 172 324 215 383 q 128 201 128 265 q 181 81 128 125 q 324 36 233 36 q 466 78 411 36 q 521 189 521 121 q 503 254 521 222 q 447 322 486 286 q 339 407 407 358 l 232 482 q 132 585 167 528 q 97 706 97 642 q 131 821 97 771 q 224 899 164 871 q 360 928 283 928 q 522 876 461 928 q 583 739 583 825 q 543 622 583 675 q 408 507 503 568 l 369 531 q 488 634 450 583 q 525 738 525 685 q 483 835 525 799 q 374 872 440 872 q 262 836 307 872 q 217 743 217 800 q 245 665 217 703 q 342 579 274 628 l 450 501 q 556 412 517 453 q 613 331 596 371 q 631 244 631 292 q 591 111 631 169 q 483 18 551 53 q 325 -17 414 -17 z "},"9":{"ha":708,"x_min":54,"x_max":639,"o":"m 349 632 q 566 521 493 632 q 639 194 639 410 q 597 -66 639 49 q 473 -247 554 -181 q 274 -312 392 -312 q 143 -281 193 -312 q 93 -200 93 -250 q 113 -148 93 -168 q 164 -128 133 -128 q 208 -142 190 -128 q 232 -181 226 -156 l 238 -207 q 311 -272 256 -272 q 398 -232 360 -272 q 461 -124 436 -192 q 498 31 486 -56 q 506 211 510 118 l 532 201 q 442 87 500 126 q 307 47 383 47 q 176 84 233 47 q 86 184 118 121 q 54 329 54 247 q 92 487 54 419 q 196 593 129 554 q 349 632 263 632 m 349 593 q 264 559 300 593 q 208 465 228 525 q 189 321 188 404 q 227 149 190 210 q 332 89 264 89 q 452 161 407 89 q 497 350 497 233 q 478 478 497 424 q 426 563 460 533 q 349 593 393 593 z "},"A":{"ha":1031,"x_min":-22,"x_max":1053,"o":"m -22 -4 l -22 36 l -10 38 q 65 55 36 42 q 116 98 94 68 q 158 181 138 128 l 492 992 l 561 992 l 889 164 q 945 70 915 97 q 1025 39 975 43 l 1053 36 l 1053 -4 l 867 0 l 644 -4 l 644 36 l 674 39 q 751 75 736 44 q 740 172 767 106 l 464 879 l 504 879 l 218 185 q 197 103 197 133 q 219 58 196 72 q 290 39 242 43 l 322 36 l 322 -4 l 143 0 l -22 -4 m 275 346 l 293 397 l 676 397 l 693 346 l 275 346 z "},"Á":{"ha":1031,"x_min":-22,"x_max":1053,"o":"m -22 -4 l -22 36 l -10 38 q 65 55 36 42 q 116 98 94 68 q 158 181 138 128 l 492 992 l 561 992 l 889 164 q 945 70 915 97 q 1025 39 975 43 l 1053 36 l 1053 -4 l 867 0 l 644 -4 l 644 36 l 674 39 q 751 75 736 44 q 740 172 767 106 l 464 879 l 504 879 l 218 185 q 197 103 197 133 q 219 58 196 72 q 290 39 242 43 l 322 36 l 322 -4 l 143 0 l -22 -4 m 275 346 l 293 397 l 676 397 l 693 346 l 275 346 m 497 1056 l 533 1306 l 663 1306 l 519 1056 l 497 1056 z "},"Ă":{"ha":1031,"x_min":-22,"x_max":1053,"o":"m -22 -4 l -22 36 l -10 38 q 65 55 36 42 q 116 98 94 68 q 158 181 138 128 l 492 992 l 561 992 l 889 164 q 945 70 915 97 q 1025 39 975 43 l 1053 36 l 1053 -4 l 867 0 l 644 -4 l 644 36 l 674 39 q 751 75 736 44 q 740 172 767 106 l 464 879 l 504 879 l 218 185 q 197 103 197 133 q 219 58 196 72 q 290 39 242 43 l 322 36 l 322 -4 l 143 0 l -22 -4 m 275 346 l 293 397 l 676 397 l 693 346 l 275 346 m 525 1078 q 414 1124 450 1078 q 378 1239 378 1171 l 378 1285 l 417 1285 l 417 1278 q 445 1193 417 1215 q 525 1171 474 1171 q 606 1193 576 1171 q 635 1278 635 1215 l 635 1285 l 672 1285 l 672 1239 q 637 1124 672 1171 q 525 1078 601 1078 z "},"Ǎ":{"ha":1031,"x_min":-22,"x_max":1053,"o":"m -22 -4 l -22 36 l -10 38 q 65 55 36 42 q 116 98 94 68 q 158 181 138 128 l 492 992 l 561 992 l 889 164 q 945 70 915 97 q 1025 39 975 43 l 1053 36 l 1053 -4 l 867 0 l 644 -4 l 644 36 l 674 39 q 751 75 736 44 q 740 172 767 106 l 464 879 l 504 879 l 218 185 q 197 103 197 133 q 219 58 196 72 q 290 39 242 43 l 322 36 l 322 -4 l 143 0 l -22 -4 m 275 346 l 293 397 l 676 397 l 693 346 l 275 346 m 501 1056 l 378 1306 l 413 1306 l 522 1181 l 531 1181 l 640 1306 l 675 1306 l 551 1056 l 501 1056 z "},"Â":{"ha":1031,"x_min":-22,"x_max":1053,"o":"m -22 -4 l -22 36 l -10 38 q 65 55 36 42 q 116 98 94 68 q 158 181 138 128 l 492 992 l 561 992 l 889 164 q 945 70 915 97 q 1025 39 975 43 l 1053 36 l 1053 -4 l 867 0 l 644 -4 l 644 36 l 674 39 q 751 75 736 44 q 740 172 767 106 l 464 879 l 504 879 l 218 185 q 197 103 197 133 q 219 58 196 72 q 290 39 242 43 l 322 36 l 322 -4 l 143 0 l -22 -4 m 275 346 l 293 397 l 676 397 l 693 346 l 275 346 m 375 1057 l 499 1306 l 549 1306 l 672 1057 l 638 1057 l 528 1182 l 519 1182 l 410 1057 l 375 1057 z "},"Ä":{"ha":1031,"x_min":-22,"x_max":1053,"o":"m -22 -4 l -22 36 l -10 38 q 65 55 36 42 q 116 98 94 68 q 158 181 138 128 l 492 992 l 561 992 l 889 164 q 945 70 915 97 q 1025 39 975 43 l 1053 36 l 1053 -4 l 867 0 l 644 -4 l 644 36 l 674 39 q 751 75 736 44 q 740 172 767 106 l 464 879 l 504 879 l 218 185 q 197 103 197 133 q 219 58 196 72 q 290 39 242 43 l 322 36 l 322 -4 l 143 0 l -22 -4 m 275 346 l 293 397 l 676 397 l 693 346 l 275 346 m 393 1100 q 337 1123 357 1100 q 317 1181 317 1146 q 337 1237 317 1214 q 393 1260 357 1260 q 450 1237 432 1260 q 468 1181 468 1214 q 450 1123 468 1146 q 393 1100 432 1100 m 660 1100 q 605 1123 625 1100 q 585 1181 585 1146 q 605 1237 585 1214 q 660 1260 625 1260 q 717 1237 699 1260 q 735 1181 735 1214 q 717 1123 735 1146 q 660 1100 699 1100 z "},"À":{"ha":1031,"x_min":-22,"x_max":1053,"o":"m -22 -4 l -22 36 l -10 38 q 65 55 36 42 q 116 98 94 68 q 158 181 138 128 l 492 992 l 561 992 l 889 164 q 945 70 915 97 q 1025 39 975 43 l 1053 36 l 1053 -4 l 867 0 l 644 -4 l 644 36 l 674 39 q 751 75 736 44 q 740 172 767 106 l 464 879 l 504 879 l 218 185 q 197 103 197 133 q 219 58 196 72 q 290 39 242 43 l 322 36 l 322 -4 l 143 0 l -22 -4 m 275 346 l 293 397 l 676 397 l 693 346 l 275 346 m 553 1056 l 531 1056 l 388 1306 l 517 1306 l 553 1056 z "},"Ā":{"ha":1031,"x_min":-22,"x_max":1053,"o":"m -22 -4 l -22 36 l -10 38 q 65 55 36 42 q 116 98 94 68 q 158 181 138 128 l 492 992 l 561 992 l 889 164 q 945 70 915 97 q 1025 39 975 43 l 1053 36 l 1053 -4 l 867 0 l 644 -4 l 644 36 l 674 39 q 751 75 736 44 q 740 172 767 106 l 464 879 l 504 879 l 218 185 q 197 103 197 133 q 219 58 196 72 q 290 39 242 43 l 322 36 l 322 -4 l 143 0 l -22 -4 m 275 346 l 293 397 l 676 397 l 693 346 l 275 346 m 357 1151 l 357 1210 l 692 1210 l 692 1151 l 357 1151 z "},"Ą":{"ha":1031,"x_min":-22,"x_max":1053,"o":"m 704 -408 q 590 -367 633 -408 q 546 -258 546 -325 q 557 -195 546 -226 q 596 -124 568 -164 q 671 -29 624 -85 q 731 53 713 19 q 747 119 749 86 q 728 196 746 151 l 467 875 l 507 883 l 222 185 q 207 78 192 111 q 290 39 222 44 l 322 36 l 322 -4 l 143 0 l -22 -4 l -22 36 l -10 38 q 65 55 36 42 q 116 98 94 68 q 158 181 138 128 l 492 992 l 561 992 l 889 164 q 945 70 915 97 q 1025 39 975 43 l 1053 36 l 1053 -4 l 890 0 l 858 0 q 747 -31 799 0 q 664 -110 696 -61 q 632 -217 632 -160 q 659 -297 632 -268 q 732 -325 686 -325 q 858 -235 814 -325 l 886 -251 q 819 -368 867 -328 q 704 -408 771 -408 m 275 347 l 296 397 l 667 397 l 686 347 l 275 347 z "},"Å":{"ha":1031,"x_min":-22,"x_max":1053,"o":"m -22 -4 l -22 36 l -10 38 q 65 55 36 42 q 116 98 94 68 q 158 181 138 128 l 492 992 l 561 992 l 889 164 q 945 70 915 97 q 1025 39 975 43 l 1053 36 l 1053 -4 l 867 0 l 644 -4 l 644 36 l 674 39 q 751 75 736 44 q 740 172 767 106 l 464 879 l 504 879 l 218 185 q 197 103 197 133 q 219 58 196 72 q 290 39 242 43 l 322 36 l 322 -4 l 143 0 l -22 -4 m 275 346 l 293 397 l 676 397 l 693 346 l 275 346 m 528 982 q 435 1017 469 982 q 400 1103 400 1053 q 433 1185 400 1147 q 526 1222 465 1222 q 599 1203 571 1222 q 639 1156 626 1183 q 651 1101 651 1129 q 633 1035 651 1061 q 587 995 615 1008 q 528 982 558 982 m 528 1028 q 574 1047 553 1028 q 594 1103 594 1065 q 574 1158 594 1139 q 526 1178 553 1178 q 481 1160 504 1178 q 457 1103 457 1143 q 478 1048 457 1068 q 528 1028 500 1028 z "},"Ǻ":{"ha":1031,"x_min":-22,"x_max":1053,"o":"m -22 -4 l -22 36 l -10 38 q 65 55 36 42 q 116 98 94 68 q 158 181 138 128 l 492 992 l 561 992 l 889 164 q 945 70 915 97 q 1025 39 975 43 l 1053 36 l 1053 -4 l 867 0 l 644 -4 l 644 36 l 674 39 q 751 75 736 44 q 740 172 767 106 l 464 879 l 504 879 l 218 185 q 197 103 197 133 q 219 58 196 72 q 290 39 242 43 l 322 36 l 322 -4 l 143 0 l -22 -4 m 275 346 l 293 397 l 676 397 l 693 346 l 275 346 m 528 982 q 435 1017 469 982 q 400 1103 400 1053 q 433 1185 400 1147 q 526 1222 465 1222 q 599 1203 571 1222 q 639 1156 626 1183 q 651 1101 651 1129 q 633 1035 651 1061 q 587 995 615 1008 q 528 982 558 982 m 528 1028 q 574 1047 553 1028 q 594 1103 594 1065 q 574 1158 594 1139 q 526 1178 553 1178 q 481 1160 504 1178 q 457 1103 457 1143 q 478 1048 457 1068 q 528 1028 500 1028 m 500 1260 l 536 1510 l 665 1510 l 522 1260 l 500 1260 z "},"Ã":{"ha":1031,"x_min":-22,"x_max":1053,"o":"m -22 -4 l -22 36 l -10 38 q 65 55 36 42 q 116 98 94 68 q 158 181 138 128 l 492 992 l 561 992 l 889 164 q 945 70 915 97 q 1025 39 975 43 l 1053 36 l 1053 -4 l 867 0 l 644 -4 l 644 36 l 674 39 q 751 75 736 44 q 740 172 767 106 l 464 879 l 504 879 l 218 185 q 197 103 197 133 q 219 58 196 72 q 290 39 242 43 l 322 36 l 322 -4 l 143 0 l -22 -4 m 275 346 l 293 397 l 676 397 l 693 346 l 275 346 m 629 1096 q 581 1107 604 1096 q 539 1128 557 1118 l 493 1153 q 451 1176 471 1167 q 413 1185 431 1185 q 360 1160 381 1185 q 333 1111 339 1136 l 304 1111 q 317 1175 304 1139 q 356 1238 329 1211 q 426 1265 383 1265 q 476 1253 451 1265 q 518 1232 501 1240 l 572 1200 q 606 1185 586 1194 q 644 1175 626 1175 q 691 1194 672 1175 q 717 1243 710 1214 l 746 1243 q 710 1136 742 1176 q 629 1096 678 1096 z "},"Æ":{"ha":1410,"x_min":-22,"x_max":1361,"o":"m -22 -4 l -22 32 l 8 36 q 60 47 38 40 q 103 69 83 54 q 144 112 124 85 q 190 181 165 139 l 592 835 q 621 888 613 869 q 629 918 629 906 q 579 950 629 947 l 535 953 l 535 990 l 703 986 l 1150 986 l 1306 990 l 1308 886 l 1319 751 l 1281 751 q 1255 850 1271 813 q 1209 908 1239 888 q 1128 935 1179 928 q 999 943 1078 943 l 835 943 l 835 149 q 865 66 835 90 q 969 42 896 42 l 1075 42 q 1215 63 1165 42 q 1289 139 1265 83 q 1321 299 1313 194 l 1361 299 l 1351 125 l 1347 0 l 735 0 l 519 -4 l 519 31 l 601 39 q 658 60 639 43 q 684 123 678 78 q 690 254 690 168 l 690 960 l 719 951 l 249 185 q 217 99 217 135 q 293 36 217 44 l 336 32 l 336 -4 l 154 0 l -22 -4 m 364 404 l 389 450 l 703 450 l 703 404 l 364 404 m 1078 311 q 1049 454 1076 408 q 961 500 1022 500 l 813 500 l 813 540 l 961 540 q 1046 580 1019 540 q 1078 708 1072 619 l 1118 708 l 1114 519 l 1118 311 l 1078 311 z "},"B":{"ha":965,"x_min":53,"x_max":889,"o":"m 53 -4 l 53 36 l 81 39 q 154 56 131 44 q 185 96 178 67 q 193 185 193 125 l 193 801 q 185 891 193 861 q 154 932 178 921 q 81 947 131 943 l 53 950 l 53 990 l 261 986 l 435 986 q 729 928 629 986 q 829 758 829 871 q 770 606 829 668 q 597 513 711 543 l 594 529 q 813 458 738 522 q 889 281 889 394 q 789 74 889 149 q 511 0 689 0 l 263 0 l 53 -4 m 450 46 l 511 46 q 681 101 629 46 q 732 278 732 156 q 706 410 732 363 q 619 476 681 457 q 447 494 558 494 l 311 494 l 311 540 l 489 540 q 629 594 583 540 q 675 754 675 647 q 628 897 675 854 q 474 940 582 940 l 331 940 l 331 181 q 356 76 331 106 q 450 46 382 46 z "},"C":{"ha":1004,"x_min":82,"x_max":914,"o":"m 540 -15 q 302 48 406 -15 q 140 224 199 111 q 82 485 82 338 q 118 692 82 597 q 218 857 154 786 q 369 967 282 928 q 560 1006 456 1006 q 667 993 611 1006 q 776 956 724 981 q 814 940 801 944 q 833 936 826 936 q 857 949 847 936 q 869 986 867 963 l 910 986 l 907 824 l 910 658 l 869 658 q 767 879 847 801 q 561 957 688 957 q 328 837 407 957 q 249 485 249 717 q 553 33 249 33 q 769 114 683 33 q 875 335 854 194 l 913 335 l 910 163 l 914 0 l 875 0 l 871 13 q 829 60 857 60 q 810 56 822 60 q 778 42 799 51 q 657 -1 714 13 q 540 -15 600 -15 z "},"Ć":{"ha":1004,"x_min":82,"x_max":914,"o":"m 540 -15 q 302 48 406 -15 q 140 224 199 111 q 82 485 82 338 q 118 692 82 597 q 218 857 154 786 q 369 967 282 928 q 560 1006 456 1006 q 667 993 611 1006 q 776 956 724 981 q 814 940 801 944 q 833 936 826 936 q 857 949 847 936 q 869 986 867 963 l 910 986 l 907 824 l 910 658 l 869 658 q 767 879 847 801 q 561 957 688 957 q 328 837 407 957 q 249 485 249 717 q 553 33 249 33 q 769 114 683 33 q 875 335 854 194 l 913 335 l 910 163 l 914 0 l 875 0 l 871 13 q 829 60 857 60 q 810 56 822 60 q 778 42 799 51 q 657 -1 714 13 q 540 -15 600 -15 m 524 1056 l 560 1306 l 689 1306 l 546 1056 l 524 1056 z "},"Č":{"ha":1004,"x_min":82,"x_max":914,"o":"m 540 -15 q 302 48 406 -15 q 140 224 199 111 q 82 485 82 338 q 118 692 82 597 q 218 857 154 786 q 369 967 282 928 q 560 1006 456 1006 q 667 993 611 1006 q 776 956 724 981 q 814 940 801 944 q 833 936 826 936 q 857 949 847 936 q 869 986 867 963 l 910 986 l 907 824 l 910 658 l 869 658 q 767 879 847 801 q 561 957 688 957 q 328 837 407 957 q 249 485 249 717 q 553 33 249 33 q 769 114 683 33 q 875 335 854 194 l 913 335 l 910 163 l 914 0 l 875 0 l 871 13 q 829 60 857 60 q 810 56 822 60 q 778 42 799 51 q 657 -1 714 13 q 540 -15 600 -15 m 528 1056 l 404 1306 l 439 1306 l 549 1181 l 557 1181 l 667 1306 l 701 1306 l 578 1056 l 528 1056 z "},"Ç":{"ha":1004,"x_min":82,"x_max":914,"o":"m 540 -15 q 302 48 406 -15 q 140 224 199 111 q 82 485 82 338 q 118 692 82 597 q 218 857 154 786 q 369 967 282 928 q 560 1006 456 1006 q 667 993 611 1006 q 776 956 724 981 q 814 940 801 944 q 833 936 826 936 q 857 949 847 936 q 869 986 867 963 l 910 986 l 907 824 l 910 658 l 869 658 q 767 879 847 801 q 561 957 688 957 q 328 837 407 957 q 249 485 249 717 q 553 33 249 33 q 769 114 683 33 q 875 335 854 194 l 913 335 l 910 163 l 914 0 l 875 0 l 871 13 q 829 60 857 60 q 810 56 822 60 q 778 42 799 51 q 657 -1 714 13 q 540 -15 600 -15 m 483 -406 q 385 -369 421 -406 q 340 -292 350 -332 l 372 -282 q 406 -339 379 -314 q 474 -364 433 -364 q 544 -324 518 -364 q 569 -232 569 -285 q 545 -150 569 -182 q 478 -118 521 -118 q 433 -133 456 -118 q 394 -171 410 -147 l 365 -151 q 424 -94 388 -112 q 501 -79 460 -76 q 577 -101 544 -81 q 629 -158 610 -122 q 649 -235 649 -193 q 626 -324 649 -286 q 565 -384 603 -362 q 483 -406 528 -406 m 524 -97 l 482 -93 l 514 0 l 558 0 l 524 -97 z "},"Ċ":{"ha":1004,"x_min":82,"x_max":914,"o":"m 540 -15 q 302 48 406 -15 q 140 224 199 111 q 82 485 82 338 q 118 692 82 597 q 218 857 154 786 q 369 967 282 928 q 560 1006 456 1006 q 667 993 611 1006 q 776 956 724 981 q 814 940 801 944 q 833 936 826 936 q 857 949 847 936 q 869 986 867 963 l 910 986 l 907 824 l 910 658 l 869 658 q 767 879 847 801 q 561 957 688 957 q 328 837 407 957 q 249 485 249 717 q 553 33 249 33 q 769 114 683 33 q 875 335 854 194 l 913 335 l 910 163 l 914 0 l 875 0 l 871 13 q 829 60 857 60 q 810 56 822 60 q 778 42 799 51 q 657 -1 714 13 q 540 -15 600 -15 m 550 1094 q 490 1119 513 1094 q 468 1181 468 1144 q 490 1242 468 1217 q 550 1267 513 1267 q 613 1242 593 1267 q 633 1181 633 1217 q 613 1119 633 1144 q 550 1094 593 1094 z "},"D":{"ha":1135,"x_min":53,"x_max":1053,"o":"m 53 -4 l 53 36 l 81 39 q 155 56 131 44 q 186 97 179 67 q 193 185 193 126 l 193 801 q 186 891 193 861 q 155 932 179 921 q 81 947 131 943 l 53 950 l 53 990 l 265 986 l 472 986 q 1053 511 1053 986 q 990 242 1053 357 q 811 63 926 126 q 542 0 696 0 l 263 0 l 53 -4 m 435 49 l 536 49 q 801 165 710 49 q 893 501 893 281 q 797 830 893 722 q 501 938 700 938 l 336 938 l 336 206 q 359 85 336 121 q 435 49 382 49 z "},"Ď":{"ha":1135,"x_min":53,"x_max":1053,"o":"m 53 -4 l 53 36 l 81 39 q 155 56 131 44 q 186 97 179 67 q 193 185 193 126 l 193 801 q 186 891 193 861 q 155 932 179 921 q 81 947 131 943 l 53 950 l 53 990 l 265 986 l 472 986 q 1053 511 1053 986 q 990 242 1053 357 q 811 63 926 126 q 542 0 696 0 l 263 0 l 53 -4 m 435 49 l 536 49 q 801 165 710 49 q 893 501 893 281 q 797 830 893 722 q 501 938 700 938 l 336 938 l 336 206 q 359 85 336 121 q 435 49 382 49 m 504 1056 l 381 1306 l 415 1306 l 525 1181 l 533 1181 l 643 1306 l 678 1306 l 554 1056 l 504 1056 z "},"Đ":{"ha":1135,"x_min":53,"x_max":1053,"o":"m 54 486 l 54 533 l 599 533 l 599 486 l 54 486 m 53 -4 l 53 36 l 81 39 q 155 56 131 44 q 186 97 179 67 q 193 185 193 126 l 193 801 q 186 891 193 861 q 155 932 179 921 q 81 947 131 943 l 53 950 l 53 990 l 265 986 l 472 986 q 1053 511 1053 986 q 990 242 1053 357 q 811 63 926 126 q 542 0 696 0 l 263 0 l 53 -4 m 435 49 l 536 49 q 801 165 710 49 q 893 501 893 281 q 797 830 893 722 q 501 938 700 938 l 336 938 l 336 206 q 359 85 336 121 q 435 49 382 49 z "},"Ð":{"ha":1135,"x_min":53,"x_max":1053,"o":"m 54 486 l 54 533 l 599 533 l 599 486 l 54 486 m 53 -4 l 53 36 l 81 39 q 155 56 131 44 q 186 97 179 67 q 193 185 193 126 l 193 801 q 186 891 193 861 q 155 932 179 921 q 81 947 131 943 l 53 950 l 53 990 l 265 986 l 472 986 q 1053 511 1053 986 q 990 242 1053 357 q 811 63 926 126 q 542 0 696 0 l 263 0 l 53 -4 m 435 49 l 536 49 q 801 165 710 49 q 893 501 893 281 q 797 830 893 722 q 501 938 700 938 l 336 938 l 336 206 q 359 85 336 121 q 435 49 382 49 z "},"E":{"ha":901,"x_min":53,"x_max":853,"o":"m 53 -4 l 53 36 l 81 39 q 154 56 131 44 q 185 97 178 67 q 193 185 193 126 l 193 801 q 185 890 193 861 q 154 931 178 919 q 81 947 131 943 l 53 950 l 53 990 l 261 986 l 628 986 l 807 990 l 810 886 l 821 751 l 782 751 q 756 848 772 811 q 710 905 740 885 q 631 933 681 925 q 501 940 581 940 l 335 940 l 335 149 q 363 66 335 88 q 472 44 392 44 l 578 44 q 710 65 663 44 q 781 142 758 86 q 813 299 804 197 l 853 299 l 843 125 l 839 0 l 261 0 l 53 -4 m 581 311 q 551 453 579 408 q 463 497 524 497 l 313 497 l 313 542 l 463 542 q 547 581 521 542 q 581 708 574 619 l 619 708 l 615 519 l 619 311 l 581 311 z "},"É":{"ha":901,"x_min":53,"x_max":853,"o":"m 53 -4 l 53 36 l 81 39 q 154 56 131 44 q 185 97 178 67 q 193 185 193 126 l 193 801 q 185 890 193 861 q 154 931 178 919 q 81 947 131 943 l 53 950 l 53 990 l 261 986 l 628 986 l 807 990 l 810 886 l 821 751 l 782 751 q 756 848 772 811 q 710 905 740 885 q 631 933 681 925 q 501 940 581 940 l 335 940 l 335 149 q 363 66 335 88 q 472 44 392 44 l 578 44 q 710 65 663 44 q 781 142 758 86 q 813 299 804 197 l 853 299 l 843 125 l 839 0 l 261 0 l 53 -4 m 581 311 q 551 453 579 408 q 463 497 524 497 l 313 497 l 313 542 l 463 542 q 547 581 521 542 q 581 708 574 619 l 619 708 l 615 519 l 619 311 l 581 311 m 467 1056 l 503 1306 l 632 1306 l 489 1056 l 467 1056 z "},"Ě":{"ha":901,"x_min":53,"x_max":853,"o":"m 53 -4 l 53 36 l 81 39 q 154 56 131 44 q 185 97 178 67 q 193 185 193 126 l 193 801 q 185 890 193 861 q 154 931 178 919 q 81 947 131 943 l 53 950 l 53 990 l 261 986 l 628 986 l 807 990 l 810 886 l 821 751 l 782 751 q 756 848 772 811 q 710 905 740 885 q 631 933 681 925 q 501 940 581 940 l 335 940 l 335 149 q 363 66 335 88 q 472 44 392 44 l 578 44 q 710 65 663 44 q 781 142 758 86 q 813 299 804 197 l 853 299 l 843 125 l 839 0 l 261 0 l 53 -4 m 581 311 q 551 453 579 408 q 463 497 524 497 l 313 497 l 313 542 l 463 542 q 547 581 521 542 q 581 708 574 619 l 619 708 l 615 519 l 619 311 l 581 311 m 469 1056 l 346 1306 l 381 1306 l 490 1181 l 499 1181 l 608 1306 l 643 1306 l 519 1056 l 469 1056 z "},"Ê":{"ha":901,"x_min":53,"x_max":853,"o":"m 53 -4 l 53 36 l 81 39 q 154 56 131 44 q 185 97 178 67 q 193 185 193 126 l 193 801 q 185 890 193 861 q 154 931 178 919 q 81 947 131 943 l 53 950 l 53 990 l 261 986 l 628 986 l 807 990 l 810 886 l 821 751 l 782 751 q 756 848 772 811 q 710 905 740 885 q 631 933 681 925 q 501 940 581 940 l 335 940 l 335 149 q 363 66 335 88 q 472 44 392 44 l 578 44 q 710 65 663 44 q 781 142 758 86 q 813 299 804 197 l 853 299 l 843 125 l 839 0 l 261 0 l 53 -4 m 581 311 q 551 453 579 408 q 463 497 524 497 l 313 497 l 313 542 l 463 542 q 547 581 521 542 q 581 708 574 619 l 619 708 l 615 519 l 619 311 l 581 311 m 343 1057 l 467 1306 l 517 1306 l 640 1057 l 606 1057 l 496 1182 l 488 1182 l 378 1057 l 343 1057 z "},"Ë":{"ha":901,"x_min":53,"x_max":853,"o":"m 53 -4 l 53 36 l 81 39 q 154 56 131 44 q 185 97 178 67 q 193 185 193 126 l 193 801 q 185 890 193 861 q 154 931 178 919 q 81 947 131 943 l 53 950 l 53 990 l 261 986 l 628 986 l 807 990 l 810 886 l 821 751 l 782 751 q 756 848 772 811 q 710 905 740 885 q 631 933 681 925 q 501 940 581 940 l 335 940 l 335 149 q 363 66 335 88 q 472 44 392 44 l 578 44 q 710 65 663 44 q 781 142 758 86 q 813 299 804 197 l 853 299 l 843 125 l 839 0 l 261 0 l 53 -4 m 581 311 q 551 453 579 408 q 463 497 524 497 l 313 497 l 313 542 l 463 542 q 547 581 521 542 q 581 708 574 619 l 619 708 l 615 519 l 619 311 l 581 311 m 361 1100 q 305 1123 325 1100 q 285 1181 285 1146 q 305 1237 285 1214 q 361 1260 325 1260 q 418 1237 400 1260 q 436 1181 436 1214 q 418 1123 436 1146 q 361 1100 400 1100 m 628 1100 q 573 1123 593 1100 q 553 1181 553 1146 q 573 1237 553 1214 q 628 1260 593 1260 q 685 1237 667 1260 q 703 1181 703 1214 q 685 1123 703 1146 q 628 1100 667 1100 z "},"Ė":{"ha":901,"x_min":53,"x_max":853,"o":"m 53 -4 l 53 36 l 81 39 q 154 56 131 44 q 185 97 178 67 q 193 185 193 126 l 193 801 q 185 890 193 861 q 154 931 178 919 q 81 947 131 943 l 53 950 l 53 990 l 261 986 l 628 986 l 807 990 l 810 886 l 821 751 l 782 751 q 756 848 772 811 q 710 905 740 885 q 631 933 681 925 q 501 940 581 940 l 335 940 l 335 149 q 363 66 335 88 q 472 44 392 44 l 578 44 q 710 65 663 44 q 781 142 758 86 q 813 299 804 197 l 853 299 l 843 125 l 839 0 l 261 0 l 53 -4 m 581 311 q 551 453 579 408 q 463 497 524 497 l 313 497 l 313 542 l 463 542 q 547 581 521 542 q 581 708 574 619 l 619 708 l 615 519 l 619 311 l 581 311 m 493 1094 q 433 1119 456 1094 q 411 1181 411 1144 q 433 1242 411 1217 q 493 1267 456 1267 q 556 1242 536 1267 q 576 1181 576 1217 q 556 1119 576 1144 q 493 1094 536 1094 z "},"È":{"ha":901,"x_min":53,"x_max":853,"o":"m 53 -4 l 53 36 l 81 39 q 154 56 131 44 q 185 97 178 67 q 193 185 193 126 l 193 801 q 185 890 193 861 q 154 931 178 919 q 81 947 131 943 l 53 950 l 53 990 l 261 986 l 628 986 l 807 990 l 810 886 l 821 751 l 782 751 q 756 848 772 811 q 710 905 740 885 q 631 933 681 925 q 501 940 581 940 l 335 940 l 335 149 q 363 66 335 88 q 472 44 392 44 l 578 44 q 710 65 663 44 q 781 142 758 86 q 813 299 804 197 l 853 299 l 843 125 l 839 0 l 261 0 l 53 -4 m 581 311 q 551 453 579 408 q 463 497 524 497 l 313 497 l 313 542 l 463 542 q 547 581 521 542 q 581 708 574 619 l 619 708 l 615 519 l 619 311 l 581 311 m 522 1056 l 500 1056 l 357 1306 l 486 1306 l 522 1056 z "},"Ē":{"ha":901,"x_min":53,"x_max":853,"o":"m 53 -4 l 53 36 l 81 39 q 154 56 131 44 q 185 97 178 67 q 193 185 193 126 l 193 801 q 185 890 193 861 q 154 931 178 919 q 81 947 131 943 l 53 950 l 53 990 l 261 986 l 628 986 l 807 990 l 810 886 l 821 751 l 782 751 q 756 848 772 811 q 710 905 740 885 q 631 933 681 925 q 501 940 581 940 l 335 940 l 335 149 q 363 66 335 88 q 472 44 392 44 l 578 44 q 710 65 663 44 q 781 142 758 86 q 813 299 804 197 l 853 299 l 843 125 l 839 0 l 261 0 l 53 -4 m 581 311 q 551 453 579 408 q 463 497 524 497 l 313 497 l 313 542 l 463 542 q 547 581 521 542 q 581 708 574 619 l 619 708 l 615 519 l 619 311 l 581 311 m 325 1151 l 325 1210 l 660 1210 l 660 1151 l 325 1151 z "},"Ę":{"ha":901,"x_min":53,"x_max":872,"o":"m 53 -4 l 53 36 l 81 39 q 154 56 131 44 q 185 97 178 67 q 193 185 193 126 l 193 801 q 185 890 193 861 q 154 931 178 919 q 81 947 131 943 l 53 950 l 53 990 l 261 986 l 628 986 l 807 990 l 810 886 l 821 751 l 782 751 q 756 848 772 811 q 710 905 740 885 q 631 933 681 925 q 501 940 581 940 l 335 940 l 335 149 q 363 66 335 88 q 472 44 392 44 l 578 44 q 710 65 663 44 q 781 142 758 86 q 813 299 804 197 l 853 299 l 843 125 l 839 0 l 261 0 l 53 -4 m 581 311 q 551 453 579 408 q 463 497 524 497 l 313 497 l 313 542 l 463 542 q 547 581 521 542 q 581 708 574 619 l 619 708 l 615 519 l 619 311 l 581 311 m 692 -408 q 574 -365 619 -408 q 529 -254 529 -322 q 565 -137 529 -193 q 666 -33 601 -81 q 815 47 731 14 l 839 0 q 733 -31 782 0 q 652 -110 683 -61 q 621 -215 621 -160 q 648 -296 621 -267 q 722 -325 675 -325 q 793 -302 761 -325 q 847 -235 825 -279 l 874 -254 q 806 -369 854 -329 q 692 -408 758 -408 z "},"F":{"ha":851,"x_min":53,"x_max":844,"o":"m 53 -4 l 53 36 l 81 39 q 154 56 131 44 q 185 97 178 67 q 193 185 193 126 l 193 801 q 185 890 193 861 q 154 931 178 919 q 81 947 131 943 l 53 950 l 53 990 l 261 986 l 660 986 l 828 990 l 832 885 l 844 754 l 806 754 q 731 897 794 853 q 535 940 667 940 l 335 940 l 335 185 q 342 96 335 126 q 374 54 350 65 q 447 39 399 43 l 496 36 l 496 -4 l 264 0 l 261 0 l 53 -4 m 581 311 q 551 453 579 408 q 463 497 524 497 l 313 497 l 313 542 l 463 542 q 547 581 521 542 q 581 708 574 619 l 619 708 l 615 519 l 619 311 l 581 311 z "},"Ƒ":{"ha":851,"x_min":-87,"x_max":844,"o":"m 106 -403 q -35 -367 17 -403 q -87 -274 -87 -332 q -67 -214 -87 -236 q -10 -192 -46 -192 q 44 -209 24 -192 q 65 -256 65 -226 q 57 -291 65 -275 q 49 -324 49 -307 q 99 -362 49 -362 q 169 -321 144 -362 q 193 -196 193 -279 l 193 801 q 185 891 193 861 q 154 932 178 921 q 81 947 131 943 l 53 950 l 53 990 l 261 986 l 713 986 l 828 988 l 832 885 l 844 754 l 806 754 q 731 898 794 853 q 535 943 667 943 l 335 943 l 333 -169 q 275 -342 333 -282 q 106 -403 217 -403 m 581 311 q 550 455 579 413 q 463 497 521 497 l 313 497 l 313 542 l 463 542 q 521 555 496 542 q 561 604 546 568 q 581 708 576 640 l 619 708 l 615 519 l 619 311 l 581 311 z "},"G":{"ha":1094,"x_min":82,"x_max":1081,"o":"m 551 -15 q 364 22 450 -15 q 215 125 278 58 q 117 283 151 192 q 82 483 82 374 q 119 688 82 593 q 221 854 156 783 q 373 965 286 925 q 563 1006 460 1006 q 663 994 615 1006 q 758 960 711 983 q 799 942 785 947 q 826 938 814 938 q 867 986 864 938 l 908 986 l 906 826 l 908 660 l 868 660 q 822 817 861 751 q 716 920 782 883 q 567 957 650 957 q 331 835 414 957 q 249 486 249 713 q 328 149 249 265 q 558 33 408 33 q 685 56 629 33 q 776 119 742 79 q 810 204 810 158 l 810 242 q 783 329 810 303 q 686 363 756 356 l 622 368 l 622 407 l 860 401 l 1081 407 l 1081 368 l 1025 363 q 936 243 936 354 l 936 222 q 969 106 936 167 l 988 74 l 953 49 q 874 100 917 100 q 843 94 857 100 q 790 61 829 88 q 678 3 735 22 q 551 -15 622 -15 z "},"Ğ":{"ha":1094,"x_min":82,"x_max":1081,"o":"m 551 -15 q 364 22 450 -15 q 215 125 278 58 q 117 283 151 192 q 82 483 82 374 q 119 688 82 593 q 221 854 156 783 q 373 965 286 925 q 563 1006 460 1006 q 663 994 615 1006 q 758 960 711 983 q 799 942 785 947 q 826 938 814 938 q 867 986 864 938 l 908 986 l 906 826 l 908 660 l 868 660 q 822 817 861 751 q 716 920 782 883 q 567 957 650 957 q 331 835 414 957 q 249 486 249 713 q 328 149 249 265 q 558 33 408 33 q 685 56 629 33 q 776 119 742 79 q 810 204 810 158 l 810 242 q 783 329 810 303 q 686 363 756 356 l 622 368 l 622 407 l 860 401 l 1081 407 l 1081 368 l 1025 363 q 936 243 936 354 l 936 222 q 969 106 936 167 l 988 74 l 953 49 q 874 100 917 100 q 843 94 857 100 q 790 61 829 88 q 678 3 735 22 q 551 -15 622 -15 m 558 1078 q 447 1124 483 1078 q 411 1239 411 1171 l 411 1285 l 450 1285 l 450 1278 q 478 1193 450 1215 q 558 1171 507 1171 q 639 1193 610 1171 q 668 1278 668 1215 l 668 1285 l 706 1285 l 706 1239 q 670 1124 706 1171 q 558 1078 635 1078 z "},"Ģ":{"ha":1094,"x_min":82,"x_max":1081,"o":"m 551 -15 q 364 22 450 -15 q 215 125 278 58 q 117 283 151 192 q 82 483 82 374 q 119 688 82 593 q 221 854 156 783 q 373 965 286 925 q 563 1006 460 1006 q 663 994 615 1006 q 758 960 711 983 q 799 942 785 947 q 826 938 814 938 q 867 986 864 938 l 908 986 l 906 826 l 908 660 l 868 660 q 822 817 861 751 q 716 920 782 883 q 567 957 650 957 q 331 835 414 957 q 249 486 249 713 q 328 149 249 265 q 558 33 408 33 q 685 56 629 33 q 776 119 742 79 q 810 204 810 158 l 810 242 q 783 329 810 303 q 686 363 756 356 l 622 368 l 622 407 l 860 401 l 1081 407 l 1081 368 l 1025 363 q 936 243 936 354 l 936 222 q 969 106 936 167 l 988 74 l 953 49 q 874 100 917 100 q 843 94 857 100 q 790 61 829 88 q 678 3 735 22 q 551 -15 622 -15 m 510 -411 l 496 -389 q 577 -319 543 -360 q 611 -228 611 -278 q 603 -184 611 -206 q 571 -162 594 -162 l 592 -156 l 581 -178 l 574 -165 q 588 -174 583 -165 q 593 -199 593 -183 q 583 -226 593 -212 q 547 -240 572 -240 q 508 -223 524 -240 q 493 -179 493 -206 q 509 -138 493 -156 q 557 -121 525 -121 q 623 -153 601 -121 q 644 -225 644 -185 q 606 -330 644 -282 q 510 -411 568 -378 z "},"Ġ":{"ha":1094,"x_min":82,"x_max":1081,"o":"m 551 -15 q 364 22 450 -15 q 215 125 278 58 q 117 283 151 192 q 82 483 82 374 q 119 688 82 593 q 221 854 156 783 q 373 965 286 925 q 563 1006 460 1006 q 663 994 615 1006 q 758 960 711 983 q 799 942 785 947 q 826 938 814 938 q 867 986 864 938 l 908 986 l 906 826 l 908 660 l 868 660 q 822 817 861 751 q 716 920 782 883 q 567 957 650 957 q 331 835 414 957 q 249 486 249 713 q 328 149 249 265 q 558 33 408 33 q 685 56 629 33 q 776 119 742 79 q 810 204 810 158 l 810 242 q 783 329 810 303 q 686 363 756 356 l 622 368 l 622 407 l 860 401 l 1081 407 l 1081 368 l 1025 363 q 936 243 936 354 l 936 222 q 969 106 936 167 l 988 74 l 953 49 q 874 100 917 100 q 843 94 857 100 q 790 61 829 88 q 678 3 735 22 q 551 -15 622 -15 m 557 1094 q 497 1119 519 1094 q 475 1181 475 1144 q 497 1242 475 1217 q 557 1267 519 1267 q 620 1242 600 1267 q 640 1181 640 1217 q 620 1119 640 1144 q 557 1094 600 1094 z "},"H":{"ha":1174,"x_min":53,"x_max":1122,"o":"m 700 -4 l 700 36 l 728 39 q 801 56 778 44 q 833 97 825 67 q 840 185 840 126 l 840 801 q 833 890 840 861 q 801 931 825 919 q 728 947 778 943 l 700 950 l 700 990 l 911 986 l 1122 990 l 1122 950 l 1094 947 q 1022 931 1046 943 q 990 890 997 919 q 982 801 982 861 l 982 185 q 989 97 982 126 q 1021 56 996 67 q 1094 39 1046 44 l 1122 36 l 1122 -4 l 911 0 l 700 -4 m 53 -4 l 53 36 l 81 39 q 154 56 131 44 q 185 97 178 67 q 193 185 193 126 l 193 801 q 185 890 193 861 q 154 931 178 919 q 81 947 131 943 l 53 950 l 53 990 l 264 986 l 475 990 l 475 950 l 447 947 q 374 931 399 943 q 342 890 349 919 q 335 801 335 861 l 335 185 q 342 97 335 126 q 374 56 349 67 q 447 39 399 44 l 475 36 l 475 -4 l 264 0 l 53 -4 m 275 485 l 275 536 l 889 536 l 889 485 l 275 485 z "},"Ħ":{"ha":1174,"x_min":53,"x_max":1122,"o":"m 700 -4 l 700 36 l 728 39 q 801 56 778 44 q 833 97 825 67 q 840 185 840 126 l 840 801 q 833 890 840 861 q 801 931 825 919 q 728 947 778 943 l 700 950 l 700 990 l 911 986 l 1122 990 l 1122 950 l 1094 947 q 1022 931 1046 943 q 990 890 997 919 q 982 801 982 861 l 982 185 q 989 97 982 126 q 1021 56 996 67 q 1094 39 1046 44 l 1122 36 l 1122 -4 l 911 0 l 700 -4 m 53 -4 l 53 36 l 81 39 q 154 56 131 44 q 185 97 178 67 q 193 185 193 126 l 193 801 q 185 890 193 861 q 154 931 178 919 q 81 947 131 943 l 53 950 l 53 990 l 264 986 l 475 990 l 475 950 l 447 947 q 374 931 399 943 q 342 890 349 919 q 335 801 335 861 l 335 185 q 342 97 335 126 q 374 56 349 67 q 447 39 399 44 l 475 36 l 475 -4 l 264 0 l 53 -4 m 275 485 l 275 536 l 889 536 l 889 485 l 275 485 m 243 646 l 243 690 l 922 690 l 922 646 l 243 646 z "},"Ĥ":{"ha":1174,"x_min":53,"x_max":1122,"o":"m 700 -4 l 700 36 l 728 39 q 801 56 778 44 q 833 97 825 67 q 840 185 840 126 l 840 801 q 833 890 840 861 q 801 931 825 919 q 728 947 778 943 l 700 950 l 700 990 l 911 986 l 1122 990 l 1122 950 l 1094 947 q 1022 931 1046 943 q 990 890 997 919 q 982 801 982 861 l 982 185 q 989 97 982 126 q 1021 56 996 67 q 1094 39 1046 44 l 1122 36 l 1122 -4 l 911 0 l 700 -4 m 53 -4 l 53 36 l 81 39 q 154 56 131 44 q 185 97 178 67 q 193 185 193 126 l 193 801 q 185 890 193 861 q 154 931 178 919 q 81 947 131 943 l 53 950 l 53 990 l 264 986 l 475 990 l 475 950 l 447 947 q 374 931 399 943 q 342 890 349 919 q 335 801 335 861 l 335 185 q 342 97 335 126 q 374 56 349 67 q 447 39 399 44 l 475 36 l 475 -4 l 264 0 l 53 -4 m 275 485 l 275 536 l 889 536 l 889 485 l 275 485 m 439 1057 l 563 1306 l 613 1306 l 736 1057 l 701 1057 l 592 1182 l 583 1182 l 474 1057 l 439 1057 z "},"I":{"ha":526,"x_min":53,"x_max":475,"o":"m 53 -4 l 53 36 l 81 39 q 154 56 131 44 q 185 97 178 67 q 193 185 193 126 l 193 801 q 185 890 193 861 q 154 931 178 919 q 81 947 131 943 l 53 950 l 53 990 l 264 986 l 475 990 l 475 950 l 447 947 q 374 931 399 943 q 342 890 349 919 q 335 801 335 861 l 335 185 q 342 97 335 126 q 374 56 349 67 q 447 39 399 44 l 475 36 l 475 -4 l 264 0 l 53 -4 z "},"Ĳ":{"ha":1143,"x_min":53,"x_max":1107,"o":"m 53 -4 l 53 36 l 81 39 q 154 56 131 44 q 185 97 178 67 q 193 185 193 126 l 193 801 q 185 890 193 861 q 154 931 178 919 q 81 947 131 943 l 53 950 l 53 990 l 264 986 l 475 990 l 475 950 l 447 947 q 374 931 399 943 q 342 890 349 919 q 335 801 335 861 l 335 185 q 342 97 335 126 q 374 56 349 67 q 447 39 399 44 l 475 36 l 475 -4 l 264 0 l 53 -4 m 739 -17 q 597 19 650 -17 q 543 113 543 54 q 565 172 543 149 q 624 194 588 194 q 676 176 656 194 q 696 131 696 158 q 694 116 696 125 q 688 94 693 107 q 681 63 681 76 q 728 24 681 24 q 799 67 774 24 q 824 190 824 110 l 824 801 q 817 891 824 861 q 785 932 810 921 q 711 947 761 943 l 683 950 l 683 990 l 894 986 l 896 986 l 1107 990 l 1107 950 l 1079 947 q 1005 931 1029 943 q 973 890 981 919 q 965 801 965 861 l 965 217 q 908 43 965 103 q 739 -17 851 -17 z "},"Í":{"ha":526,"x_min":53,"x_max":475,"o":"m 53 -4 l 53 36 l 81 39 q 154 56 131 44 q 185 97 178 67 q 193 185 193 126 l 193 801 q 185 890 193 861 q 154 931 178 919 q 81 947 131 943 l 53 950 l 53 990 l 264 986 l 475 990 l 475 950 l 447 947 q 374 931 399 943 q 342 890 349 919 q 335 801 335 861 l 335 185 q 342 97 335 126 q 374 56 349 67 q 447 39 399 44 l 475 36 l 475 -4 l 264 0 l 53 -4 m 236 1056 l 272 1306 l 401 1306 l 258 1056 l 236 1056 z "},"Ǐ":{"ha":526,"x_min":53,"x_max":475,"o":"m 53 -4 l 53 36 l 81 39 q 154 56 131 44 q 185 97 178 67 q 193 185 193 126 l 193 801 q 185 890 193 861 q 154 931 178 919 q 81 947 131 943 l 53 950 l 53 990 l 264 986 l 475 990 l 475 950 l 447 947 q 374 931 399 943 q 342 890 349 919 q 335 801 335 861 l 335 185 q 342 97 335 126 q 374 56 349 67 q 447 39 399 44 l 475 36 l 475 -4 l 264 0 l 53 -4 m 240 1056 l 117 1306 l 151 1306 l 261 1181 l 269 1181 l 379 1306 l 414 1306 l 290 1056 l 240 1056 z "},"Î":{"ha":526,"x_min":53,"x_max":475,"o":"m 53 -4 l 53 36 l 81 39 q 154 56 131 44 q 185 97 178 67 q 193 185 193 126 l 193 801 q 185 890 193 861 q 154 931 178 919 q 81 947 131 943 l 53 950 l 53 990 l 264 986 l 475 990 l 475 950 l 447 947 q 374 931 399 943 q 342 890 349 919 q 335 801 335 861 l 335 185 q 342 97 335 126 q 374 56 349 67 q 447 39 399 44 l 475 36 l 475 -4 l 264 0 l 53 -4 m 114 1057 l 238 1306 l 288 1306 l 411 1057 l 376 1057 l 267 1182 l 258 1182 l 149 1057 l 114 1057 z "},"Ï":{"ha":526,"x_min":53,"x_max":475,"o":"m 53 -4 l 53 36 l 81 39 q 154 56 131 44 q 185 97 178 67 q 193 185 193 126 l 193 801 q 185 890 193 861 q 154 931 178 919 q 81 947 131 943 l 53 950 l 53 990 l 264 986 l 475 990 l 475 950 l 447 947 q 374 931 399 943 q 342 890 349 919 q 335 801 335 861 l 335 185 q 342 97 335 126 q 374 56 349 67 q 447 39 399 44 l 475 36 l 475 -4 l 264 0 l 53 -4 m 132 1100 q 76 1123 96 1100 q 56 1181 56 1146 q 76 1237 56 1214 q 132 1260 96 1260 q 189 1237 171 1260 q 207 1181 207 1214 q 189 1123 207 1146 q 132 1100 171 1100 m 399 1100 q 344 1123 364 1100 q 324 1181 324 1146 q 344 1237 324 1214 q 399 1260 364 1260 q 456 1237 438 1260 q 474 1181 474 1214 q 456 1123 474 1146 q 399 1100 438 1100 z "},"İ":{"ha":526,"x_min":53,"x_max":475,"o":"m 53 -4 l 53 36 l 81 39 q 154 56 131 44 q 185 97 178 67 q 193 185 193 126 l 193 801 q 185 890 193 861 q 154 931 178 919 q 81 947 131 943 l 53 950 l 53 990 l 264 986 l 475 990 l 475 950 l 447 947 q 374 931 399 943 q 342 890 349 919 q 335 801 335 861 l 335 185 q 342 97 335 126 q 374 56 349 67 q 447 39 399 44 l 475 36 l 475 -4 l 264 0 l 53 -4 m 264 1094 q 204 1119 226 1094 q 182 1181 182 1144 q 204 1242 182 1217 q 264 1267 226 1267 q 327 1242 307 1267 q 347 1181 347 1217 q 327 1119 347 1144 q 264 1094 307 1094 z "},"Ì":{"ha":526,"x_min":53,"x_max":475,"o":"m 53 -4 l 53 36 l 81 39 q 154 56 131 44 q 185 97 178 67 q 193 185 193 126 l 193 801 q 185 890 193 861 q 154 931 178 919 q 81 947 131 943 l 53 950 l 53 990 l 264 986 l 475 990 l 475 950 l 447 947 q 374 931 399 943 q 342 890 349 919 q 335 801 335 861 l 335 185 q 342 97 335 126 q 374 56 349 67 q 447 39 399 44 l 475 36 l 475 -4 l 264 0 l 53 -4 m 292 1056 l 269 1056 l 126 1306 l 256 1306 l 292 1056 z "},"Ī":{"ha":526,"x_min":53,"x_max":475,"o":"m 53 -4 l 53 36 l 81 39 q 154 56 131 44 q 185 97 178 67 q 193 185 193 126 l 193 801 q 185 890 193 861 q 154 931 178 919 q 81 947 131 943 l 53 950 l 53 990 l 264 986 l 475 990 l 475 950 l 447 947 q 374 931 399 943 q 342 890 349 919 q 335 801 335 861 l 335 185 q 342 97 335 126 q 374 56 349 67 q 447 39 399 44 l 475 36 l 475 -4 l 264 0 l 53 -4 m 96 1151 l 96 1210 l 431 1210 l 431 1151 l 96 1151 z "},"Į":{"ha":526,"x_min":53,"x_max":475,"o":"m 53 -4 l 53 36 l 81 39 q 154 56 131 44 q 185 97 178 67 q 193 185 193 126 l 193 801 q 185 890 193 861 q 154 931 178 919 q 81 947 131 943 l 53 950 l 53 990 l 264 986 l 475 990 l 475 950 l 447 947 q 374 931 399 943 q 342 890 349 919 q 335 801 335 861 l 335 185 q 342 97 335 126 q 374 56 349 67 q 447 39 399 44 l 475 36 l 475 -4 l 264 0 l 53 -4 m 261 -408 q 144 -365 189 -408 q 99 -254 99 -322 q 135 -137 99 -193 q 235 -33 171 -81 q 385 47 300 14 l 408 0 q 302 -31 351 0 q 222 -110 253 -61 q 190 -215 190 -160 q 217 -296 190 -267 q 292 -325 244 -325 q 363 -302 331 -325 q 417 -235 394 -279 l 443 -254 q 376 -369 424 -329 q 261 -408 328 -408 z "},"J":{"ha":617,"x_min":17,"x_max":581,"o":"m 213 -17 q 70 19 124 -17 q 17 113 17 54 q 39 172 17 149 q 97 194 61 194 q 149 176 129 194 q 169 131 169 158 q 168 116 169 125 q 161 94 167 107 q 154 63 154 76 q 201 24 154 24 q 272 67 247 24 q 297 190 297 110 l 297 801 q 290 891 297 861 q 259 932 283 921 q 185 947 235 943 l 157 950 l 157 990 l 368 986 l 369 986 l 581 990 l 581 950 l 553 947 q 478 931 503 943 q 447 890 454 919 q 439 801 439 861 l 439 217 q 382 43 439 103 q 213 -17 325 -17 z "},"K":{"ha":1039,"x_min":53,"x_max":1064,"o":"m 311 339 l 311 419 l 653 811 q 688 858 678 839 q 697 894 697 876 q 632 946 697 939 l 589 950 l 589 990 l 774 986 l 942 990 l 942 951 l 899 946 q 826 915 863 940 q 743 838 789 890 l 311 339 m 53 -4 l 53 36 l 81 39 q 154 56 131 44 q 185 97 178 67 q 193 185 193 126 l 193 801 q 185 891 193 861 q 154 932 178 921 q 81 947 131 943 l 53 950 l 53 990 l 263 986 l 458 990 l 458 950 l 431 947 q 366 931 388 943 q 338 888 344 918 q 331 801 331 858 l 331 185 q 338 96 331 125 q 367 56 344 67 q 436 39 389 44 l 461 36 l 461 -4 l 263 0 l 53 -4 m 638 -4 l 638 36 l 658 38 q 722 79 722 42 q 714 111 722 93 q 688 154 706 129 l 422 513 l 525 619 l 803 238 q 896 120 858 163 q 966 60 933 78 q 1038 38 999 42 l 1064 36 l 1064 -4 l 860 0 l 638 -4 z "},"Ķ":{"ha":1039,"x_min":53,"x_max":1064,"o":"m 311 339 l 311 419 l 653 811 q 688 858 678 839 q 697 894 697 876 q 632 946 697 939 l 589 950 l 589 990 l 774 986 l 942 990 l 942 951 l 899 946 q 826 915 863 940 q 743 838 789 890 l 311 339 m 53 -4 l 53 36 l 81 39 q 154 56 131 44 q 185 97 178 67 q 193 185 193 126 l 193 801 q 185 891 193 861 q 154 932 178 921 q 81 947 131 943 l 53 950 l 53 990 l 263 986 l 458 990 l 458 950 l 431 947 q 366 931 388 943 q 338 888 344 918 q 331 801 331 858 l 331 185 q 338 96 331 125 q 367 56 344 67 q 436 39 389 44 l 461 36 l 461 -4 l 263 0 l 53 -4 m 638 -4 l 638 36 l 658 38 q 722 79 722 42 q 714 111 722 93 q 688 154 706 129 l 422 513 l 525 619 l 803 238 q 896 120 858 163 q 966 60 933 78 q 1038 38 999 42 l 1064 36 l 1064 -4 l 860 0 l 638 -4 m 504 -411 l 490 -389 q 572 -319 538 -360 q 606 -228 606 -278 q 597 -184 606 -206 q 565 -162 589 -162 l 586 -156 l 575 -178 l 568 -165 q 583 -174 578 -165 q 588 -199 588 -183 q 577 -226 588 -212 q 542 -240 567 -240 q 503 -223 518 -240 q 488 -179 488 -206 q 503 -138 488 -156 q 551 -121 519 -121 q 617 -153 596 -121 q 639 -225 639 -185 q 601 -330 639 -282 q 504 -411 563 -378 z "},"L":{"ha":907,"x_min":53,"x_max":860,"o":"m 53 -4 l 53 36 l 81 39 q 154 56 131 44 q 185 96 178 67 q 193 185 193 125 l 193 801 q 185 891 193 861 q 154 932 178 921 q 81 947 131 943 l 53 950 l 53 990 l 267 986 l 475 990 l 475 950 l 439 947 q 374 931 396 943 q 343 892 351 919 q 335 814 335 865 l 335 221 q 347 110 335 149 q 393 59 358 72 q 490 46 428 46 l 574 46 q 750 106 692 46 q 824 299 808 165 l 860 299 l 846 -3 l 261 0 l 53 -4 z "},"Ĺ":{"ha":907,"x_min":53,"x_max":860,"o":"m 53 -4 l 53 36 l 81 39 q 154 56 131 44 q 185 96 178 67 q 193 185 193 125 l 193 801 q 185 891 193 861 q 154 932 178 921 q 81 947 131 943 l 53 950 l 53 990 l 267 986 l 475 990 l 475 950 l 439 947 q 374 931 396 943 q 343 892 351 919 q 335 814 335 865 l 335 221 q 347 110 335 149 q 393 59 358 72 q 490 46 428 46 l 574 46 q 750 106 692 46 q 824 299 808 165 l 860 299 l 846 -3 l 261 0 l 53 -4 m 238 1056 l 274 1306 l 403 1306 l 260 1056 l 238 1056 z "},"Ľ":{"ha":907,"x_min":53,"x_max":860,"o":"m 53 -4 l 53 36 l 81 39 q 154 56 131 44 q 185 96 178 67 q 193 185 193 125 l 193 801 q 185 891 193 861 q 154 932 178 921 q 81 947 131 943 l 53 950 l 53 990 l 267 986 l 475 990 l 475 950 l 439 947 q 374 931 396 943 q 343 892 351 919 q 335 814 335 865 l 335 221 q 347 110 335 149 q 393 59 358 72 q 490 46 428 46 l 574 46 q 750 106 692 46 q 824 299 808 165 l 860 299 l 846 -3 l 261 0 l 53 -4 m 597 740 l 625 986 l 747 986 l 644 740 l 597 740 z "},"Ļ":{"ha":907,"x_min":53,"x_max":860,"o":"m 53 -4 l 53 36 l 81 39 q 154 56 131 44 q 185 96 178 67 q 193 185 193 125 l 193 801 q 185 891 193 861 q 154 932 178 921 q 81 947 131 943 l 53 950 l 53 990 l 267 986 l 475 990 l 475 950 l 439 947 q 374 931 396 943 q 343 892 351 919 q 335 814 335 865 l 335 221 q 347 110 335 149 q 393 59 358 72 q 490 46 428 46 l 574 46 q 750 106 692 46 q 824 299 808 165 l 860 299 l 846 -3 l 261 0 l 53 -4 m 454 -411 l 440 -389 q 522 -319 488 -360 q 556 -228 556 -278 q 547 -184 556 -206 q 515 -162 539 -162 l 536 -156 l 525 -178 l 518 -165 q 533 -174 528 -165 q 538 -199 538 -183 q 527 -226 538 -212 q 492 -240 517 -240 q 453 -223 468 -240 q 438 -179 438 -206 q 453 -138 438 -156 q 501 -121 469 -121 q 567 -153 546 -121 q 589 -225 589 -185 q 551 -330 589 -282 q 454 -411 513 -378 z "},"Ŀ":{"ha":907,"x_min":53,"x_max":860,"o":"m 53 -4 l 53 36 l 81 39 q 154 56 131 44 q 185 96 178 67 q 193 185 193 125 l 193 801 q 185 891 193 861 q 154 932 178 921 q 81 947 131 943 l 53 950 l 53 990 l 267 986 l 475 990 l 475 950 l 439 947 q 374 931 396 943 q 343 892 351 919 q 335 814 335 865 l 335 221 q 347 110 335 149 q 393 59 358 72 q 490 46 428 46 l 574 46 q 750 106 692 46 q 824 299 808 165 l 860 299 l 846 -3 l 261 0 l 53 -4 m 725 433 q 657 461 685 433 q 629 529 629 489 q 657 595 629 568 q 725 622 685 622 q 791 595 764 622 q 818 529 818 568 q 791 461 818 489 q 725 433 764 433 z "},"Ł":{"ha":907,"x_min":40,"x_max":860,"o":"m 57 344 l 40 388 l 601 642 l 628 581 l 57 344 m 53 -4 l 53 36 l 81 39 q 154 56 131 44 q 185 96 178 67 q 193 185 193 125 l 193 801 q 185 891 193 861 q 154 932 178 921 q 81 947 131 943 l 53 950 l 53 990 l 267 986 l 475 990 l 475 950 l 439 947 q 374 931 396 943 q 343 892 351 919 q 335 814 335 865 l 335 221 q 347 110 335 149 q 393 59 358 72 q 490 46 428 46 l 574 46 q 750 106 692 46 q 824 299 808 165 l 860 299 l 846 -3 l 261 0 l 53 -4 z "},"M":{"ha":1376,"x_min":43,"x_max":1325,"o":"m 43 -4 l 43 36 l 75 39 q 151 56 126 44 q 183 97 175 67 q 190 185 190 126 l 190 801 q 183 890 190 861 q 152 931 176 919 q 78 947 128 943 l 50 950 l 50 990 l 261 986 l 357 986 l 700 165 l 647 140 l 1025 986 l 1122 986 l 1325 990 l 1325 950 l 1297 947 q 1223 931 1247 943 q 1191 890 1199 919 q 1183 801 1183 861 l 1183 185 q 1191 96 1183 125 q 1223 56 1199 67 q 1297 39 1247 44 l 1325 36 l 1325 -4 l 1114 0 l 901 -4 l 901 36 l 929 39 q 1004 56 981 44 q 1035 96 1028 67 q 1042 185 1042 125 l 1042 950 l 1068 947 l 643 0 l 610 0 l 221 943 l 246 946 l 246 156 q 255 88 246 111 q 290 53 264 64 q 363 39 315 43 l 393 36 l 393 -4 l 215 0 l 43 -4 z "},"N":{"ha":1086,"x_min":43,"x_max":1058,"o":"m 860 0 q 775 138 829 56 q 651 317 721 221 q 506 512 582 413 q 354 704 431 611 q 210 872 278 797 q 163 919 183 903 q 122 943 142 936 q 79 950 103 950 l 43 950 l 43 990 l 328 986 q 390 901 350 956 q 481 781 431 847 q 588 641 532 714 q 697 498 643 568 q 797 369 750 428 q 874 271 843 310 l 850 219 l 850 801 q 842 891 850 861 q 810 932 835 921 q 735 947 786 943 l 703 950 l 703 990 l 885 986 l 1058 990 l 1058 950 l 1026 947 q 951 931 976 943 q 919 890 926 919 q 911 801 911 861 l 911 0 l 860 0 m 49 -6 l 49 35 l 81 38 q 156 53 132 42 q 188 94 181 64 q 196 185 196 125 l 196 903 l 257 914 l 257 185 q 265 94 257 125 q 297 53 272 64 q 372 38 322 42 l 404 35 l 404 -6 l 225 0 l 49 -6 z "},"Ń":{"ha":1086,"x_min":43,"x_max":1058,"o":"m 860 0 q 775 138 829 56 q 651 317 721 221 q 506 512 582 413 q 354 704 431 611 q 210 872 278 797 q 163 919 183 903 q 122 943 142 936 q 79 950 103 950 l 43 950 l 43 990 l 328 986 q 390 901 350 956 q 481 781 431 847 q 588 641 532 714 q 697 498 643 568 q 797 369 750 428 q 874 271 843 310 l 850 219 l 850 801 q 842 891 850 861 q 810 932 835 921 q 735 947 786 943 l 703 950 l 703 990 l 885 986 l 1058 990 l 1058 950 l 1026 947 q 951 931 976 943 q 919 890 926 919 q 911 801 911 861 l 911 0 l 860 0 m 49 -6 l 49 35 l 81 38 q 156 53 132 42 q 188 94 181 64 q 196 185 196 125 l 196 903 l 257 914 l 257 185 q 265 94 257 125 q 297 53 272 64 q 372 38 322 42 l 404 35 l 404 -6 l 225 0 l 49 -6 m 529 1056 l 565 1306 l 694 1306 l 551 1056 l 529 1056 z "},"Ň":{"ha":1086,"x_min":43,"x_max":1058,"o":"m 860 0 q 775 138 829 56 q 651 317 721 221 q 506 512 582 413 q 354 704 431 611 q 210 872 278 797 q 163 919 183 903 q 122 943 142 936 q 79 950 103 950 l 43 950 l 43 990 l 328 986 q 390 901 350 956 q 481 781 431 847 q 588 641 532 714 q 697 498 643 568 q 797 369 750 428 q 874 271 843 310 l 850 219 l 850 801 q 842 891 850 861 q 810 932 835 921 q 735 947 786 943 l 703 950 l 703 990 l 885 986 l 1058 990 l 1058 950 l 1026 947 q 951 931 976 943 q 919 890 926 919 q 911 801 911 861 l 911 0 l 860 0 m 49 -6 l 49 35 l 81 38 q 156 53 132 42 q 188 94 181 64 q 196 185 196 125 l 196 903 l 257 914 l 257 185 q 265 94 257 125 q 297 53 272 64 q 372 38 322 42 l 404 35 l 404 -6 l 225 0 l 49 -6 m 533 1056 l 410 1306 l 444 1306 l 554 1181 l 563 1181 l 672 1306 l 707 1306 l 583 1056 l 533 1056 z "},"Ņ":{"ha":1086,"x_min":43,"x_max":1058,"o":"m 860 0 q 775 138 829 56 q 651 317 721 221 q 506 512 582 413 q 354 704 431 611 q 210 872 278 797 q 163 919 183 903 q 122 943 142 936 q 79 950 103 950 l 43 950 l 43 990 l 328 986 q 390 901 350 956 q 481 781 431 847 q 588 641 532 714 q 697 498 643 568 q 797 369 750 428 q 874 271 843 310 l 850 219 l 850 801 q 842 891 850 861 q 810 932 835 921 q 735 947 786 943 l 703 950 l 703 990 l 885 986 l 1058 990 l 1058 950 l 1026 947 q 951 931 976 943 q 919 890 926 919 q 911 801 911 861 l 911 0 l 860 0 m 49 -6 l 49 35 l 81 38 q 156 53 132 42 q 188 94 181 64 q 196 185 196 125 l 196 903 l 257 914 l 257 185 q 265 94 257 125 q 297 53 272 64 q 372 38 322 42 l 404 35 l 404 -6 l 225 0 l 49 -6 m 556 -411 l 542 -389 q 623 -319 589 -360 q 657 -228 657 -278 q 649 -184 657 -206 q 617 -162 640 -162 l 638 -156 l 626 -178 l 619 -165 q 634 -174 629 -165 q 639 -199 639 -183 q 628 -226 639 -212 q 593 -240 618 -240 q 554 -223 569 -240 q 539 -179 539 -206 q 555 -138 539 -156 q 603 -121 571 -121 q 669 -153 647 -121 q 690 -225 690 -185 q 652 -330 690 -282 q 556 -411 614 -378 z "},"Ñ":{"ha":1086,"x_min":43,"x_max":1058,"o":"m 860 0 q 775 138 829 56 q 651 317 721 221 q 506 512 582 413 q 354 704 431 611 q 210 872 278 797 q 163 919 183 903 q 122 943 142 936 q 79 950 103 950 l 43 950 l 43 990 l 328 986 q 390 901 350 956 q 481 781 431 847 q 588 641 532 714 q 697 498 643 568 q 797 369 750 428 q 874 271 843 310 l 850 219 l 850 801 q 842 891 850 861 q 810 932 835 921 q 735 947 786 943 l 703 950 l 703 990 l 885 986 l 1058 990 l 1058 950 l 1026 947 q 951 931 976 943 q 919 890 926 919 q 911 801 911 861 l 911 0 l 860 0 m 49 -6 l 49 35 l 81 38 q 156 53 132 42 q 188 94 181 64 q 196 185 196 125 l 196 903 l 257 914 l 257 185 q 265 94 257 125 q 297 53 272 64 q 372 38 322 42 l 404 35 l 404 -6 l 225 0 l 49 -6 m 661 1096 q 613 1107 636 1096 q 571 1128 589 1118 l 525 1153 q 483 1176 503 1167 q 444 1185 463 1185 q 392 1160 413 1185 q 365 1111 371 1136 l 336 1111 q 349 1175 336 1139 q 388 1238 361 1211 q 458 1265 415 1265 q 508 1253 483 1265 q 550 1232 533 1240 l 604 1200 q 638 1185 618 1194 q 676 1175 658 1175 q 723 1194 704 1175 q 749 1243 742 1214 l 778 1243 q 742 1136 774 1176 q 661 1096 710 1096 z "},"Ŋ":{"ha":1086,"x_min":43,"x_max":1058,"o":"m 257 843 l 257 185 q 265 94 257 125 q 297 53 272 64 q 372 38 322 42 l 404 35 l 404 -6 l 225 0 l 49 -6 l 49 35 l 81 38 q 156 53 132 42 q 188 94 181 64 q 196 185 196 125 l 196 908 l 257 843 m 850 801 q 840 896 850 867 q 806 935 831 925 q 735 947 782 944 l 703 950 l 703 990 l 885 986 l 1058 990 l 1058 950 l 1026 947 q 956 935 981 944 q 921 896 931 925 q 911 801 911 867 l 911 -100 q 885 -265 911 -207 q 819 -344 860 -322 q 732 -367 778 -367 q 625 -333 660 -367 q 590 -254 590 -300 q 610 -198 590 -219 q 665 -176 631 -176 q 716 -192 694 -176 q 738 -237 738 -208 q 735 -260 738 -249 q 732 -281 732 -272 q 767 -311 732 -311 q 828 -256 807 -311 q 850 -104 850 -201 l 850 801 m 868 -12 q 782 131 838 46 q 656 315 726 217 q 507 515 585 414 q 356 706 429 615 q 224 864 283 797 q 181 910 201 890 q 136 940 160 929 q 79 950 113 950 l 43 950 l 43 990 l 328 986 q 398 892 356 949 q 490 769 440 836 q 594 633 540 703 q 697 497 647 563 q 790 378 747 432 q 860 289 832 324 l 868 -12 z "},"O":{"ha":1143,"x_min":82,"x_max":1061,"o":"m 572 -15 q 375 22 464 -15 q 220 128 286 60 q 118 291 154 197 q 82 496 82 385 q 118 700 82 607 q 220 862 154 793 q 375 968 286 931 q 572 1006 464 1006 q 769 968 679 1006 q 924 862 858 931 q 1025 700 989 793 q 1061 496 1061 607 q 1025 291 1061 385 q 924 128 989 197 q 769 22 858 60 q 572 -15 679 -15 m 572 33 q 896 496 896 33 q 572 957 896 957 q 249 496 249 957 q 572 33 249 33 z "},"Ó":{"ha":1143,"x_min":82,"x_max":1061,"o":"m 572 -15 q 375 22 464 -15 q 220 128 286 60 q 118 291 154 197 q 82 496 82 385 q 118 700 82 607 q 220 862 154 793 q 375 968 286 931 q 572 1006 464 1006 q 769 968 679 1006 q 924 862 858 931 q 1025 700 989 793 q 1061 496 1061 607 q 1025 291 1061 385 q 924 128 989 197 q 769 22 858 60 q 572 -15 679 -15 m 572 33 q 896 496 896 33 q 572 957 896 957 q 249 496 249 957 q 572 33 249 33 m 544 1056 l 581 1306 l 710 1306 l 567 1056 l 544 1056 z "},"Ǒ":{"ha":1143,"x_min":82,"x_max":1061,"o":"m 572 -15 q 375 22 464 -15 q 220 128 286 60 q 118 291 154 197 q 82 496 82 385 q 118 700 82 607 q 220 862 154 793 q 375 968 286 931 q 572 1006 464 1006 q 769 968 679 1006 q 924 862 858 931 q 1025 700 989 793 q 1061 496 1061 607 q 1025 291 1061 385 q 924 128 989 197 q 769 22 858 60 q 572 -15 679 -15 m 572 33 q 896 496 896 33 q 572 957 896 957 q 249 496 249 957 q 572 33 249 33 m 549 1056 l 425 1306 l 460 1306 l 569 1181 l 578 1181 l 688 1306 l 722 1306 l 599 1056 l 549 1056 z "},"Ô":{"ha":1143,"x_min":82,"x_max":1061,"o":"m 572 -15 q 375 22 464 -15 q 220 128 286 60 q 118 291 154 197 q 82 496 82 385 q 118 700 82 607 q 220 862 154 793 q 375 968 286 931 q 572 1006 464 1006 q 769 968 679 1006 q 924 862 858 931 q 1025 700 989 793 q 1061 496 1061 607 q 1025 291 1061 385 q 924 128 989 197 q 769 22 858 60 q 572 -15 679 -15 m 572 33 q 896 496 896 33 q 572 957 896 957 q 249 496 249 957 q 572 33 249 33 m 422 1057 l 546 1306 l 596 1306 l 719 1057 l 685 1057 l 575 1182 l 567 1182 l 457 1057 l 422 1057 z "},"Ö":{"ha":1143,"x_min":82,"x_max":1061,"o":"m 572 -15 q 375 22 464 -15 q 220 128 286 60 q 118 291 154 197 q 82 496 82 385 q 118 700 82 607 q 220 862 154 793 q 375 968 286 931 q 572 1006 464 1006 q 769 968 679 1006 q 924 862 858 931 q 1025 700 989 793 q 1061 496 1061 607 q 1025 291 1061 385 q 924 128 989 197 q 769 22 858 60 q 572 -15 679 -15 m 572 33 q 896 496 896 33 q 572 957 896 957 q 249 496 249 957 q 572 33 249 33 m 440 1100 q 384 1123 404 1100 q 364 1181 364 1146 q 384 1237 364 1214 q 440 1260 404 1260 q 497 1237 479 1260 q 515 1181 515 1214 q 497 1123 515 1146 q 440 1100 479 1100 m 707 1100 q 652 1123 672 1100 q 632 1181 632 1146 q 652 1237 632 1214 q 707 1260 672 1260 q 764 1237 746 1260 q 782 1181 782 1214 q 764 1123 782 1146 q 707 1100 746 1100 z "},"Ò":{"ha":1143,"x_min":82,"x_max":1061,"o":"m 572 -15 q 375 22 464 -15 q 220 128 286 60 q 118 291 154 197 q 82 496 82 385 q 118 700 82 607 q 220 862 154 793 q 375 968 286 931 q 572 1006 464 1006 q 769 968 679 1006 q 924 862 858 931 q 1025 700 989 793 q 1061 496 1061 607 q 1025 291 1061 385 q 924 128 989 197 q 769 22 858 60 q 572 -15 679 -15 m 572 33 q 896 496 896 33 q 572 957 896 957 q 249 496 249 957 q 572 33 249 33 m 600 1056 l 578 1056 l 435 1306 l 564 1306 l 600 1056 z "},"Ő":{"ha":1143,"x_min":82,"x_max":1061,"o":"m 572 -15 q 375 22 464 -15 q 220 128 286 60 q 118 291 154 197 q 82 496 82 385 q 118 700 82 607 q 220 862 154 793 q 375 968 286 931 q 572 1006 464 1006 q 769 968 679 1006 q 924 862 858 931 q 1025 700 989 793 q 1061 496 1061 607 q 1025 291 1061 385 q 924 128 989 197 q 769 22 858 60 q 572 -15 679 -15 m 572 33 q 896 496 896 33 q 572 957 896 957 q 249 496 249 957 q 572 33 249 33 m 454 1056 l 490 1306 l 615 1306 l 476 1056 l 454 1056 m 642 1057 l 678 1307 l 804 1307 l 664 1057 l 642 1057 z "},"Ō":{"ha":1143,"x_min":82,"x_max":1061,"o":"m 572 -15 q 375 22 464 -15 q 220 128 286 60 q 118 291 154 197 q 82 496 82 385 q 118 700 82 607 q 220 862 154 793 q 375 968 286 931 q 572 1006 464 1006 q 769 968 679 1006 q 924 862 858 931 q 1025 700 989 793 q 1061 496 1061 607 q 1025 291 1061 385 q 924 128 989 197 q 769 22 858 60 q 572 -15 679 -15 m 572 33 q 896 496 896 33 q 572 957 896 957 q 249 496 249 957 q 572 33 249 33 m 404 1151 l 404 1210 l 739 1210 l 739 1151 l 404 1151 z "},"Ø":{"ha":1143,"x_min":82,"x_max":1061,"o":"m 572 -15 q 375 22 464 -15 q 220 128 286 60 q 118 291 154 197 q 82 496 82 385 q 118 700 82 607 q 220 862 154 793 q 375 968 286 931 q 572 1006 464 1006 q 769 968 679 1006 q 924 862 858 931 q 1025 700 989 793 q 1061 496 1061 607 q 1025 291 1061 385 q 924 128 989 197 q 769 22 858 60 q 572 -15 679 -15 m 572 33 q 896 496 896 33 q 572 957 896 957 q 249 496 249 957 q 572 33 249 33 m 139 -69 l 99 -36 l 1007 1058 l 1044 1025 l 139 -69 z "},"Õ":{"ha":1143,"x_min":82,"x_max":1061,"o":"m 572 -15 q 375 22 464 -15 q 220 128 286 60 q 118 291 154 197 q 82 496 82 385 q 118 700 82 607 q 220 862 154 793 q 375 968 286 931 q 572 1006 464 1006 q 769 968 679 1006 q 924 862 858 931 q 1025 700 989 793 q 1061 496 1061 607 q 1025 291 1061 385 q 924 128 989 197 q 769 22 858 60 q 572 -15 679 -15 m 572 33 q 896 496 896 33 q 572 957 896 957 q 249 496 249 957 q 572 33 249 33 m 675 1096 q 626 1107 650 1096 q 585 1128 603 1118 l 539 1153 q 497 1176 517 1167 q 458 1185 476 1185 q 406 1160 426 1185 q 379 1111 385 1136 l 350 1111 q 363 1175 350 1139 q 402 1238 375 1211 q 472 1265 429 1265 q 522 1253 497 1265 q 564 1232 547 1240 l 618 1200 q 652 1185 632 1194 q 690 1175 672 1175 q 737 1194 718 1175 q 763 1243 756 1214 l 792 1243 q 756 1136 788 1176 q 675 1096 724 1096 z "},"Œ":{"ha":1422,"x_min":82,"x_max":1374,"o":"m 567 -15 q 374 22 463 -15 q 220 128 286 60 q 118 290 154 197 q 82 490 82 382 q 119 693 82 600 q 221 857 156 786 q 373 967 286 928 q 561 1006 460 1006 q 636 1001 597 1006 q 718 986 675 996 l 797 986 l 1153 986 l 1318 990 l 1321 886 l 1332 751 l 1293 751 q 1267 850 1283 813 q 1222 908 1251 888 q 1141 935 1192 928 q 1011 943 1090 943 l 879 943 l 879 149 q 903 66 879 90 q 983 42 926 42 l 1088 42 q 1228 63 1178 42 q 1301 139 1278 83 q 1333 299 1325 194 l 1374 299 l 1364 125 l 1360 0 l 803 0 l 681 -3 q 567 -15 625 -15 m 585 33 q 703 68 669 33 q 736 188 736 103 l 736 799 q 698 921 736 885 q 569 957 660 957 q 329 839 410 957 q 249 489 249 721 q 333 147 249 260 q 585 33 417 33 m 1090 311 q 1062 454 1089 408 q 974 500 1035 500 l 857 500 l 857 540 l 974 540 q 1058 580 1032 540 q 1090 708 1085 619 l 1131 708 l 1126 519 l 1131 311 l 1090 311 z "},"P":{"ha":892,"x_min":53,"x_max":861,"o":"m 53 -4 l 53 36 l 81 39 q 154 56 131 44 q 185 96 178 67 q 193 185 193 125 l 193 801 q 185 891 193 861 q 154 932 178 921 q 81 947 131 943 l 53 950 l 53 990 l 261 986 l 453 986 q 763 923 664 986 q 861 724 861 860 q 764 509 861 583 q 486 435 667 435 l 315 435 l 315 482 l 481 482 q 651 535 599 482 q 703 707 703 589 q 652 881 703 821 q 501 940 601 940 l 335 940 l 335 185 q 343 97 335 126 q 379 56 351 67 q 463 39 407 44 l 500 36 l 500 -4 l 260 0 l 53 -4 z "},"Þ":{"ha":867,"x_min":53,"x_max":814,"o":"m 53 -4 l 53 36 l 81 39 q 154 55 131 44 q 185 95 178 65 q 193 185 193 125 l 193 801 q 185 891 193 861 q 154 932 178 921 q 81 947 131 943 l 53 950 l 53 990 l 263 986 l 469 990 l 469 950 l 442 947 q 369 931 393 943 q 337 890 344 919 q 329 801 329 861 l 329 185 q 337 95 329 125 q 369 54 344 65 q 443 39 393 43 l 478 36 l 478 -4 l 267 0 l 53 -4 m 311 225 l 311 269 l 428 269 q 560 293 511 269 q 630 367 608 317 q 651 500 651 418 q 632 624 651 576 q 567 694 613 672 q 443 717 522 717 l 311 717 l 311 760 l 450 760 q 723 694 632 760 q 814 501 814 628 q 717 298 814 371 q 435 225 619 225 l 311 225 z "},"Q":{"ha":1117,"x_min":82,"x_max":1106,"o":"m 910 -408 q 794 -387 844 -408 q 704 -335 744 -367 q 628 -275 664 -304 q 525 -197 574 -231 q 426 -148 476 -164 q 314 -139 376 -132 l 383 -122 q 320 -162 347 -143 q 261 -210 293 -182 q 215 -246 238 -231 q 167 -261 192 -261 q 133 -249 144 -261 q 121 -212 121 -236 q 155 -147 121 -172 q 249 -110 189 -122 q 382 -97 308 -97 l 293 -125 l 585 8 l 676 11 l 415 -110 l 394 -100 q 432 -95 418 -96 q 460 -94 446 -94 q 610 -124 549 -94 q 728 -192 672 -153 q 831 -258 779 -231 q 939 -286 883 -286 q 1023 -262 985 -286 q 1072 -165 1061 -237 l 1106 -165 q 1049 -347 1097 -286 q 910 -408 1001 -408 m 572 -15 q 375 22 464 -15 q 220 128 286 60 q 118 291 154 197 q 82 496 82 385 q 118 700 82 607 q 220 862 154 793 q 375 968 286 931 q 572 1006 464 1006 q 769 968 679 1006 q 924 862 858 931 q 1025 700 989 793 q 1061 496 1061 607 q 1025 291 1061 385 q 924 128 989 197 q 769 22 858 60 q 572 -15 679 -15 m 572 33 q 896 496 896 33 q 572 957 896 957 q 249 496 249 957 q 572 33 249 33 z "},"R":{"ha":974,"x_min":53,"x_max":990,"o":"m 853 -15 q 733 30 775 -15 q 678 171 690 75 q 628 347 664 279 q 533 446 593 414 q 383 478 474 478 l 315 478 l 315 522 l 446 522 q 622 572 568 522 q 675 731 675 621 q 624 890 675 839 q 467 942 572 942 l 335 942 l 335 185 q 342 96 335 125 q 374 56 349 67 q 447 39 399 44 l 475 36 l 475 -4 l 263 0 l 53 -4 l 53 36 l 81 39 q 154 56 131 44 q 185 97 178 67 q 193 185 193 126 l 193 801 q 185 891 193 861 q 154 932 178 921 q 81 947 131 943 l 53 950 l 53 990 l 261 986 l 457 986 q 738 925 643 986 q 832 743 832 864 q 751 563 832 629 q 518 486 671 497 l 519 494 q 721 429 644 494 q 815 236 797 364 q 858 90 831 139 q 928 40 886 40 q 978 53 944 40 l 990 15 q 926 -7 963 1 q 853 -15 889 -15 z "},"Ŕ":{"ha":974,"x_min":53,"x_max":990,"o":"m 853 -15 q 733 30 775 -15 q 678 171 690 75 q 628 347 664 279 q 533 446 593 414 q 383 478 474 478 l 315 478 l 315 522 l 446 522 q 622 572 568 522 q 675 731 675 621 q 624 890 675 839 q 467 942 572 942 l 335 942 l 335 185 q 342 96 335 125 q 374 56 349 67 q 447 39 399 44 l 475 36 l 475 -4 l 263 0 l 53 -4 l 53 36 l 81 39 q 154 56 131 44 q 185 97 178 67 q 193 185 193 126 l 193 801 q 185 891 193 861 q 154 932 178 921 q 81 947 131 943 l 53 950 l 53 990 l 261 986 l 457 986 q 738 925 643 986 q 832 743 832 864 q 751 563 832 629 q 518 486 671 497 l 519 494 q 721 429 644 494 q 815 236 797 364 q 858 90 831 139 q 928 40 886 40 q 978 53 944 40 l 990 15 q 926 -7 963 1 q 853 -15 889 -15 m 411 1056 l 447 1306 l 576 1306 l 433 1056 l 411 1056 z "},"Ř":{"ha":974,"x_min":53,"x_max":990,"o":"m 853 -15 q 733 30 775 -15 q 678 171 690 75 q 628 347 664 279 q 533 446 593 414 q 383 478 474 478 l 315 478 l 315 522 l 446 522 q 622 572 568 522 q 675 731 675 621 q 624 890 675 839 q 467 942 572 942 l 335 942 l 335 185 q 342 96 335 125 q 374 56 349 67 q 447 39 399 44 l 475 36 l 475 -4 l 263 0 l 53 -4 l 53 36 l 81 39 q 154 56 131 44 q 185 97 178 67 q 193 185 193 126 l 193 801 q 185 891 193 861 q 154 932 178 921 q 81 947 131 943 l 53 950 l 53 990 l 261 986 l 457 986 q 738 925 643 986 q 832 743 832 864 q 751 563 832 629 q 518 486 671 497 l 519 494 q 721 429 644 494 q 815 236 797 364 q 858 90 831 139 q 928 40 886 40 q 978 53 944 40 l 990 15 q 926 -7 963 1 q 853 -15 889 -15 m 414 1056 l 290 1306 l 325 1306 l 435 1181 l 443 1181 l 553 1306 l 588 1306 l 464 1056 l 414 1056 z "},"Ŗ":{"ha":974,"x_min":53,"x_max":990,"o":"m 853 -15 q 733 30 775 -15 q 678 171 690 75 q 628 347 664 279 q 533 446 593 414 q 383 478 474 478 l 315 478 l 315 522 l 446 522 q 622 572 568 522 q 675 731 675 621 q 624 890 675 839 q 467 942 572 942 l 335 942 l 335 185 q 342 96 335 125 q 374 56 349 67 q 447 39 399 44 l 475 36 l 475 -4 l 263 0 l 53 -4 l 53 36 l 81 39 q 154 56 131 44 q 185 97 178 67 q 193 185 193 126 l 193 801 q 185 891 193 861 q 154 932 178 921 q 81 947 131 943 l 53 950 l 53 990 l 261 986 l 457 986 q 738 925 643 986 q 832 743 832 864 q 751 563 832 629 q 518 486 671 497 l 519 494 q 721 429 644 494 q 815 236 797 364 q 858 90 831 139 q 928 40 886 40 q 978 53 944 40 l 990 15 q 926 -7 963 1 q 853 -15 889 -15 m 513 -411 l 499 -389 q 580 -319 546 -360 q 614 -228 614 -278 q 606 -184 614 -206 q 574 -162 597 -162 l 594 -156 l 583 -178 l 576 -165 q 591 -174 586 -165 q 596 -199 596 -183 q 585 -226 596 -212 q 550 -240 575 -240 q 511 -223 526 -240 q 496 -179 496 -206 q 512 -138 496 -156 q 560 -121 528 -121 q 626 -153 604 -121 q 647 -225 647 -185 q 609 -330 647 -282 q 513 -411 571 -378 z "},"S":{"ha":800,"x_min":81,"x_max":726,"o":"m 442 -15 q 341 1 386 -15 q 253 39 296 18 q 199 65 218 57 q 164 72 179 72 q 138 58 146 72 q 124 21 129 43 l 119 0 l 81 0 l 88 164 l 83 346 l 122 346 l 142 278 q 201 159 160 215 q 301 67 242 103 q 433 32 360 32 q 518 51 479 32 q 581 107 557 69 q 606 203 606 144 q 581 303 606 261 q 508 379 557 344 q 385 447 458 414 l 311 482 q 159 593 210 531 q 108 749 108 656 q 146 882 108 824 q 249 973 183 940 q 399 1006 314 1006 q 492 992 453 1006 q 561 964 531 978 q 619 946 599 946 q 650 990 644 946 l 689 990 l 685 856 l 688 718 l 647 718 q 602 847 638 793 q 517 931 567 901 q 411 960 468 960 q 282 915 331 960 q 233 800 233 871 q 282 685 233 729 q 414 601 331 642 l 483 568 q 614 490 560 532 q 697 394 668 449 q 726 264 726 340 q 689 117 726 181 q 587 19 651 54 q 442 -15 522 -15 z "},"Ś":{"ha":800,"x_min":81,"x_max":726,"o":"m 442 -15 q 341 1 386 -15 q 253 39 296 18 q 199 65 218 57 q 164 72 179 72 q 138 58 146 72 q 124 21 129 43 l 119 0 l 81 0 l 88 164 l 83 346 l 122 346 l 142 278 q 201 159 160 215 q 301 67 242 103 q 433 32 360 32 q 518 51 479 32 q 581 107 557 69 q 606 203 606 144 q 581 303 606 261 q 508 379 557 344 q 385 447 458 414 l 311 482 q 159 593 210 531 q 108 749 108 656 q 146 882 108 824 q 249 973 183 940 q 399 1006 314 1006 q 492 992 453 1006 q 561 964 531 978 q 619 946 599 946 q 650 990 644 946 l 689 990 l 685 856 l 688 718 l 647 718 q 602 847 638 793 q 517 931 567 901 q 411 960 468 960 q 282 915 331 960 q 233 800 233 871 q 282 685 233 729 q 414 601 331 642 l 483 568 q 614 490 560 532 q 697 394 668 449 q 726 264 726 340 q 689 117 726 181 q 587 19 651 54 q 442 -15 522 -15 m 378 1056 l 414 1306 l 543 1306 l 400 1056 l 378 1056 z "},"Š":{"ha":800,"x_min":81,"x_max":726,"o":"m 442 -15 q 341 1 386 -15 q 253 39 296 18 q 199 65 218 57 q 164 72 179 72 q 138 58 146 72 q 124 21 129 43 l 119 0 l 81 0 l 88 164 l 83 346 l 122 346 l 142 278 q 201 159 160 215 q 301 67 242 103 q 433 32 360 32 q 518 51 479 32 q 581 107 557 69 q 606 203 606 144 q 581 303 606 261 q 508 379 557 344 q 385 447 458 414 l 311 482 q 159 593 210 531 q 108 749 108 656 q 146 882 108 824 q 249 973 183 940 q 399 1006 314 1006 q 492 992 453 1006 q 561 964 531 978 q 619 946 599 946 q 650 990 644 946 l 689 990 l 685 856 l 688 718 l 647 718 q 602 847 638 793 q 517 931 567 901 q 411 960 468 960 q 282 915 331 960 q 233 800 233 871 q 282 685 233 729 q 414 601 331 642 l 483 568 q 614 490 560 532 q 697 394 668 449 q 726 264 726 340 q 689 117 726 181 q 587 19 651 54 q 442 -15 522 -15 m 382 1056 l 258 1306 l 293 1306 l 403 1181 l 411 1181 l 521 1306 l 556 1306 l 432 1056 l 382 1056 z "},"Ş":{"ha":800,"x_min":81,"x_max":726,"o":"m 442 -15 q 341 1 386 -15 q 253 39 296 18 q 199 65 218 57 q 164 72 179 72 q 138 58 146 72 q 124 21 129 43 l 119 0 l 81 0 l 88 164 l 83 346 l 122 346 l 142 278 q 201 159 160 215 q 301 67 242 103 q 433 32 360 32 q 518 51 479 32 q 581 107 557 69 q 606 203 606 144 q 581 303 606 261 q 508 379 557 344 q 385 447 458 414 l 311 482 q 159 593 210 531 q 108 749 108 656 q 146 882 108 824 q 249 973 183 940 q 399 1006 314 1006 q 492 992 453 1006 q 561 964 531 978 q 619 946 599 946 q 650 990 644 946 l 689 990 l 685 856 l 688 718 l 647 718 q 602 847 638 793 q 517 931 567 901 q 411 960 468 960 q 282 915 331 960 q 233 800 233 871 q 282 685 233 729 q 414 601 331 642 l 483 568 q 614 490 560 532 q 697 394 668 449 q 726 264 726 340 q 689 117 726 181 q 587 19 651 54 q 442 -15 522 -15 m 394 -406 q 297 -369 332 -406 q 251 -292 261 -332 l 283 -282 q 317 -339 290 -314 q 385 -364 344 -364 q 455 -324 429 -364 q 481 -232 481 -285 q 456 -150 481 -182 q 389 -118 432 -118 q 344 -133 367 -118 q 306 -171 321 -147 l 276 -151 q 335 -94 299 -112 q 413 -79 371 -76 q 488 -101 456 -81 q 540 -158 521 -122 q 560 -235 560 -193 q 537 -324 560 -286 q 476 -384 514 -362 q 394 -406 439 -406 m 435 -97 l 393 -93 l 425 0 l 469 0 l 435 -97 z "},"Ș":{"ha":800,"x_min":81,"x_max":726,"o":"m 442 -15 q 341 1 386 -15 q 253 39 296 18 q 199 65 218 57 q 164 72 179 72 q 138 58 146 72 q 124 21 129 43 l 119 0 l 81 0 l 88 164 l 83 346 l 122 346 l 142 278 q 201 159 160 215 q 301 67 242 103 q 433 32 360 32 q 518 51 479 32 q 581 107 557 69 q 606 203 606 144 q 581 303 606 261 q 508 379 557 344 q 385 447 458 414 l 311 482 q 159 593 210 531 q 108 749 108 656 q 146 882 108 824 q 249 973 183 940 q 399 1006 314 1006 q 492 992 453 1006 q 561 964 531 978 q 619 946 599 946 q 650 990 644 946 l 689 990 l 685 856 l 688 718 l 647 718 q 602 847 638 793 q 517 931 567 901 q 411 960 468 960 q 282 915 331 960 q 233 800 233 871 q 282 685 233 729 q 414 601 331 642 l 483 568 q 614 490 560 532 q 697 394 668 449 q 726 264 726 340 q 689 117 726 181 q 587 19 651 54 q 442 -15 522 -15 m 397 -411 l 383 -389 q 465 -319 431 -360 q 499 -228 499 -278 q 490 -184 499 -206 q 458 -162 482 -162 l 479 -156 l 468 -178 l 461 -165 q 476 -174 471 -165 q 481 -199 481 -183 q 470 -226 481 -212 q 435 -240 460 -240 q 396 -223 411 -240 q 381 -179 381 -206 q 397 -138 381 -156 q 444 -121 413 -121 q 510 -153 489 -121 q 532 -225 532 -185 q 494 -330 532 -282 q 397 -411 456 -378 z "},"ẞ":{"ha":1046,"x_min":26,"x_max":1011,"o":"m 863 906 q 669 717 669 838 q 692 644 669 676 q 767 579 715 613 l 843 532 q 969 413 928 478 q 1011 263 1011 347 q 974 115 1011 178 q 869 19 936 53 q 710 -15 801 -15 q 581 1 649 -15 q 447 46 513 17 l 446 294 l 482 294 l 504 225 q 591 82 535 132 q 724 32 647 32 q 846 79 800 32 q 892 208 892 126 q 878 283 892 250 q 838 347 865 317 q 764 404 810 376 l 703 443 q 588 544 625 492 q 550 657 550 596 q 609 808 549 740 q 781 914 669 875 l 754 879 q 676 935 725 915 q 564 954 626 954 q 376 880 443 954 q 308 674 308 806 l 308 183 l 322 -1 l 238 0 l 236 0 l 26 -4 l 26 36 l 54 39 q 128 55 104 43 q 159 97 151 67 q 167 185 167 126 l 167 669 q 265 917 167 833 q 557 1001 364 1001 q 718 986 639 1001 q 864 942 797 971 l 863 906 z "},"T":{"ha":1038,"x_min":4,"x_max":1033,"o":"m 282 -4 l 282 36 l 319 39 q 403 56 376 44 q 439 97 431 67 q 447 185 447 126 l 447 965 l 589 965 l 589 185 q 597 97 589 126 q 633 56 606 67 q 718 39 661 44 l 754 36 l 754 -4 l 521 0 l 282 -4 m 997 690 q 936 817 963 768 q 885 894 910 867 q 832 931 860 921 q 765 942 804 942 l 281 942 q 208 933 238 942 q 153 898 178 924 q 101 822 128 872 q 39 692 75 772 l 4 699 l 39 879 l 54 990 l 451 986 l 583 986 l 983 990 l 999 879 l 1033 699 l 997 690 z "},"Ŧ":{"ha":1038,"x_min":4,"x_max":1033,"o":"m 282 -4 l 282 36 l 319 39 q 403 56 376 44 q 439 97 431 67 q 447 185 447 126 l 447 965 l 589 965 l 589 185 q 597 97 589 126 q 633 56 606 67 q 718 39 661 44 l 754 36 l 754 -4 l 521 0 l 282 -4 m 997 690 q 936 817 963 768 q 885 894 910 867 q 832 931 860 921 q 765 942 804 942 l 281 942 q 208 933 238 942 q 153 898 178 924 q 101 822 128 872 q 39 692 75 772 l 4 699 l 39 879 l 54 990 l 451 986 l 583 986 l 983 990 l 999 879 l 1033 699 l 997 690 m 247 468 l 247 518 l 788 518 l 788 468 l 247 468 z "},"Ť":{"ha":1038,"x_min":4,"x_max":1033,"o":"m 282 -4 l 282 36 l 319 39 q 403 56 376 44 q 439 97 431 67 q 447 185 447 126 l 447 965 l 589 965 l 589 185 q 597 97 589 126 q 633 56 606 67 q 718 39 661 44 l 754 36 l 754 -4 l 521 0 l 282 -4 m 997 690 q 936 817 963 768 q 885 894 910 867 q 832 931 860 921 q 765 942 804 942 l 281 942 q 208 933 238 942 q 153 898 178 924 q 101 822 128 872 q 39 692 75 772 l 4 699 l 39 879 l 54 990 l 451 986 l 583 986 l 983 990 l 999 879 l 1033 699 l 997 690 m 501 1056 l 378 1306 l 413 1306 l 522 1181 l 531 1181 l 640 1306 l 675 1306 l 551 1056 l 501 1056 z "},"Ţ":{"ha":1038,"x_min":4,"x_max":1033,"o":"m 282 -4 l 282 36 l 319 39 q 403 56 376 44 q 439 97 431 67 q 447 185 447 126 l 447 965 l 589 965 l 589 185 q 597 97 589 126 q 633 56 606 67 q 718 39 661 44 l 754 36 l 754 -4 l 521 0 l 282 -4 m 997 690 q 936 817 963 768 q 885 894 910 867 q 832 931 860 921 q 765 942 804 942 l 281 942 q 208 933 238 942 q 153 898 178 924 q 101 822 128 872 q 39 692 75 772 l 4 699 l 39 879 l 54 990 l 451 986 l 583 986 l 983 990 l 999 879 l 1033 699 l 997 690 m 471 -406 q 373 -369 408 -406 q 328 -292 338 -332 l 360 -282 q 394 -339 367 -314 q 461 -364 421 -364 q 531 -324 506 -364 q 557 -232 557 -285 q 533 -150 557 -182 q 465 -118 508 -118 q 420 -133 443 -118 q 382 -171 397 -147 l 353 -151 q 411 -94 375 -112 q 489 -79 447 -76 q 565 -101 532 -81 q 617 -158 597 -122 q 636 -235 636 -193 q 613 -324 636 -286 q 553 -384 590 -362 q 471 -406 515 -406 m 511 -97 l 469 -93 l 501 0 l 546 0 l 511 -97 z "},"Ț":{"ha":1038,"x_min":4,"x_max":1033,"o":"m 282 -4 l 282 36 l 319 39 q 403 56 376 44 q 439 97 431 67 q 447 185 447 126 l 447 965 l 589 965 l 589 185 q 597 97 589 126 q 633 56 606 67 q 718 39 661 44 l 754 36 l 754 -4 l 521 0 l 282 -4 m 997 690 q 936 817 963 768 q 885 894 910 867 q 832 931 860 921 q 765 942 804 942 l 281 942 q 208 933 238 942 q 153 898 178 924 q 101 822 128 872 q 39 692 75 772 l 4 699 l 39 879 l 54 990 l 451 986 l 583 986 l 983 990 l 999 879 l 1033 699 l 997 690 m 474 -411 l 460 -389 q 541 -319 507 -360 q 575 -228 575 -278 q 567 -184 575 -206 q 535 -162 558 -162 l 556 -156 l 544 -178 l 538 -165 q 552 -174 547 -165 q 557 -199 557 -183 q 547 -226 557 -212 q 511 -240 536 -240 q 472 -223 488 -240 q 457 -179 457 -206 q 473 -138 457 -156 q 521 -121 489 -121 q 587 -153 565 -121 q 608 -225 608 -185 q 570 -330 608 -282 q 474 -411 532 -378 z "},"U":{"ha":1043,"x_min":33,"x_max":1038,"o":"m 536 -15 q 265 67 357 -15 q 174 310 174 149 l 174 801 q 166 891 174 861 q 135 932 158 921 q 61 947 111 943 l 33 950 l 33 990 l 243 986 l 244 986 l 456 990 l 456 950 l 428 947 q 355 931 379 943 q 323 890 331 919 q 315 801 315 861 l 315 310 q 384 110 315 181 q 579 40 453 40 q 770 111 704 40 q 836 318 836 182 l 836 801 q 828 891 836 861 q 795 932 819 921 q 719 947 771 943 l 689 950 l 689 990 l 889 988 l 1038 990 l 1038 950 l 1007 947 q 932 931 957 943 q 899 890 907 919 q 890 801 890 861 l 890 318 q 803 68 890 151 q 536 -15 715 -15 z "},"Ú":{"ha":1043,"x_min":33,"x_max":1038,"o":"m 536 -15 q 265 67 357 -15 q 174 310 174 149 l 174 801 q 166 891 174 861 q 135 932 158 921 q 61 947 111 943 l 33 950 l 33 990 l 243 986 l 244 986 l 456 990 l 456 950 l 428 947 q 355 931 379 943 q 323 890 331 919 q 315 801 315 861 l 315 310 q 384 110 315 181 q 579 40 453 40 q 770 111 704 40 q 836 318 836 182 l 836 801 q 828 891 836 861 q 795 932 819 921 q 719 947 771 943 l 689 950 l 689 990 l 889 988 l 1038 990 l 1038 950 l 1007 947 q 932 931 957 943 q 899 890 907 919 q 890 801 890 861 l 890 318 q 803 68 890 151 q 536 -15 715 -15 m 544 1056 l 581 1306 l 710 1306 l 567 1056 l 544 1056 z "},"Ŭ":{"ha":1043,"x_min":33,"x_max":1038,"o":"m 536 -15 q 265 67 357 -15 q 174 310 174 149 l 174 801 q 166 891 174 861 q 135 932 158 921 q 61 947 111 943 l 33 950 l 33 990 l 243 986 l 244 986 l 456 990 l 456 950 l 428 947 q 355 931 379 943 q 323 890 331 919 q 315 801 315 861 l 315 310 q 384 110 315 181 q 579 40 453 40 q 770 111 704 40 q 836 318 836 182 l 836 801 q 828 891 836 861 q 795 932 819 921 q 719 947 771 943 l 689 950 l 689 990 l 889 988 l 1038 990 l 1038 950 l 1007 947 q 932 931 957 943 q 899 890 907 919 q 890 801 890 861 l 890 318 q 803 68 890 151 q 536 -15 715 -15 m 571 1078 q 460 1124 496 1078 q 424 1239 424 1171 l 424 1285 l 463 1285 l 463 1278 q 491 1193 463 1215 q 571 1171 519 1171 q 651 1193 622 1171 q 681 1278 681 1215 l 681 1285 l 718 1285 l 718 1239 q 683 1124 718 1171 q 571 1078 647 1078 z "},"Ǔ":{"ha":1043,"x_min":33,"x_max":1038,"o":"m 536 -15 q 265 67 357 -15 q 174 310 174 149 l 174 801 q 166 891 174 861 q 135 932 158 921 q 61 947 111 943 l 33 950 l 33 990 l 243 986 l 244 986 l 456 990 l 456 950 l 428 947 q 355 931 379 943 q 323 890 331 919 q 315 801 315 861 l 315 310 q 384 110 315 181 q 579 40 453 40 q 770 111 704 40 q 836 318 836 182 l 836 801 q 828 891 836 861 q 795 932 819 921 q 719 947 771 943 l 689 950 l 689 990 l 889 988 l 1038 990 l 1038 950 l 1007 947 q 932 931 957 943 q 899 890 907 919 q 890 801 890 861 l 890 318 q 803 68 890 151 q 536 -15 715 -15 m 547 1056 l 424 1306 l 458 1306 l 568 1181 l 576 1181 l 686 1306 l 721 1306 l 597 1056 l 547 1056 z "},"Û":{"ha":1043,"x_min":33,"x_max":1038,"o":"m 536 -15 q 265 67 357 -15 q 174 310 174 149 l 174 801 q 166 891 174 861 q 135 932 158 921 q 61 947 111 943 l 33 950 l 33 990 l 243 986 l 244 986 l 456 990 l 456 950 l 428 947 q 355 931 379 943 q 323 890 331 919 q 315 801 315 861 l 315 310 q 384 110 315 181 q 579 40 453 40 q 770 111 704 40 q 836 318 836 182 l 836 801 q 828 891 836 861 q 795 932 819 921 q 719 947 771 943 l 689 950 l 689 990 l 889 988 l 1038 990 l 1038 950 l 1007 947 q 932 931 957 943 q 899 890 907 919 q 890 801 890 861 l 890 318 q 803 68 890 151 q 536 -15 715 -15 m 421 1057 l 544 1306 l 594 1306 l 718 1057 l 683 1057 l 574 1182 l 565 1182 l 456 1057 l 421 1057 z "},"Ü":{"ha":1043,"x_min":33,"x_max":1038,"o":"m 536 -15 q 265 67 357 -15 q 174 310 174 149 l 174 801 q 166 891 174 861 q 135 932 158 921 q 61 947 111 943 l 33 950 l 33 990 l 243 986 l 244 986 l 456 990 l 456 950 l 428 947 q 355 931 379 943 q 323 890 331 919 q 315 801 315 861 l 315 310 q 384 110 315 181 q 579 40 453 40 q 770 111 704 40 q 836 318 836 182 l 836 801 q 828 891 836 861 q 795 932 819 921 q 719 947 771 943 l 689 950 l 689 990 l 889 988 l 1038 990 l 1038 950 l 1007 947 q 932 931 957 943 q 899 890 907 919 q 890 801 890 861 l 890 318 q 803 68 890 151 q 536 -15 715 -15 m 439 1100 q 383 1123 403 1100 q 363 1181 363 1146 q 383 1237 363 1214 q 439 1260 403 1260 q 496 1237 478 1260 q 514 1181 514 1214 q 496 1123 514 1146 q 439 1100 478 1100 m 706 1100 q 651 1123 671 1100 q 631 1181 631 1146 q 651 1237 631 1214 q 706 1260 671 1260 q 763 1237 744 1260 q 781 1181 781 1214 q 763 1123 781 1146 q 706 1100 744 1100 z "},"Ǘ":{"ha":1043,"x_min":33,"x_max":1038,"o":"m 536 -15 q 265 67 357 -15 q 174 310 174 149 l 174 801 q 166 891 174 861 q 135 932 158 921 q 61 947 111 943 l 33 950 l 33 990 l 243 986 l 244 986 l 456 990 l 456 950 l 428 947 q 355 931 379 943 q 323 890 331 919 q 315 801 315 861 l 315 310 q 384 110 315 181 q 579 40 453 40 q 770 111 704 40 q 836 318 836 182 l 836 801 q 828 891 836 861 q 795 932 819 921 q 719 947 771 943 l 689 950 l 689 990 l 889 988 l 1038 990 l 1038 950 l 1007 947 q 932 931 957 943 q 899 890 907 919 q 890 801 890 861 l 890 318 q 803 68 890 151 q 536 -15 715 -15 m 439 1100 q 383 1123 403 1100 q 363 1181 363 1146 q 383 1237 363 1214 q 439 1260 403 1260 q 496 1237 478 1260 q 514 1181 514 1214 q 496 1123 514 1146 q 439 1100 478 1100 m 706 1100 q 651 1123 671 1100 q 631 1181 631 1146 q 651 1237 631 1214 q 706 1260 671 1260 q 763 1237 744 1260 q 781 1181 781 1214 q 763 1123 781 1146 q 706 1100 744 1100 m 544 1343 l 581 1593 l 710 1593 l 567 1343 l 544 1343 z "},"Ǚ":{"ha":1043,"x_min":33,"x_max":1038,"o":"m 536 -15 q 265 67 357 -15 q 174 310 174 149 l 174 801 q 166 891 174 861 q 135 932 158 921 q 61 947 111 943 l 33 950 l 33 990 l 243 986 l 244 986 l 456 990 l 456 950 l 428 947 q 355 931 379 943 q 323 890 331 919 q 315 801 315 861 l 315 310 q 384 110 315 181 q 579 40 453 40 q 770 111 704 40 q 836 318 836 182 l 836 801 q 828 891 836 861 q 795 932 819 921 q 719 947 771 943 l 689 950 l 689 990 l 889 988 l 1038 990 l 1038 950 l 1007 947 q 932 931 957 943 q 899 890 907 919 q 890 801 890 861 l 890 318 q 803 68 890 151 q 536 -15 715 -15 m 439 1100 q 383 1123 403 1100 q 363 1181 363 1146 q 383 1237 363 1214 q 439 1260 403 1260 q 496 1237 478 1260 q 514 1181 514 1214 q 496 1123 514 1146 q 439 1100 478 1100 m 706 1100 q 651 1123 671 1100 q 631 1181 631 1146 q 651 1237 631 1214 q 706 1260 671 1260 q 763 1237 744 1260 q 781 1181 781 1214 q 763 1123 781 1146 q 706 1100 744 1100 m 549 1343 l 425 1593 l 460 1593 l 569 1468 l 578 1468 l 688 1593 l 722 1593 l 599 1343 l 549 1343 z "},"Ǜ":{"ha":1043,"x_min":33,"x_max":1038,"o":"m 536 -15 q 265 67 357 -15 q 174 310 174 149 l 174 801 q 166 891 174 861 q 135 932 158 921 q 61 947 111 943 l 33 950 l 33 990 l 243 986 l 244 986 l 456 990 l 456 950 l 428 947 q 355 931 379 943 q 323 890 331 919 q 315 801 315 861 l 315 310 q 384 110 315 181 q 579 40 453 40 q 770 111 704 40 q 836 318 836 182 l 836 801 q 828 891 836 861 q 795 932 819 921 q 719 947 771 943 l 689 950 l 689 990 l 889 988 l 1038 990 l 1038 950 l 1007 947 q 932 931 957 943 q 899 890 907 919 q 890 801 890 861 l 890 318 q 803 68 890 151 q 536 -15 715 -15 m 439 1100 q 383 1123 403 1100 q 363 1181 363 1146 q 383 1237 363 1214 q 439 1260 403 1260 q 496 1237 478 1260 q 514 1181 514 1214 q 496 1123 514 1146 q 439 1100 478 1100 m 706 1100 q 651 1123 671 1100 q 631 1181 631 1146 q 651 1237 631 1214 q 706 1260 671 1260 q 763 1237 744 1260 q 781 1181 781 1214 q 763 1123 781 1146 q 706 1100 744 1100 m 600 1343 l 578 1343 l 435 1593 l 564 1593 l 600 1343 z "},"Ǖ":{"ha":1043,"x_min":33,"x_max":1038,"o":"m 536 -15 q 265 67 357 -15 q 174 310 174 149 l 174 801 q 166 891 174 861 q 135 932 158 921 q 61 947 111 943 l 33 950 l 33 990 l 243 986 l 244 986 l 456 990 l 456 950 l 428 947 q 355 931 379 943 q 323 890 331 919 q 315 801 315 861 l 315 310 q 384 110 315 181 q 579 40 453 40 q 770 111 704 40 q 836 318 836 182 l 836 801 q 828 891 836 861 q 795 932 819 921 q 719 947 771 943 l 689 950 l 689 990 l 889 988 l 1038 990 l 1038 950 l 1007 947 q 932 931 957 943 q 899 890 907 919 q 890 801 890 861 l 890 318 q 803 68 890 151 q 536 -15 715 -15 m 439 1100 q 383 1123 403 1100 q 363 1181 363 1146 q 383 1237 363 1214 q 439 1260 403 1260 q 496 1237 478 1260 q 514 1181 514 1214 q 496 1123 514 1146 q 439 1100 478 1100 m 706 1100 q 651 1123 671 1100 q 631 1181 631 1146 q 651 1237 631 1214 q 706 1260 671 1260 q 763 1237 744 1260 q 781 1181 781 1214 q 763 1123 781 1146 q 706 1100 744 1100 m 404 1439 l 404 1497 l 739 1497 l 739 1439 l 404 1439 z "},"Ù":{"ha":1043,"x_min":33,"x_max":1038,"o":"m 536 -15 q 265 67 357 -15 q 174 310 174 149 l 174 801 q 166 891 174 861 q 135 932 158 921 q 61 947 111 943 l 33 950 l 33 990 l 243 986 l 244 986 l 456 990 l 456 950 l 428 947 q 355 931 379 943 q 323 890 331 919 q 315 801 315 861 l 315 310 q 384 110 315 181 q 579 40 453 40 q 770 111 704 40 q 836 318 836 182 l 836 801 q 828 891 836 861 q 795 932 819 921 q 719 947 771 943 l 689 950 l 689 990 l 889 988 l 1038 990 l 1038 950 l 1007 947 q 932 931 957 943 q 899 890 907 919 q 890 801 890 861 l 890 318 q 803 68 890 151 q 536 -15 715 -15 m 600 1056 l 578 1056 l 435 1306 l 564 1306 l 600 1056 z "},"Ű":{"ha":1043,"x_min":33,"x_max":1038,"o":"m 536 -15 q 265 67 357 -15 q 174 310 174 149 l 174 801 q 166 891 174 861 q 135 932 158 921 q 61 947 111 943 l 33 950 l 33 990 l 243 986 l 244 986 l 456 990 l 456 950 l 428 947 q 355 931 379 943 q 323 890 331 919 q 315 801 315 861 l 315 310 q 384 110 315 181 q 579 40 453 40 q 770 111 704 40 q 836 318 836 182 l 836 801 q 828 891 836 861 q 795 932 819 921 q 719 947 771 943 l 689 950 l 689 990 l 889 988 l 1038 990 l 1038 950 l 1007 947 q 932 931 957 943 q 899 890 907 919 q 890 801 890 861 l 890 318 q 803 68 890 151 q 536 -15 715 -15 m 453 1056 l 489 1306 l 614 1306 l 475 1056 l 453 1056 m 640 1057 l 676 1307 l 803 1307 l 663 1057 l 640 1057 z "},"Ū":{"ha":1043,"x_min":33,"x_max":1038,"o":"m 536 -15 q 265 67 357 -15 q 174 310 174 149 l 174 801 q 166 891 174 861 q 135 932 158 921 q 61 947 111 943 l 33 950 l 33 990 l 243 986 l 244 986 l 456 990 l 456 950 l 428 947 q 355 931 379 943 q 323 890 331 919 q 315 801 315 861 l 315 310 q 384 110 315 181 q 579 40 453 40 q 770 111 704 40 q 836 318 836 182 l 836 801 q 828 891 836 861 q 795 932 819 921 q 719 947 771 943 l 689 950 l 689 990 l 889 988 l 1038 990 l 1038 950 l 1007 947 q 932 931 957 943 q 899 890 907 919 q 890 801 890 861 l 890 318 q 803 68 890 151 q 536 -15 715 -15 m 403 1151 l 403 1210 l 738 1210 l 738 1151 l 403 1151 z "},"Ų":{"ha":1043,"x_min":33,"x_max":1038,"o":"m 594 -408 q 477 -365 522 -408 q 432 -254 432 -322 q 484 -110 432 -178 q 624 11 536 -42 l 624 -10 q 580 -13 603 -11 q 536 -15 557 -15 q 265 67 357 -15 q 174 310 174 149 l 174 801 q 166 891 174 861 q 135 932 158 921 q 61 947 111 943 l 33 950 l 33 990 l 243 986 l 244 986 l 456 990 l 456 950 l 428 947 q 355 931 379 943 q 323 890 331 919 q 315 801 315 861 l 315 310 q 384 110 315 181 q 579 40 453 40 q 770 111 704 40 q 836 318 836 182 l 836 801 q 828 891 836 861 q 795 932 819 921 q 719 947 771 943 l 689 950 l 689 990 l 889 988 l 1038 990 l 1038 950 l 1007 947 q 932 931 957 943 q 899 890 907 919 q 890 801 890 861 l 890 318 q 683 3 890 65 q 603 -44 639 -11 q 545 -122 567 -76 q 524 -215 524 -167 q 551 -296 524 -267 q 625 -325 578 -325 q 697 -302 665 -325 q 751 -235 729 -279 l 776 -254 q 710 -369 757 -329 q 594 -408 663 -408 z "},"Ů":{"ha":1043,"x_min":33,"x_max":1038,"o":"m 536 -15 q 265 67 357 -15 q 174 310 174 149 l 174 801 q 166 891 174 861 q 135 932 158 921 q 61 947 111 943 l 33 950 l 33 990 l 243 986 l 244 986 l 456 990 l 456 950 l 428 947 q 355 931 379 943 q 323 890 331 919 q 315 801 315 861 l 315 310 q 384 110 315 181 q 579 40 453 40 q 770 111 704 40 q 836 318 836 182 l 836 801 q 828 891 836 861 q 795 932 819 921 q 719 947 771 943 l 689 950 l 689 990 l 889 988 l 1038 990 l 1038 950 l 1007 947 q 932 931 957 943 q 899 890 907 919 q 890 801 890 861 l 890 318 q 803 68 890 151 q 536 -15 715 -15 m 574 982 q 481 1017 515 982 q 446 1103 446 1053 q 478 1185 446 1147 q 572 1222 511 1222 q 644 1203 617 1222 q 685 1156 672 1183 q 697 1101 697 1129 q 679 1035 697 1061 q 633 995 661 1008 q 574 982 604 982 m 574 1028 q 619 1047 599 1028 q 640 1103 640 1065 q 619 1158 640 1139 q 572 1178 599 1178 q 526 1160 550 1178 q 503 1103 503 1143 q 524 1048 503 1068 q 574 1028 546 1028 z "},"Ũ":{"ha":1043,"x_min":33,"x_max":1038,"o":"m 536 -15 q 265 67 357 -15 q 174 310 174 149 l 174 801 q 166 891 174 861 q 135 932 158 921 q 61 947 111 943 l 33 950 l 33 990 l 243 986 l 244 986 l 456 990 l 456 950 l 428 947 q 355 931 379 943 q 323 890 331 919 q 315 801 315 861 l 315 310 q 384 110 315 181 q 579 40 453 40 q 770 111 704 40 q 836 318 836 182 l 836 801 q 828 891 836 861 q 795 932 819 921 q 719 947 771 943 l 689 950 l 689 990 l 889 988 l 1038 990 l 1038 950 l 1007 947 q 932 931 957 943 q 899 890 907 919 q 890 801 890 861 l 890 318 q 803 68 890 151 q 536 -15 715 -15 m 675 1096 q 626 1107 650 1096 q 585 1128 603 1118 l 539 1153 q 497 1176 517 1167 q 458 1185 476 1185 q 406 1160 426 1185 q 379 1111 385 1136 l 350 1111 q 363 1175 350 1139 q 402 1238 375 1211 q 472 1265 429 1265 q 522 1253 497 1265 q 564 1232 547 1240 l 618 1200 q 652 1185 632 1194 q 690 1175 672 1175 q 737 1194 718 1175 q 763 1243 756 1214 l 792 1243 q 756 1136 788 1176 q 675 1096 724 1096 z "},"V":{"ha":1018,"x_min":-22,"x_max":1040,"o":"m 476 -11 l 124 843 q 77 915 104 892 q 6 946 50 938 l -22 950 l -22 990 l 189 986 l 400 990 l 400 950 l 361 947 q 281 908 300 942 q 288 815 263 874 l 579 104 l 535 104 l 818 804 q 828 904 844 869 q 751 946 813 939 l 704 950 l 704 990 l 897 986 l 1040 990 l 1040 951 l 1013 946 q 957 926 981 940 q 915 883 933 911 q 876 806 897 854 l 547 -11 l 476 -11 z "},"W":{"ha":1482,"x_min":-22,"x_max":1504,"o":"m 400 -10 l 128 829 q 83 909 111 882 q 8 944 56 936 l -22 950 l -22 990 l 189 986 l 399 990 l 399 950 l 363 947 q 277 912 297 940 q 278 826 257 883 l 501 135 l 468 135 l 715 815 q 718 904 736 874 q 640 942 700 935 l 588 950 l 593 990 l 653 983 q 740 959 708 979 q 781 906 772 939 l 763 896 q 919 988 792 982 l 981 990 l 982 950 l 935 946 q 859 907 878 942 q 863 810 840 872 l 1103 139 l 1072 139 l 1288 826 q 1290 912 1306 885 q 1215 944 1274 939 l 1171 950 l 1171 990 l 1354 986 l 1504 990 l 1504 950 l 1475 944 q 1417 928 1442 940 q 1377 896 1393 917 q 1350 840 1361 875 l 1081 -10 l 1010 -10 l 733 753 l 750 754 l 472 -10 l 400 -10 z "},"Ẃ":{"ha":1482,"x_min":-22,"x_max":1504,"o":"m 400 -10 l 128 829 q 83 909 111 882 q 8 944 56 936 l -22 950 l -22 990 l 189 986 l 399 990 l 399 950 l 363 947 q 277 912 297 940 q 278 826 257 883 l 501 135 l 468 135 l 715 815 q 718 904 736 874 q 640 942 700 935 l 588 950 l 593 990 l 653 983 q 740 959 708 979 q 781 906 772 939 l 763 896 q 919 988 792 982 l 981 990 l 982 950 l 935 946 q 859 907 878 942 q 863 810 840 872 l 1103 139 l 1072 139 l 1288 826 q 1290 912 1306 885 q 1215 944 1274 939 l 1171 950 l 1171 990 l 1354 986 l 1504 990 l 1504 950 l 1475 944 q 1417 928 1442 940 q 1377 896 1393 917 q 1350 840 1361 875 l 1081 -10 l 1010 -10 l 733 753 l 750 754 l 472 -10 l 400 -10 m 746 1056 l 782 1306 l 911 1306 l 768 1056 l 746 1056 z "},"Ŵ":{"ha":1482,"x_min":-22,"x_max":1504,"o":"m 400 -10 l 128 829 q 83 909 111 882 q 8 944 56 936 l -22 950 l -22 990 l 189 986 l 399 990 l 399 950 l 363 947 q 277 912 297 940 q 278 826 257 883 l 501 135 l 468 135 l 715 815 q 718 904 736 874 q 640 942 700 935 l 588 950 l 593 990 l 653 983 q 740 959 708 979 q 781 906 772 939 l 763 896 q 919 988 792 982 l 981 990 l 982 950 l 935 946 q 859 907 878 942 q 863 810 840 872 l 1103 139 l 1072 139 l 1288 826 q 1290 912 1306 885 q 1215 944 1274 939 l 1171 950 l 1171 990 l 1354 986 l 1504 990 l 1504 950 l 1475 944 q 1417 928 1442 940 q 1377 896 1393 917 q 1350 840 1361 875 l 1081 -10 l 1010 -10 l 733 753 l 750 754 l 472 -10 l 400 -10 m 624 1057 l 747 1306 l 797 1306 l 921 1057 l 886 1057 l 776 1182 l 768 1182 l 658 1057 l 624 1057 z "},"Ẅ":{"ha":1482,"x_min":-22,"x_max":1504,"o":"m 400 -10 l 128 829 q 83 909 111 882 q 8 944 56 936 l -22 950 l -22 990 l 189 986 l 399 990 l 399 950 l 363 947 q 277 912 297 940 q 278 826 257 883 l 501 135 l 468 135 l 715 815 q 718 904 736 874 q 640 942 700 935 l 588 950 l 593 990 l 653 983 q 740 959 708 979 q 781 906 772 939 l 763 896 q 919 988 792 982 l 981 990 l 982 950 l 935 946 q 859 907 878 942 q 863 810 840 872 l 1103 139 l 1072 139 l 1288 826 q 1290 912 1306 885 q 1215 944 1274 939 l 1171 950 l 1171 990 l 1354 986 l 1504 990 l 1504 950 l 1475 944 q 1417 928 1442 940 q 1377 896 1393 917 q 1350 840 1361 875 l 1081 -10 l 1010 -10 l 733 753 l 750 754 l 472 -10 l 400 -10 m 642 1100 q 585 1123 606 1100 q 565 1181 565 1146 q 585 1237 565 1214 q 642 1260 606 1260 q 699 1237 681 1260 q 717 1181 717 1214 q 699 1123 717 1146 q 642 1100 681 1100 m 908 1100 q 853 1123 874 1100 q 833 1181 833 1146 q 853 1237 833 1214 q 908 1260 874 1260 q 965 1237 947 1260 q 983 1181 983 1214 q 965 1123 983 1146 q 908 1100 947 1100 z "},"Ẁ":{"ha":1482,"x_min":-22,"x_max":1504,"o":"m 400 -10 l 128 829 q 83 909 111 882 q 8 944 56 936 l -22 950 l -22 990 l 189 986 l 399 990 l 399 950 l 363 947 q 277 912 297 940 q 278 826 257 883 l 501 135 l 468 135 l 715 815 q 718 904 736 874 q 640 942 700 935 l 588 950 l 593 990 l 653 983 q 740 959 708 979 q 781 906 772 939 l 763 896 q 919 988 792 982 l 981 990 l 982 950 l 935 946 q 859 907 878 942 q 863 810 840 872 l 1103 139 l 1072 139 l 1288 826 q 1290 912 1306 885 q 1215 944 1274 939 l 1171 950 l 1171 990 l 1354 986 l 1504 990 l 1504 950 l 1475 944 q 1417 928 1442 940 q 1377 896 1393 917 q 1350 840 1361 875 l 1081 -10 l 1010 -10 l 733 753 l 750 754 l 472 -10 l 400 -10 m 801 1056 l 779 1056 l 636 1306 l 765 1306 l 801 1056 z "},"X":{"ha":992,"x_min":-17,"x_max":1008,"o":"m 547 -4 l 547 36 l 599 40 q 664 84 657 46 q 628 188 671 122 l 190 828 q 142 892 164 869 q 94 927 119 915 q 33 946 69 939 l 4 950 l 4 990 l 236 986 l 465 990 l 465 950 l 414 944 q 340 903 347 939 q 381 794 332 867 l 815 160 q 866 98 842 122 q 916 60 890 74 q 971 42 942 46 l 1008 36 l 1008 -4 l 801 0 l 547 -4 m -17 -4 l -17 36 l 11 39 q 74 60 46 46 q 131 102 101 74 q 197 179 160 131 l 438 494 l 471 454 l 256 168 q 227 84 219 124 q 281 40 235 44 l 331 36 l 331 -4 l 161 0 l -17 -4 m 544 518 l 511 558 l 706 817 q 736 904 743 868 q 678 946 729 940 l 632 950 l 632 990 l 808 986 l 979 990 l 979 950 l 950 947 q 862 909 907 943 q 764 807 817 875 l 544 518 z "},"Y":{"ha":922,"x_min":-29,"x_max":951,"o":"m 257 -4 l 257 36 l 285 39 q 360 56 336 44 q 390 97 383 67 q 397 185 397 126 l 397 392 l 147 828 q 106 890 126 868 q 63 925 86 913 q 8 943 40 938 l -29 950 l -29 990 l 185 986 l 401 990 l 401 950 l 361 947 q 321 797 242 938 l 538 421 l 479 408 l 700 790 q 735 903 744 865 q 660 947 725 942 l 618 950 l 618 990 l 803 985 l 951 990 l 951 950 l 921 944 q 869 928 890 940 q 827 892 847 917 q 781 825 807 868 l 539 408 l 539 185 q 547 97 539 126 q 578 56 554 67 q 653 39 603 44 l 681 36 l 681 -4 l 469 0 l 468 0 l 257 -4 z "},"Ý":{"ha":922,"x_min":-29,"x_max":951,"o":"m 257 -4 l 257 36 l 285 39 q 360 56 336 44 q 390 97 383 67 q 397 185 397 126 l 397 392 l 147 828 q 106 890 126 868 q 63 925 86 913 q 8 943 40 938 l -29 950 l -29 990 l 185 986 l 401 990 l 401 950 l 361 947 q 321 797 242 938 l 538 421 l 479 408 l 700 790 q 735 903 744 865 q 660 947 725 942 l 618 950 l 618 990 l 803 985 l 951 990 l 951 950 l 921 944 q 869 928 890 940 q 827 892 847 917 q 781 825 807 868 l 539 408 l 539 185 q 547 97 539 126 q 578 56 554 67 q 653 39 603 44 l 681 36 l 681 -4 l 469 0 l 468 0 l 257 -4 m 468 1056 l 504 1306 l 633 1306 l 490 1056 l 468 1056 z "},"Ŷ":{"ha":922,"x_min":-29,"x_max":951,"o":"m 257 -4 l 257 36 l 285 39 q 360 56 336 44 q 390 97 383 67 q 397 185 397 126 l 397 392 l 147 828 q 106 890 126 868 q 63 925 86 913 q 8 943 40 938 l -29 950 l -29 990 l 185 986 l 401 990 l 401 950 l 361 947 q 321 797 242 938 l 538 421 l 479 408 l 700 790 q 735 903 744 865 q 660 947 725 942 l 618 950 l 618 990 l 803 985 l 951 990 l 951 950 l 921 944 q 869 928 890 940 q 827 892 847 917 q 781 825 807 868 l 539 408 l 539 185 q 547 97 539 126 q 578 56 554 67 q 653 39 603 44 l 681 36 l 681 -4 l 469 0 l 468 0 l 257 -4 m 344 1057 l 468 1306 l 518 1306 l 642 1057 l 607 1057 l 497 1182 l 489 1182 l 379 1057 l 344 1057 z "},"Ÿ":{"ha":922,"x_min":-29,"x_max":951,"o":"m 257 -4 l 257 36 l 285 39 q 360 56 336 44 q 390 97 383 67 q 397 185 397 126 l 397 392 l 147 828 q 106 890 126 868 q 63 925 86 913 q 8 943 40 938 l -29 950 l -29 990 l 185 986 l 401 990 l 401 950 l 361 947 q 321 797 242 938 l 538 421 l 479 408 l 700 790 q 735 903 744 865 q 660 947 725 942 l 618 950 l 618 990 l 803 985 l 951 990 l 951 950 l 921 944 q 869 928 890 940 q 827 892 847 917 q 781 825 807 868 l 539 408 l 539 185 q 547 97 539 126 q 578 56 554 67 q 653 39 603 44 l 681 36 l 681 -4 l 469 0 l 468 0 l 257 -4 m 363 1100 q 306 1123 326 1100 q 286 1181 286 1146 q 306 1237 286 1214 q 363 1260 326 1260 q 419 1237 401 1260 q 438 1181 438 1214 q 419 1123 438 1146 q 363 1100 401 1100 m 629 1100 q 574 1123 594 1100 q 554 1181 554 1146 q 574 1237 554 1214 q 629 1260 594 1260 q 686 1237 668 1260 q 704 1181 704 1214 q 686 1123 704 1146 q 629 1100 668 1100 z "},"Ỳ":{"ha":922,"x_min":-29,"x_max":951,"o":"m 257 -4 l 257 36 l 285 39 q 360 56 336 44 q 390 97 383 67 q 397 185 397 126 l 397 392 l 147 828 q 106 890 126 868 q 63 925 86 913 q 8 943 40 938 l -29 950 l -29 990 l 185 986 l 401 990 l 401 950 l 361 947 q 321 797 242 938 l 538 421 l 479 408 l 700 790 q 735 903 744 865 q 660 947 725 942 l 618 950 l 618 990 l 803 985 l 951 990 l 951 950 l 921 944 q 869 928 890 940 q 827 892 847 917 q 781 825 807 868 l 539 408 l 539 185 q 547 97 539 126 q 578 56 554 67 q 653 39 603 44 l 681 36 l 681 -4 l 469 0 l 468 0 l 257 -4 m 524 1056 l 501 1056 l 358 1306 l 488 1306 l 524 1056 z "},"Ỹ":{"ha":922,"x_min":-29,"x_max":951,"o":"m 257 -4 l 257 36 l 285 39 q 360 56 336 44 q 390 97 383 67 q 397 185 397 126 l 397 392 l 147 828 q 106 890 126 868 q 63 925 86 913 q 8 943 40 938 l -29 950 l -29 990 l 185 986 l 401 990 l 401 950 l 361 947 q 321 797 242 938 l 538 421 l 479 408 l 700 790 q 735 903 744 865 q 660 947 725 942 l 618 950 l 618 990 l 803 985 l 951 990 l 951 950 l 921 944 q 869 928 890 940 q 827 892 847 917 q 781 825 807 868 l 539 408 l 539 185 q 547 97 539 126 q 578 56 554 67 q 653 39 603 44 l 681 36 l 681 -4 l 469 0 l 468 0 l 257 -4 m 599 1096 q 550 1107 574 1096 q 508 1128 526 1118 l 463 1153 q 420 1176 440 1167 q 382 1185 400 1185 q 329 1160 350 1185 q 303 1111 308 1136 l 274 1111 q 286 1175 274 1139 q 326 1238 299 1211 q 396 1265 353 1265 q 446 1253 421 1265 q 488 1232 471 1240 l 542 1200 q 576 1185 556 1194 q 614 1175 596 1175 q 660 1194 642 1175 q 686 1243 679 1214 l 715 1243 q 679 1136 711 1176 q 599 1096 647 1096 z "},"Z":{"ha":889,"x_min":39,"x_max":836,"o":"m 822 -4 l 535 0 l 39 -1 l 39 40 l 682 979 l 718 940 l 413 938 q 274 927 329 936 q 187 895 219 918 q 137 831 154 872 q 110 724 119 789 l 72 724 l 86 908 l 89 989 l 504 986 l 822 990 l 822 942 l 189 15 l 147 46 l 501 49 q 658 78 599 50 q 749 177 717 107 q 797 369 782 247 l 836 369 l 824 129 l 822 -4 z "},"Ź":{"ha":889,"x_min":39,"x_max":836,"o":"m 822 -4 l 535 0 l 39 -1 l 39 40 l 682 979 l 718 940 l 413 938 q 274 927 329 936 q 187 895 219 918 q 137 831 154 872 q 110 724 119 789 l 72 724 l 86 908 l 89 989 l 504 986 l 822 990 l 822 942 l 189 15 l 147 46 l 501 49 q 658 78 599 50 q 749 177 717 107 q 797 369 782 247 l 836 369 l 824 129 l 822 -4 m 406 1056 l 442 1306 l 571 1306 l 428 1056 l 406 1056 z "},"Ž":{"ha":889,"x_min":39,"x_max":836,"o":"m 822 -4 l 535 0 l 39 -1 l 39 40 l 682 979 l 718 940 l 413 938 q 274 927 329 936 q 187 895 219 918 q 137 831 154 872 q 110 724 119 789 l 72 724 l 86 908 l 89 989 l 504 986 l 822 990 l 822 942 l 189 15 l 147 46 l 501 49 q 658 78 599 50 q 749 177 717 107 q 797 369 782 247 l 836 369 l 824 129 l 822 -4 m 408 1056 l 285 1306 l 319 1306 l 429 1181 l 438 1181 l 547 1306 l 582 1306 l 458 1056 l 408 1056 z "},"Ż":{"ha":889,"x_min":39,"x_max":836,"o":"m 822 -4 l 535 0 l 39 -1 l 39 40 l 682 979 l 718 940 l 413 938 q 274 927 329 936 q 187 895 219 918 q 137 831 154 872 q 110 724 119 789 l 72 724 l 86 908 l 89 989 l 504 986 l 822 990 l 822 942 l 189 15 l 147 46 l 501 49 q 658 78 599 50 q 749 177 717 107 q 797 369 782 247 l 836 369 l 824 129 l 822 -4 m 432 1094 q 372 1119 394 1094 q 350 1181 350 1144 q 372 1242 350 1217 q 432 1267 394 1267 q 495 1242 475 1267 q 515 1181 515 1217 q 495 1119 515 1144 q 432 1094 475 1094 z "},"a":{"ha":689,"x_min":63,"x_max":689,"o":"m 561 -17 q 469 21 499 -17 q 440 138 440 58 l 440 453 q 412 562 440 529 q 315 594 383 594 q 240 581 268 594 q 213 546 213 568 q 215 533 213 540 q 219 518 217 526 q 226 478 226 489 q 207 435 226 453 q 156 418 188 418 q 106 438 125 418 q 88 489 88 458 q 121 563 88 531 q 212 614 154 596 q 344 632 269 632 q 509 579 457 632 q 561 413 561 526 l 561 154 q 572 65 561 90 q 607 39 582 39 q 640 51 625 39 q 661 83 654 64 l 689 72 q 561 -17 661 -17 m 225 -17 q 107 18 151 -17 q 63 110 63 53 q 108 213 63 164 q 250 313 153 263 q 345 358 292 335 q 458 401 399 381 l 460 372 q 264 257 333 322 q 194 125 194 192 q 216 65 194 86 q 278 43 238 43 q 351 64 315 43 q 416 119 388 85 q 457 194 444 153 l 465 140 q 367 25 431 67 q 225 -17 303 -17 z "},"á":{"ha":689,"x_min":63,"x_max":689,"o":"m 561 -17 q 469 21 499 -17 q 440 138 440 58 l 440 453 q 412 562 440 529 q 315 594 383 594 q 240 581 268 594 q 213 546 213 568 q 215 533 213 540 q 219 518 217 526 q 226 478 226 489 q 207 435 226 453 q 156 418 188 418 q 106 438 125 418 q 88 489 88 458 q 121 563 88 531 q 212 614 154 596 q 344 632 269 632 q 509 579 457 632 q 561 413 561 526 l 561 154 q 572 65 561 90 q 607 39 582 39 q 640 51 625 39 q 661 83 654 64 l 689 72 q 561 -17 661 -17 m 225 -17 q 107 18 151 -17 q 63 110 63 53 q 108 213 63 164 q 250 313 153 263 q 345 358 292 335 q 458 401 399 381 l 460 372 q 264 257 333 322 q 194 125 194 192 q 216 65 194 86 q 278 43 238 43 q 351 64 315 43 q 416 119 388 85 q 457 194 444 153 l 465 140 q 367 25 431 67 q 225 -17 303 -17 m 292 722 l 338 928 q 366 988 347 971 q 404 1006 385 1006 q 440 992 425 1006 q 456 953 456 979 q 449 920 456 938 q 432 886 443 903 l 325 722 l 292 722 z "},"ă":{"ha":689,"x_min":63,"x_max":689,"o":"m 561 -17 q 469 21 499 -17 q 440 138 440 58 l 440 453 q 412 562 440 529 q 315 594 383 594 q 240 581 268 594 q 213 546 213 568 q 215 533 213 540 q 219 518 217 526 q 226 478 226 489 q 207 435 226 453 q 156 418 188 418 q 106 438 125 418 q 88 489 88 458 q 121 563 88 531 q 212 614 154 596 q 344 632 269 632 q 509 579 457 632 q 561 413 561 526 l 561 154 q 572 65 561 90 q 607 39 582 39 q 640 51 625 39 q 661 83 654 64 l 689 72 q 561 -17 661 -17 m 225 -17 q 107 18 151 -17 q 63 110 63 53 q 108 213 63 164 q 250 313 153 263 q 345 358 292 335 q 458 401 399 381 l 460 372 q 264 257 333 322 q 194 125 194 192 q 216 65 194 86 q 278 43 238 43 q 351 64 315 43 q 416 119 388 85 q 457 194 444 153 l 465 140 q 367 25 431 67 q 225 -17 303 -17 m 340 750 q 231 797 267 750 q 196 911 196 843 l 196 960 l 235 960 l 235 950 q 263 865 235 888 q 340 843 290 843 q 418 865 390 843 q 446 950 446 888 l 446 960 l 485 960 l 485 911 q 449 797 485 843 q 340 750 414 750 z "},"ǎ":{"ha":689,"x_min":63,"x_max":689,"o":"m 561 -17 q 469 21 499 -17 q 440 138 440 58 l 440 453 q 412 562 440 529 q 315 594 383 594 q 240 581 268 594 q 213 546 213 568 q 215 533 213 540 q 219 518 217 526 q 226 478 226 489 q 207 435 226 453 q 156 418 188 418 q 106 438 125 418 q 88 489 88 458 q 121 563 88 531 q 212 614 154 596 q 344 632 269 632 q 509 579 457 632 q 561 413 561 526 l 561 154 q 572 65 561 90 q 607 39 582 39 q 640 51 625 39 q 661 83 654 64 l 689 72 q 561 -17 661 -17 m 225 -17 q 107 18 151 -17 q 63 110 63 53 q 108 213 63 164 q 250 313 153 263 q 345 358 292 335 q 458 401 399 381 l 460 372 q 264 257 333 322 q 194 125 194 192 q 216 65 194 86 q 278 43 238 43 q 351 64 315 43 q 416 119 388 85 q 457 194 444 153 l 465 140 q 367 25 431 67 q 225 -17 303 -17 m 315 722 l 188 986 l 225 986 l 336 850 l 344 850 l 456 986 l 493 986 l 365 722 l 315 722 z "},"â":{"ha":689,"x_min":63,"x_max":689,"o":"m 561 -17 q 469 21 499 -17 q 440 138 440 58 l 440 453 q 412 562 440 529 q 315 594 383 594 q 240 581 268 594 q 213 546 213 568 q 215 533 213 540 q 219 518 217 526 q 226 478 226 489 q 207 435 226 453 q 156 418 188 418 q 106 438 125 418 q 88 489 88 458 q 121 563 88 531 q 212 614 154 596 q 344 632 269 632 q 509 579 457 632 q 561 413 561 526 l 561 154 q 572 65 561 90 q 607 39 582 39 q 640 51 625 39 q 661 83 654 64 l 689 72 q 561 -17 661 -17 m 225 -17 q 107 18 151 -17 q 63 110 63 53 q 108 213 63 164 q 250 313 153 263 q 345 358 292 335 q 458 401 399 381 l 460 372 q 264 257 333 322 q 194 125 194 192 q 216 65 194 86 q 278 43 238 43 q 351 64 315 43 q 416 119 388 85 q 457 194 444 153 l 465 140 q 367 25 431 67 q 225 -17 303 -17 m 188 722 l 315 986 l 365 986 l 493 722 l 456 722 l 344 858 l 336 858 l 225 722 l 188 722 z "},"ä":{"ha":689,"x_min":63,"x_max":689,"o":"m 561 -17 q 469 21 499 -17 q 440 138 440 58 l 440 453 q 412 562 440 529 q 315 594 383 594 q 240 581 268 594 q 213 546 213 568 q 215 533 213 540 q 219 518 217 526 q 226 478 226 489 q 207 435 226 453 q 156 418 188 418 q 106 438 125 418 q 88 489 88 458 q 121 563 88 531 q 212 614 154 596 q 344 632 269 632 q 509 579 457 632 q 561 413 561 526 l 561 154 q 572 65 561 90 q 607 39 582 39 q 640 51 625 39 q 661 83 654 64 l 689 72 q 561 -17 661 -17 m 225 -17 q 107 18 151 -17 q 63 110 63 53 q 108 213 63 164 q 250 313 153 263 q 345 358 292 335 q 458 401 399 381 l 460 372 q 264 257 333 322 q 194 125 194 192 q 216 65 194 86 q 278 43 238 43 q 351 64 315 43 q 416 119 388 85 q 457 194 444 153 l 465 140 q 367 25 431 67 q 225 -17 303 -17 m 206 774 q 148 797 168 774 q 128 856 128 821 q 148 913 128 889 q 206 936 168 936 q 263 913 244 936 q 281 856 281 889 q 263 797 281 821 q 206 774 244 774 m 475 774 q 419 797 439 774 q 399 856 399 821 q 419 913 399 889 q 475 936 439 936 q 533 913 515 936 q 551 856 551 889 q 533 797 551 821 q 475 774 515 774 z "},"à":{"ha":689,"x_min":63,"x_max":689,"o":"m 561 -17 q 469 21 499 -17 q 440 138 440 58 l 440 453 q 412 562 440 529 q 315 594 383 594 q 240 581 268 594 q 213 546 213 568 q 215 533 213 540 q 219 518 217 526 q 226 478 226 489 q 207 435 226 453 q 156 418 188 418 q 106 438 125 418 q 88 489 88 458 q 121 563 88 531 q 212 614 154 596 q 344 632 269 632 q 509 579 457 632 q 561 413 561 526 l 561 154 q 572 65 561 90 q 607 39 582 39 q 640 51 625 39 q 661 83 654 64 l 689 72 q 561 -17 661 -17 m 225 -17 q 107 18 151 -17 q 63 110 63 53 q 108 213 63 164 q 250 313 153 263 q 345 358 292 335 q 458 401 399 381 l 460 372 q 264 257 333 322 q 194 125 194 192 q 216 65 194 86 q 278 43 238 43 q 351 64 315 43 q 416 119 388 85 q 457 194 444 153 l 465 140 q 367 25 431 67 q 225 -17 303 -17 m 344 722 l 238 886 q 221 920 228 903 q 214 953 214 938 q 229 992 214 979 q 265 1006 244 1006 q 303 988 285 1006 q 332 928 322 971 l 378 722 l 344 722 z "},"ā":{"ha":689,"x_min":63,"x_max":689,"o":"m 561 -17 q 469 21 499 -17 q 440 138 440 58 l 440 453 q 412 562 440 529 q 315 594 383 594 q 240 581 268 594 q 213 546 213 568 q 215 533 213 540 q 219 518 217 526 q 226 478 226 489 q 207 435 226 453 q 156 418 188 418 q 106 438 125 418 q 88 489 88 458 q 121 563 88 531 q 212 614 154 596 q 344 632 269 632 q 509 579 457 632 q 561 413 561 526 l 561 154 q 572 65 561 90 q 607 39 582 39 q 640 51 625 39 q 661 83 654 64 l 689 72 q 561 -17 661 -17 m 225 -17 q 107 18 151 -17 q 63 110 63 53 q 108 213 63 164 q 250 313 153 263 q 345 358 292 335 q 458 401 399 381 l 460 372 q 264 257 333 322 q 194 125 194 192 q 216 65 194 86 q 278 43 238 43 q 351 64 315 43 q 416 119 388 85 q 457 194 444 153 l 465 140 q 367 25 431 67 q 225 -17 303 -17 m 175 792 l 175 861 l 504 861 l 504 792 l 175 792 z "},"ą":{"ha":689,"x_min":63,"x_max":696,"o":"m 515 -397 q 399 -357 444 -397 q 354 -251 354 -317 q 412 -131 354 -193 q 603 18 469 -69 l 601 -8 q 558 -17 581 -17 q 468 23 496 -17 q 440 151 440 63 l 440 453 q 412 562 440 529 q 315 594 383 594 q 240 581 268 594 q 213 546 213 568 q 213 539 213 543 q 219 518 214 535 q 225 492 224 500 q 226 478 226 485 q 206 435 226 453 q 156 418 186 418 q 106 438 125 418 q 88 489 88 458 q 121 563 88 531 q 212 614 154 596 q 344 632 269 632 q 509 579 457 632 q 561 413 561 526 l 561 154 q 572 65 561 90 q 607 39 582 39 q 640 51 625 39 q 661 83 654 64 l 689 72 q 665 27 681 44 q 611 -14 649 10 q 446 -215 446 -118 q 473 -287 446 -260 q 544 -314 500 -314 q 671 -224 625 -314 l 696 -243 q 630 -358 676 -318 q 515 -397 583 -397 m 225 -17 q 107 19 151 -17 q 63 110 63 54 q 108 213 63 164 q 250 313 153 263 q 333 353 286 332 q 449 400 379 374 l 450 368 q 261 253 328 317 q 194 125 194 189 q 216 65 194 86 q 278 43 238 43 q 345 60 311 43 q 406 107 379 78 q 446 171 433 136 l 451 114 q 354 17 414 51 q 225 -17 294 -17 z "},"å":{"ha":689,"x_min":63,"x_max":689,"o":"m 561 -17 q 469 21 499 -17 q 440 138 440 58 l 440 453 q 412 562 440 529 q 315 594 383 594 q 240 581 268 594 q 213 546 213 568 q 215 533 213 540 q 219 518 217 526 q 226 478 226 489 q 207 435 226 453 q 156 418 188 418 q 106 438 125 418 q 88 489 88 458 q 121 563 88 531 q 212 614 154 596 q 344 632 269 632 q 509 579 457 632 q 561 413 561 526 l 561 154 q 572 65 561 90 q 607 39 582 39 q 640 51 625 39 q 661 83 654 64 l 689 72 q 561 -17 661 -17 m 225 -17 q 107 18 151 -17 q 63 110 63 53 q 108 213 63 164 q 250 313 153 263 q 345 358 292 335 q 458 401 399 381 l 460 372 q 264 257 333 322 q 194 125 194 192 q 216 65 194 86 q 278 43 238 43 q 351 64 315 43 q 416 119 388 85 q 457 194 444 153 l 465 140 q 367 25 431 67 q 225 -17 303 -17 m 342 735 q 249 770 283 735 q 214 854 214 806 q 247 936 214 899 q 340 974 279 974 q 413 955 385 974 q 453 908 440 936 q 465 854 465 881 q 447 787 465 814 q 400 747 428 760 q 342 735 372 735 m 342 779 q 388 798 367 779 q 408 854 408 817 q 388 910 408 890 q 340 929 367 929 q 294 912 318 929 q 271 854 271 894 q 292 799 271 819 q 342 779 314 779 z "},"ǻ":{"ha":689,"x_min":63,"x_max":689,"o":"m 561 -17 q 469 21 499 -17 q 440 138 440 58 l 440 453 q 412 562 440 529 q 315 594 383 594 q 240 581 268 594 q 213 546 213 568 q 215 533 213 540 q 219 518 217 526 q 226 478 226 489 q 207 435 226 453 q 156 418 188 418 q 106 438 125 418 q 88 489 88 458 q 121 563 88 531 q 212 614 154 596 q 344 632 269 632 q 509 579 457 632 q 561 413 561 526 l 561 154 q 572 65 561 90 q 607 39 582 39 q 640 51 625 39 q 661 83 654 64 l 689 72 q 561 -17 661 -17 m 225 -17 q 107 18 151 -17 q 63 110 63 53 q 108 213 63 164 q 250 313 153 263 q 345 358 292 335 q 458 401 399 381 l 460 372 q 264 257 333 322 q 194 125 194 192 q 216 65 194 86 q 278 43 238 43 q 351 64 315 43 q 416 119 388 85 q 457 194 444 153 l 465 140 q 367 25 431 67 q 225 -17 303 -17 m 342 735 q 249 770 283 735 q 214 854 214 806 q 247 936 214 899 q 340 974 279 974 q 413 955 385 974 q 453 908 440 936 q 465 854 465 881 q 447 787 465 814 q 400 747 428 760 q 342 735 372 735 m 342 779 q 388 798 367 779 q 408 854 408 817 q 388 910 408 890 q 340 929 367 929 q 294 912 318 929 q 271 854 271 894 q 292 799 271 819 q 342 779 314 779 m 292 1056 l 338 1261 q 366 1322 347 1304 q 404 1339 385 1339 q 440 1326 425 1339 q 456 1286 456 1313 q 449 1253 456 1271 q 432 1219 443 1236 l 325 1056 l 292 1056 z "},"ã":{"ha":689,"x_min":63,"x_max":689,"o":"m 561 -17 q 469 21 499 -17 q 440 138 440 58 l 440 453 q 412 562 440 529 q 315 594 383 594 q 240 581 268 594 q 213 546 213 568 q 215 533 213 540 q 219 518 217 526 q 226 478 226 489 q 207 435 226 453 q 156 418 188 418 q 106 438 125 418 q 88 489 88 458 q 121 563 88 531 q 212 614 154 596 q 344 632 269 632 q 509 579 457 632 q 561 413 561 526 l 561 154 q 572 65 561 90 q 607 39 582 39 q 640 51 625 39 q 661 83 654 64 l 689 72 q 561 -17 661 -17 m 225 -17 q 107 18 151 -17 q 63 110 63 53 q 108 213 63 164 q 250 313 153 263 q 345 358 292 335 q 458 401 399 381 l 460 372 q 264 257 333 322 q 194 125 194 192 q 216 65 194 86 q 278 43 238 43 q 351 64 315 43 q 416 119 388 85 q 457 194 444 153 l 465 140 q 367 25 431 67 q 225 -17 303 -17 m 444 769 q 396 781 419 769 q 354 801 372 792 l 308 826 q 266 849 286 840 q 228 858 246 858 q 175 834 196 858 q 149 785 154 810 l 119 785 q 132 849 119 813 q 172 912 144 885 q 242 939 199 939 q 292 926 267 939 q 333 906 317 914 l 388 874 q 422 858 401 868 q 460 849 442 849 q 506 868 488 849 q 532 917 525 888 l 561 917 q 525 810 557 850 q 444 769 493 769 z "},"æ":{"ha":1038,"x_min":63,"x_max":993,"o":"m 739 -17 q 564 26 643 -17 q 440 149 485 68 l 440 438 q 413 558 440 522 q 322 594 386 594 q 243 581 274 594 q 213 544 213 567 q 219 518 213 536 q 226 481 226 493 q 206 435 226 453 q 154 418 186 418 q 106 437 124 418 q 88 486 88 456 q 122 561 88 528 q 214 613 156 594 q 343 632 272 632 q 469 603 419 632 q 540 518 519 575 l 514 519 q 613 603 553 574 q 742 632 672 632 q 918 565 851 632 q 985 388 985 497 q 983 360 985 372 q 978 338 982 349 l 547 338 l 550 374 l 724 374 q 867 469 867 374 q 829 558 867 521 q 739 594 792 594 q 649 561 689 594 q 585 471 608 528 q 563 342 563 414 l 563 307 q 619 110 563 183 q 771 36 676 36 q 882 72 833 36 q 957 174 931 108 l 993 160 q 899 27 961 71 q 739 -17 836 -17 m 225 -17 q 108 18 153 -17 q 63 107 63 53 q 108 210 63 160 q 242 309 154 261 q 458 401 331 357 l 460 372 q 265 257 335 322 q 194 128 194 192 q 219 65 194 89 q 281 42 243 42 q 351 62 315 42 q 415 116 386 82 q 456 192 443 150 l 479 153 q 372 28 440 74 q 225 -17 304 -17 z "},"b":{"ha":782,"x_min":13,"x_max":726,"o":"m 444 -17 q 320 13 379 -17 q 219 94 261 42 l 232 139 q 315 63 264 92 q 417 33 365 33 q 544 106 497 33 q 592 307 592 179 q 544 509 592 436 q 415 582 497 582 q 322 558 368 582 q 233 485 276 533 l 215 511 q 321 601 263 571 q 444 632 379 632 q 589 590 525 632 q 690 474 653 547 q 726 307 726 401 q 690 142 726 215 q 589 26 653 69 q 444 -17 525 -17 m 129 -15 l 129 838 q 106 924 129 900 q 24 950 82 949 l 13 950 l 13 986 q 143 990 89 986 q 250 1003 197 993 l 250 68 l 154 -15 l 129 -15 z "},"c":{"ha":658,"x_min":56,"x_max":621,"o":"m 367 -17 q 205 23 275 -17 q 95 133 135 63 q 56 293 56 203 q 99 467 56 390 q 217 588 142 544 q 386 632 293 632 q 497 615 447 632 q 576 566 547 597 q 604 496 604 535 q 583 442 604 464 q 531 421 563 421 q 474 441 496 421 q 453 489 453 461 q 454 504 453 496 q 460 526 456 513 q 464 542 463 536 q 465 553 465 547 q 444 584 465 574 q 390 594 422 594 q 245 516 300 594 q 190 308 190 438 q 245 110 190 182 q 397 38 300 38 q 512 72 463 38 q 585 172 561 107 l 621 160 q 528 28 594 74 q 367 -17 463 -17 z "},"ć":{"ha":658,"x_min":56,"x_max":621,"o":"m 367 -17 q 205 23 275 -17 q 95 133 135 63 q 56 293 56 203 q 99 467 56 390 q 217 588 142 544 q 386 632 293 632 q 497 615 447 632 q 576 566 547 597 q 604 496 604 535 q 583 442 604 464 q 531 421 563 421 q 474 441 496 421 q 453 489 453 461 q 454 504 453 496 q 460 526 456 513 q 464 542 463 536 q 465 553 465 547 q 444 584 465 574 q 390 594 422 594 q 245 516 300 594 q 190 308 190 438 q 245 110 190 182 q 397 38 300 38 q 512 72 463 38 q 585 172 561 107 l 621 160 q 528 28 594 74 q 367 -17 463 -17 m 317 722 l 363 928 q 391 988 372 971 q 429 1006 410 1006 q 465 992 450 1006 q 481 953 481 979 q 474 920 481 938 q 457 886 468 903 l 350 722 l 317 722 z "},"č":{"ha":658,"x_min":56,"x_max":621,"o":"m 367 -17 q 205 23 275 -17 q 95 133 135 63 q 56 293 56 203 q 99 467 56 390 q 217 588 142 544 q 386 632 293 632 q 497 615 447 632 q 576 566 547 597 q 604 496 604 535 q 583 442 604 464 q 531 421 563 421 q 474 441 496 421 q 453 489 453 461 q 454 504 453 496 q 460 526 456 513 q 464 542 463 536 q 465 553 465 547 q 444 584 465 574 q 390 594 422 594 q 245 516 300 594 q 190 308 190 438 q 245 110 190 182 q 397 38 300 38 q 512 72 463 38 q 585 172 561 107 l 621 160 q 528 28 594 74 q 367 -17 463 -17 m 340 722 l 213 986 l 250 986 l 361 850 l 369 850 l 481 986 l 518 986 l 390 722 l 340 722 z "},"ç":{"ha":658,"x_min":56,"x_max":621,"o":"m 367 -17 q 205 23 275 -17 q 95 133 135 63 q 56 293 56 203 q 99 467 56 390 q 217 588 142 544 q 386 632 293 632 q 497 615 447 632 q 576 566 547 597 q 604 496 604 535 q 583 442 604 464 q 531 421 563 421 q 474 441 496 421 q 453 489 453 461 q 454 504 453 496 q 460 526 456 513 q 464 542 463 536 q 465 553 465 547 q 444 584 465 574 q 390 594 422 594 q 245 516 300 594 q 190 308 190 438 q 245 110 190 182 q 397 38 300 38 q 512 72 463 38 q 585 172 561 107 l 621 160 q 528 28 594 74 q 367 -17 463 -17 m 313 -406 q 215 -369 250 -406 q 169 -292 179 -332 l 201 -282 q 235 -339 208 -314 q 303 -364 263 -364 q 373 -324 347 -364 q 399 -232 399 -285 q 374 -150 399 -182 q 307 -118 350 -118 q 262 -133 285 -118 q 224 -171 239 -147 l 194 -151 q 253 -94 217 -112 q 331 -79 289 -76 q 406 -101 374 -81 q 458 -158 439 -122 q 478 -235 478 -193 q 455 -324 478 -286 q 394 -384 432 -362 q 313 -406 357 -406 m 353 -97 l 311 -93 l 343 0 l 388 0 l 353 -97 z "},"ċ":{"ha":658,"x_min":56,"x_max":621,"o":"m 367 -17 q 205 23 275 -17 q 95 133 135 63 q 56 293 56 203 q 99 467 56 390 q 217 588 142 544 q 386 632 293 632 q 497 615 447 632 q 576 566 547 597 q 604 496 604 535 q 583 442 604 464 q 531 421 563 421 q 474 441 496 421 q 453 489 453 461 q 454 504 453 496 q 460 526 456 513 q 464 542 463 536 q 465 553 465 547 q 444 584 465 574 q 390 594 422 594 q 245 516 300 594 q 190 308 190 438 q 245 110 190 182 q 397 38 300 38 q 512 72 463 38 q 585 172 561 107 l 621 160 q 528 28 594 74 q 367 -17 463 -17 m 365 764 q 301 790 325 764 q 278 854 278 817 q 301 919 278 893 q 365 944 325 944 q 432 919 411 944 q 453 854 453 893 q 432 790 453 817 q 365 764 411 764 z "},"d":{"ha":772,"x_min":56,"x_max":764,"o":"m 338 -17 q 193 26 257 -17 q 92 143 129 69 q 56 308 56 217 q 92 474 56 401 q 194 590 129 547 q 339 632 258 632 q 462 603 403 632 q 564 522 521 575 l 550 478 q 469 553 519 525 q 367 582 418 582 q 238 510 285 582 q 190 308 190 438 q 238 107 190 181 q 368 33 285 33 q 460 58 415 33 q 549 132 506 83 l 568 106 q 462 15 519 46 q 338 -17 404 -17 m 564 -14 l 544 93 l 532 113 l 532 838 q 509 924 532 900 q 428 950 486 949 l 417 950 l 417 986 q 546 990 492 986 q 654 1003 600 993 l 654 154 q 678 63 654 88 q 764 36 701 38 l 764 0 l 715 0 q 636 -3 671 0 q 564 -14 601 -6 z "},"ď":{"ha":772,"x_min":56,"x_max":881,"o":"m 338 -17 q 193 26 257 -17 q 92 143 129 69 q 56 308 56 217 q 92 474 56 401 q 194 590 129 547 q 339 632 258 632 q 462 603 403 632 q 564 522 521 575 l 550 478 q 469 553 519 525 q 367 582 418 582 q 238 510 285 582 q 190 308 190 438 q 238 107 190 181 q 368 33 285 33 q 460 58 415 33 q 549 132 506 83 l 568 106 q 462 15 519 46 q 338 -17 404 -17 m 564 -14 l 544 93 l 532 113 l 532 838 q 509 924 532 900 q 428 950 486 949 l 417 950 l 417 986 q 546 990 492 986 q 654 1003 600 993 l 654 154 q 678 63 654 88 q 764 36 701 38 l 764 0 l 715 0 q 636 -3 671 0 q 564 -14 601 -6 m 731 740 l 758 986 l 881 986 l 778 740 l 731 740 z "},"đ":{"ha":772,"x_min":56,"x_max":764,"o":"m 326 774 l 326 813 l 761 813 l 761 774 l 326 774 m 338 -17 q 193 26 257 -17 q 92 143 129 69 q 56 308 56 217 q 92 474 56 401 q 194 590 129 547 q 339 632 258 632 q 462 603 403 632 q 564 522 521 575 l 550 478 q 469 553 519 525 q 367 582 418 582 q 238 510 285 582 q 190 308 190 438 q 238 107 190 181 q 368 33 285 33 q 460 58 415 33 q 549 132 506 83 l 568 106 q 462 15 519 46 q 338 -17 404 -17 m 564 -14 l 544 93 l 532 113 l 532 838 q 509 924 532 900 q 428 950 486 949 l 417 950 l 417 986 q 546 990 492 986 q 654 1003 600 993 l 654 154 q 678 63 654 88 q 764 36 701 38 l 764 0 l 715 0 q 636 -3 671 0 q 564 -14 601 -6 z "},"ð":{"ha":768,"x_min":56,"x_max":713,"o":"m 383 -17 q 217 27 292 -17 q 99 144 143 71 q 56 307 56 217 q 99 471 56 397 q 216 588 142 544 q 382 631 290 631 q 571 569 486 631 l 549 558 q 401 802 500 694 q 167 972 303 910 l 182 1006 q 393 898 296 967 q 562 740 490 829 q 673 551 633 651 q 713 347 713 450 q 669 158 713 240 q 553 30 626 76 q 383 -17 479 -17 m 383 22 q 526 96 476 22 q 576 306 576 169 q 527 518 576 444 q 383 592 478 592 q 240 518 290 592 q 190 306 190 444 q 241 96 190 169 q 383 22 292 22 m 190 751 l 176 783 l 540 967 l 563 915 l 190 751 z "},"e":{"ha":667,"x_min":56,"x_max":622,"o":"m 369 -17 q 206 23 276 -17 q 95 133 135 63 q 56 297 56 204 q 97 469 56 393 q 210 588 139 544 q 369 632 281 632 q 545 565 479 632 q 611 385 611 497 q 610 358 611 371 q 607 338 610 344 l 165 338 l 168 374 l 369 374 q 492 469 492 374 q 456 558 492 522 q 365 594 419 594 q 238 518 286 594 q 190 317 190 442 q 245 109 190 185 q 396 33 300 33 q 510 69 461 33 q 586 174 560 106 l 622 158 q 369 -17 560 -17 z "},"é":{"ha":667,"x_min":56,"x_max":622,"o":"m 369 -17 q 206 23 276 -17 q 95 133 135 63 q 56 297 56 204 q 97 469 56 393 q 210 588 139 544 q 369 632 281 632 q 545 565 479 632 q 611 385 611 497 q 610 358 611 371 q 607 338 610 344 l 165 338 l 168 374 l 369 374 q 492 469 492 374 q 456 558 492 522 q 365 594 419 594 q 238 518 286 594 q 190 317 190 442 q 245 109 190 185 q 396 33 300 33 q 510 69 461 33 q 586 174 560 106 l 622 158 q 369 -17 560 -17 m 324 722 l 369 928 q 398 988 379 971 q 436 1006 417 1006 q 472 992 457 1006 q 488 953 488 979 q 481 920 488 938 q 464 886 475 903 l 357 722 l 324 722 z "},"ě":{"ha":667,"x_min":56,"x_max":622,"o":"m 369 -17 q 206 23 276 -17 q 95 133 135 63 q 56 297 56 204 q 97 469 56 393 q 210 588 139 544 q 369 632 281 632 q 545 565 479 632 q 611 385 611 497 q 610 358 611 371 q 607 338 610 344 l 165 338 l 168 374 l 369 374 q 492 469 492 374 q 456 558 492 522 q 365 594 419 594 q 238 518 286 594 q 190 317 190 442 q 245 109 190 185 q 396 33 300 33 q 510 69 461 33 q 586 174 560 106 l 622 158 q 369 -17 560 -17 m 346 722 l 218 986 l 256 986 l 367 850 l 375 850 l 486 986 l 524 986 l 396 722 l 346 722 z "},"ê":{"ha":667,"x_min":56,"x_max":622,"o":"m 369 -17 q 206 23 276 -17 q 95 133 135 63 q 56 297 56 204 q 97 469 56 393 q 210 588 139 544 q 369 632 281 632 q 545 565 479 632 q 611 385 611 497 q 610 358 611 371 q 607 338 610 344 l 165 338 l 168 374 l 369 374 q 492 469 492 374 q 456 558 492 522 q 365 594 419 594 q 238 518 286 594 q 190 317 190 442 q 245 109 190 185 q 396 33 300 33 q 510 69 461 33 q 586 174 560 106 l 622 158 q 369 -17 560 -17 m 218 722 l 346 986 l 396 986 l 524 722 l 486 722 l 375 858 l 367 858 l 256 722 l 218 722 z "},"ë":{"ha":667,"x_min":56,"x_max":622,"o":"m 369 -17 q 206 23 276 -17 q 95 133 135 63 q 56 297 56 204 q 97 469 56 393 q 210 588 139 544 q 369 632 281 632 q 545 565 479 632 q 611 385 611 497 q 610 358 611 371 q 607 338 610 344 l 165 338 l 168 374 l 369 374 q 492 469 492 374 q 456 558 492 522 q 365 594 419 594 q 238 518 286 594 q 190 317 190 442 q 245 109 190 185 q 396 33 300 33 q 510 69 461 33 q 586 174 560 106 l 622 158 q 369 -17 560 -17 m 236 774 q 178 797 199 774 q 158 856 158 821 q 178 913 158 889 q 236 936 199 936 q 293 913 275 936 q 311 856 311 889 q 293 797 311 821 q 236 774 275 774 m 506 774 q 449 797 469 774 q 429 856 429 821 q 449 913 429 889 q 506 936 469 936 q 564 913 546 936 q 582 856 582 889 q 564 797 582 821 q 506 774 546 774 z "},"ė":{"ha":667,"x_min":56,"x_max":622,"o":"m 369 -17 q 206 23 276 -17 q 95 133 135 63 q 56 297 56 204 q 97 469 56 393 q 210 588 139 544 q 369 632 281 632 q 545 565 479 632 q 611 385 611 497 q 610 358 611 371 q 607 338 610 344 l 165 338 l 168 374 l 369 374 q 492 469 492 374 q 456 558 492 522 q 365 594 419 594 q 238 518 286 594 q 190 317 190 442 q 245 109 190 185 q 396 33 300 33 q 510 69 461 33 q 586 174 560 106 l 622 158 q 369 -17 560 -17 m 371 764 q 307 790 331 764 q 283 854 283 817 q 307 919 283 893 q 371 944 331 944 q 438 919 417 944 q 458 854 458 893 q 438 790 458 817 q 371 764 417 764 z "},"è":{"ha":667,"x_min":56,"x_max":622,"o":"m 369 -17 q 206 23 276 -17 q 95 133 135 63 q 56 297 56 204 q 97 469 56 393 q 210 588 139 544 q 369 632 281 632 q 545 565 479 632 q 611 385 611 497 q 610 358 611 371 q 607 338 610 344 l 165 338 l 168 374 l 369 374 q 492 469 492 374 q 456 558 492 522 q 365 594 419 594 q 238 518 286 594 q 190 317 190 442 q 245 109 190 185 q 396 33 300 33 q 510 69 461 33 q 586 174 560 106 l 622 158 q 369 -17 560 -17 m 375 722 l 268 886 q 251 920 258 903 q 244 953 244 938 q 260 992 244 979 q 296 1006 275 1006 q 334 988 315 1006 q 363 928 353 971 l 408 722 l 375 722 z "},"ē":{"ha":667,"x_min":56,"x_max":622,"o":"m 369 -17 q 206 23 276 -17 q 95 133 135 63 q 56 297 56 204 q 97 469 56 393 q 210 588 139 544 q 369 632 281 632 q 545 565 479 632 q 611 385 611 497 q 610 358 611 371 q 607 338 610 344 l 165 338 l 168 374 l 369 374 q 492 469 492 374 q 456 558 492 522 q 365 594 419 594 q 238 518 286 594 q 190 317 190 442 q 245 109 190 185 q 396 33 300 33 q 510 69 461 33 q 586 174 560 106 l 622 158 q 369 -17 560 -17 m 206 792 l 206 861 l 535 861 l 535 792 l 206 792 z "},"ę":{"ha":667,"x_min":56,"x_max":622,"o":"m 183 374 l 369 374 q 492 469 492 374 q 456 558 492 522 q 365 594 419 594 q 238 519 286 594 q 190 321 190 444 q 244 110 190 186 q 396 33 299 33 q 510 69 461 33 q 586 174 560 106 l 622 158 q 584 84 607 117 q 526 28 561 51 q 403 -97 444 -37 q 361 -212 361 -157 q 388 -286 361 -258 q 460 -314 415 -314 q 531 -291 499 -314 q 586 -224 563 -268 l 611 -243 q 544 -358 592 -318 q 429 -397 497 -397 q 314 -356 358 -397 q 269 -251 269 -315 q 317 -126 269 -190 q 472 25 364 -61 l 458 -4 q 369 -17 425 -17 q 206 23 276 -17 q 95 133 135 63 q 56 297 56 204 q 97 469 56 393 q 210 588 139 544 q 369 632 281 632 q 545 565 479 632 q 611 385 611 497 q 610 357 611 369 q 607 338 610 344 l 181 338 l 183 374 z "},"f":{"ha":485,"x_min":29,"x_max":565,"o":"m 29 -4 l 29 32 l 53 35 q 114 51 94 40 q 140 88 133 61 q 146 169 146 115 l 146 757 q 203 944 146 882 q 376 1006 260 1006 q 515 974 465 1006 q 565 886 565 942 q 545 829 565 850 q 492 808 525 808 q 442 826 463 808 q 421 872 421 844 q 428 908 421 888 q 435 933 435 924 q 381 967 435 967 q 294 918 322 967 q 267 764 267 869 l 267 169 q 273 88 267 115 q 299 51 279 61 q 360 35 319 40 l 385 32 l 385 -4 l 207 0 l 29 -4 m 32 569 l 32 608 l 165 608 l 165 569 l 32 569 m 246 569 l 246 608 l 415 608 l 415 569 l 246 569 z "},"g":{"ha":781,"x_min":10,"x_max":771,"o":"m 346 -408 q 172 -381 247 -408 q 53 -306 96 -354 q 10 -194 10 -257 q 33 -118 10 -147 q 92 -89 56 -89 q 138 -105 121 -89 q 156 -147 156 -121 q 152 -167 156 -158 q 138 -194 149 -176 q 119 -249 119 -224 q 181 -336 119 -304 q 344 -368 242 -368 q 541 -322 468 -368 q 614 -196 614 -275 q 569 -111 614 -139 q 422 -78 525 -83 l 272 -69 q 119 -33 171 -64 q 67 57 67 -1 q 113 158 67 114 q 235 221 160 203 l 278 200 q 192 169 222 190 q 163 117 163 147 q 195 71 163 86 q 303 53 228 56 l 386 47 q 619 -7 547 40 q 692 -151 692 -54 q 649 -287 692 -229 q 529 -377 607 -346 q 346 -408 451 -408 m 356 183 q 219 213 279 183 q 124 294 158 243 q 89 408 89 344 q 124 523 89 472 q 219 603 158 574 q 356 632 279 632 q 490 603 431 632 q 585 522 550 574 q 621 407 621 471 q 588 293 622 344 q 493 213 553 242 q 356 183 433 183 m 356 222 q 459 270 424 222 q 494 407 494 318 q 459 547 494 499 q 356 594 424 594 q 253 547 289 594 q 217 407 217 499 q 253 270 217 318 q 356 222 289 222 m 707 531 q 666 546 682 531 q 642 590 650 561 q 628 619 638 610 q 603 629 618 629 q 563 613 583 629 q 526 568 542 596 l 496 585 q 564 655 521 629 q 658 681 607 681 q 740 657 708 681 q 771 594 771 633 q 753 549 771 567 q 707 531 735 531 z "},"ğ":{"ha":781,"x_min":10,"x_max":771,"o":"m 346 -408 q 172 -381 247 -408 q 53 -306 96 -354 q 10 -194 10 -257 q 33 -118 10 -147 q 92 -89 56 -89 q 138 -105 121 -89 q 156 -147 156 -121 q 152 -167 156 -158 q 138 -194 149 -176 q 119 -249 119 -224 q 181 -336 119 -304 q 344 -368 242 -368 q 541 -322 468 -368 q 614 -196 614 -275 q 569 -111 614 -139 q 422 -78 525 -83 l 272 -69 q 119 -33 171 -64 q 67 57 67 -1 q 113 158 67 114 q 235 221 160 203 l 278 200 q 192 169 222 190 q 163 117 163 147 q 195 71 163 86 q 303 53 228 56 l 386 47 q 619 -7 547 40 q 692 -151 692 -54 q 649 -287 692 -229 q 529 -377 607 -346 q 346 -408 451 -408 m 356 183 q 219 213 279 183 q 124 294 158 243 q 89 408 89 344 q 124 523 89 472 q 219 603 158 574 q 356 632 279 632 q 490 603 431 632 q 585 522 550 574 q 621 407 621 471 q 588 293 622 344 q 493 213 553 242 q 356 183 433 183 m 356 222 q 459 270 424 222 q 494 407 494 318 q 459 547 494 499 q 356 594 424 594 q 253 547 289 594 q 217 407 217 499 q 253 270 217 318 q 356 222 289 222 m 707 531 q 666 546 682 531 q 642 590 650 561 q 628 619 638 610 q 603 629 618 629 q 563 613 583 629 q 526 568 542 596 l 496 585 q 564 655 521 629 q 658 681 607 681 q 740 657 708 681 q 771 594 771 633 q 753 549 771 567 q 707 531 735 531 m 354 750 q 245 797 281 750 q 210 911 210 843 l 210 960 l 249 960 l 249 950 q 276 865 249 888 q 354 843 304 843 q 432 865 404 843 q 460 950 460 888 l 460 960 l 499 960 l 499 911 q 463 797 499 843 q 354 750 428 750 z "},"ģ":{"ha":781,"x_min":10,"x_max":771,"o":"m 346 -408 q 172 -381 247 -408 q 53 -306 96 -354 q 10 -194 10 -257 q 33 -118 10 -147 q 92 -89 56 -89 q 138 -105 121 -89 q 156 -147 156 -121 q 152 -167 156 -158 q 138 -194 149 -176 q 119 -249 119 -224 q 181 -336 119 -304 q 344 -368 242 -368 q 541 -322 468 -368 q 614 -196 614 -275 q 569 -111 614 -139 q 422 -78 525 -83 l 272 -69 q 119 -33 171 -64 q 67 57 67 -1 q 113 158 67 114 q 235 221 160 203 l 278 200 q 192 169 222 190 q 163 117 163 147 q 195 71 163 86 q 303 53 228 56 l 386 47 q 619 -7 547 40 q 692 -151 692 -54 q 649 -287 692 -229 q 529 -377 607 -346 q 346 -408 451 -408 m 356 183 q 219 213 279 183 q 124 294 158 243 q 89 408 89 344 q 124 523 89 472 q 219 603 158 574 q 356 632 279 632 q 490 603 431 632 q 585 522 550 574 q 621 407 621 471 q 588 293 622 344 q 493 213 553 242 q 356 183 433 183 m 356 222 q 459 270 424 222 q 494 407 494 318 q 459 547 494 499 q 356 594 424 594 q 253 547 289 594 q 217 407 217 499 q 253 270 217 318 q 356 222 289 222 m 707 531 q 666 546 682 531 q 642 590 650 561 q 628 619 638 610 q 603 629 618 629 q 563 613 583 629 q 526 568 542 596 l 496 585 q 564 655 521 629 q 658 681 607 681 q 740 657 708 681 q 771 594 771 633 q 753 549 771 567 q 707 531 735 531 m 413 1001 l 426 978 q 347 909 381 949 q 313 817 313 869 q 320 774 313 796 q 350 751 328 751 l 329 744 l 342 767 l 349 754 q 334 766 339 756 q 329 790 329 776 q 340 820 329 806 q 379 835 351 835 q 419 817 404 835 q 435 772 435 799 q 418 729 435 749 q 367 710 401 710 q 299 741 324 710 q 275 817 275 772 q 314 921 275 872 q 413 1001 353 969 z "},"ġ":{"ha":781,"x_min":10,"x_max":771,"o":"m 346 -408 q 172 -381 247 -408 q 53 -306 96 -354 q 10 -194 10 -257 q 33 -118 10 -147 q 92 -89 56 -89 q 138 -105 121 -89 q 156 -147 156 -121 q 152 -167 156 -158 q 138 -194 149 -176 q 119 -249 119 -224 q 181 -336 119 -304 q 344 -368 242 -368 q 541 -322 468 -368 q 614 -196 614 -275 q 569 -111 614 -139 q 422 -78 525 -83 l 272 -69 q 119 -33 171 -64 q 67 57 67 -1 q 113 158 67 114 q 235 221 160 203 l 278 200 q 192 169 222 190 q 163 117 163 147 q 195 71 163 86 q 303 53 228 56 l 386 47 q 619 -7 547 40 q 692 -151 692 -54 q 649 -287 692 -229 q 529 -377 607 -346 q 346 -408 451 -408 m 356 183 q 219 213 279 183 q 124 294 158 243 q 89 408 89 344 q 124 523 89 472 q 219 603 158 574 q 356 632 279 632 q 490 603 431 632 q 585 522 550 574 q 621 407 621 471 q 588 293 622 344 q 493 213 553 242 q 356 183 433 183 m 356 222 q 459 270 424 222 q 494 407 494 318 q 459 547 494 499 q 356 594 424 594 q 253 547 289 594 q 217 407 217 499 q 253 270 217 318 q 356 222 289 222 m 707 531 q 666 546 682 531 q 642 590 650 561 q 628 619 638 610 q 603 629 618 629 q 563 613 583 629 q 526 568 542 596 l 496 585 q 564 655 521 629 q 658 681 607 681 q 740 657 708 681 q 771 594 771 633 q 753 549 771 567 q 707 531 735 531 m 354 764 q 290 790 314 764 q 267 854 267 817 q 290 919 267 893 q 354 944 314 944 q 421 919 400 944 q 442 854 442 893 q 421 790 442 817 q 354 764 400 764 z "},"h":{"ha":815,"x_min":19,"x_max":803,"o":"m 19 -4 l 19 32 l 42 35 q 104 51 85 40 q 129 88 124 61 q 135 169 135 115 l 135 838 q 112 924 135 900 q 31 950 89 949 l 19 950 l 19 986 q 151 990 97 986 q 256 1003 206 993 l 256 169 q 261 88 256 115 q 286 50 267 61 q 343 35 306 39 l 367 32 l 367 -4 l 192 0 l 19 -4 m 451 -4 l 451 32 l 475 35 q 534 50 515 39 q 559 89 553 61 q 565 169 565 117 l 565 442 q 533 542 565 507 q 442 578 500 578 q 326 539 379 578 q 247 433 274 500 l 247 503 q 351 599 289 565 q 486 632 413 632 q 632 583 578 632 q 686 447 686 533 l 686 169 q 692 88 686 115 q 719 51 699 61 q 779 35 739 40 l 803 32 l 803 -4 l 626 0 l 451 -4 z "},"ħ":{"ha":815,"x_min":19,"x_max":803,"o":"m 19 774 l 19 813 l 490 813 l 490 774 l 19 774 m 19 -4 l 19 32 l 42 35 q 104 51 85 40 q 129 88 124 61 q 135 169 135 115 l 135 838 q 112 924 135 900 q 31 950 89 949 l 19 950 l 19 986 q 151 990 97 986 q 256 1003 206 993 l 256 169 q 261 88 256 115 q 286 50 267 61 q 343 35 306 39 l 367 32 l 367 -4 l 192 0 l 19 -4 m 451 -4 l 451 32 l 475 35 q 534 50 515 39 q 559 89 553 61 q 565 169 565 117 l 565 442 q 533 542 565 507 q 442 578 500 578 q 326 539 379 578 q 247 433 274 500 l 247 503 q 351 599 289 565 q 486 632 413 632 q 632 583 578 632 q 686 447 686 533 l 686 169 q 692 88 686 115 q 719 51 699 61 q 779 35 739 40 l 803 32 l 803 -4 l 626 0 l 451 -4 z "},"ĥ":{"ha":815,"x_min":19,"x_max":803,"o":"m 19 -4 l 19 32 l 42 35 q 104 51 85 40 q 129 88 124 61 q 135 169 135 115 l 135 838 q 112 924 135 900 q 31 950 89 949 l 19 950 l 19 986 q 151 990 97 986 q 256 1003 206 993 l 256 169 q 261 88 256 115 q 286 50 267 61 q 343 35 306 39 l 367 32 l 367 -4 l 192 0 l 19 -4 m 451 -4 l 451 32 l 475 35 q 534 50 515 39 q 559 89 553 61 q 565 169 565 117 l 565 442 q 533 542 565 507 q 442 578 500 578 q 326 539 379 578 q 247 433 274 500 l 247 503 q 351 599 289 565 q 486 632 413 632 q 632 583 578 632 q 686 447 686 533 l 686 169 q 692 88 686 115 q 719 51 699 61 q 779 35 739 40 l 803 32 l 803 -4 l 626 0 l 451 -4 m 271 1057 l 394 1306 l 444 1306 l 568 1057 l 533 1057 l 424 1182 l 415 1182 l 306 1057 l 271 1057 z "},"i":{"ha":399,"x_min":33,"x_max":386,"o":"m 33 -4 l 33 32 l 56 35 q 117 51 97 40 q 142 88 136 61 q 149 169 149 115 l 149 460 q 126 547 149 522 q 44 574 103 572 l 33 574 l 33 608 q 162 612 107 608 q 269 625 217 615 l 269 169 q 276 88 269 115 q 302 51 282 61 q 364 35 322 40 l 386 32 l 386 -4 l 210 0 l 33 -4 m 186 764 q 122 790 146 764 q 99 854 99 817 q 122 919 99 893 q 186 944 146 944 q 253 919 232 944 q 274 854 274 893 q 253 790 274 817 q 186 764 232 764 z "},"ı":{"ha":415,"x_min":33,"x_max":386,"o":"m 33 -4 l 33 32 l 56 35 q 117 51 97 40 q 142 88 136 61 q 149 169 149 115 l 149 460 q 126 547 149 522 q 44 574 103 572 l 33 574 l 33 608 q 162 612 107 608 q 269 625 217 615 l 269 169 q 276 88 269 115 q 302 51 282 61 q 364 35 322 40 l 386 32 l 386 -4 l 210 0 l 33 -4 z "},"í":{"ha":415,"x_min":33,"x_max":386,"o":"m 33 -4 l 33 32 l 56 35 q 117 51 97 40 q 142 88 136 61 q 149 169 149 115 l 149 460 q 126 547 149 522 q 44 574 103 572 l 33 574 l 33 608 q 162 612 107 608 q 269 625 217 615 l 269 169 q 276 88 269 115 q 302 51 282 61 q 364 35 322 40 l 386 32 l 386 -4 l 210 0 l 33 -4 m 139 722 l 185 928 q 213 988 194 971 q 251 1006 232 1006 q 288 992 272 1006 q 303 953 303 979 q 297 920 303 938 q 279 886 290 903 l 172 722 l 139 722 z "},"ǐ":{"ha":415,"x_min":33,"x_max":386,"o":"m 33 -4 l 33 32 l 56 35 q 117 51 97 40 q 142 88 136 61 q 149 169 149 115 l 149 460 q 126 547 149 522 q 44 574 103 572 l 33 574 l 33 608 q 162 612 107 608 q 269 625 217 615 l 269 169 q 276 88 269 115 q 302 51 282 61 q 364 35 322 40 l 386 32 l 386 -4 l 210 0 l 33 -4 m 161 722 l 33 986 l 71 986 l 182 850 l 190 850 l 301 986 l 339 986 l 211 722 l 161 722 z "},"î":{"ha":415,"x_min":33,"x_max":386,"o":"m 33 -4 l 33 32 l 56 35 q 117 51 97 40 q 142 88 136 61 q 149 169 149 115 l 149 460 q 126 547 149 522 q 44 574 103 572 l 33 574 l 33 608 q 162 612 107 608 q 269 625 217 615 l 269 169 q 276 88 269 115 q 302 51 282 61 q 364 35 322 40 l 386 32 l 386 -4 l 210 0 l 33 -4 m 33 722 l 161 986 l 211 986 l 339 722 l 301 722 l 190 858 l 182 858 l 71 722 l 33 722 z "},"ï":{"ha":415,"x_min":1,"x_max":386,"o":"m 33 -4 l 33 32 l 56 35 q 117 51 97 40 q 142 88 136 61 q 149 169 149 115 l 149 460 q 126 547 149 522 q 44 574 103 572 l 33 574 l 33 608 q 162 612 107 608 q 269 625 217 615 l 269 169 q 276 88 269 115 q 302 51 282 61 q 364 35 322 40 l 386 32 l 386 -4 l 210 0 l 33 -4 m 76 779 q 21 803 40 779 q 1 861 1 828 q 21 918 1 894 q 76 942 40 942 q 134 918 117 942 q 151 861 151 894 q 134 803 151 828 q 76 779 117 779 m 293 779 q 236 803 256 779 q 217 861 217 828 q 236 918 217 894 q 293 942 256 942 q 349 918 332 942 q 367 861 367 894 q 349 803 367 828 q 293 779 332 779 z "},"ì":{"ha":415,"x_min":33,"x_max":386,"o":"m 33 -4 l 33 32 l 56 35 q 117 51 97 40 q 142 88 136 61 q 149 169 149 115 l 149 460 q 126 547 149 522 q 44 574 103 572 l 33 574 l 33 608 q 162 612 107 608 q 269 625 217 615 l 269 169 q 276 88 269 115 q 302 51 282 61 q 364 35 322 40 l 386 32 l 386 -4 l 210 0 l 33 -4 m 190 722 l 83 886 q 67 920 74 903 q 60 953 60 938 q 75 992 60 979 q 111 1006 90 1006 q 149 988 131 1006 q 178 928 168 971 l 224 722 l 190 722 z "},"ī":{"ha":415,"x_min":22,"x_max":386,"o":"m 33 -4 l 33 32 l 56 35 q 117 51 97 40 q 142 88 136 61 q 149 169 149 115 l 149 460 q 126 547 149 522 q 44 574 103 572 l 33 574 l 33 608 q 162 612 107 608 q 269 625 217 615 l 269 169 q 276 88 269 115 q 302 51 282 61 q 364 35 322 40 l 386 32 l 386 -4 l 210 0 l 33 -4 m 21 792 l 21 861 l 350 861 l 350 792 l 21 792 z "},"į":{"ha":415,"x_min":26,"x_max":386,"o":"m 33 -4 l 33 32 l 56 35 q 117 51 97 40 q 142 88 136 61 q 149 169 149 115 l 149 460 q 126 547 149 522 q 44 574 103 572 l 33 574 l 33 608 q 162 612 107 608 q 269 625 217 615 l 269 169 q 276 88 269 115 q 302 51 282 61 q 364 35 322 40 l 386 32 l 386 -4 l 210 0 l 33 -4 m 186 764 q 122 790 146 764 q 99 854 99 817 q 122 919 99 893 q 186 944 146 944 q 253 919 232 944 q 274 854 274 893 q 253 790 274 817 q 186 764 232 764 m 188 -397 q 72 -356 117 -397 q 26 -251 26 -315 q 51 -161 26 -207 q 131 -61 76 -115 q 276 63 186 -7 l 296 36 q 163 -93 207 -31 q 118 -212 118 -156 q 145 -286 118 -258 q 217 -314 172 -314 q 289 -292 257 -314 q 343 -224 321 -269 l 368 -243 q 302 -358 349 -318 q 188 -397 256 -397 z "},"ĳ":{"ha":796,"x_min":33,"x_max":696,"o":"m 33 -4 l 33 32 l 56 35 q 117 51 97 40 q 142 88 136 61 q 149 169 149 115 l 149 460 q 126 547 149 522 q 44 574 103 572 l 33 574 l 33 608 q 162 612 107 608 q 269 625 217 615 l 269 169 q 276 88 269 115 q 302 51 282 61 q 364 35 322 40 l 386 32 l 386 -4 l 210 0 l 33 -4 m 186 764 q 122 790 146 764 q 99 854 99 817 q 122 919 99 893 q 186 944 146 944 q 253 919 232 944 q 274 854 274 893 q 253 790 274 817 q 186 764 232 764 m 475 -410 q 363 -380 404 -410 q 321 -300 321 -350 q 342 -242 321 -264 q 399 -219 363 -219 q 449 -236 431 -219 q 468 -279 468 -253 q 461 -310 468 -289 q 457 -326 458 -319 q 456 -339 456 -332 q 494 -375 456 -375 q 547 -332 531 -375 q 564 -201 564 -289 l 564 464 q 540 550 564 526 q 449 574 515 574 l 449 608 q 564 613 508 608 q 685 629 619 618 l 685 -194 q 628 -352 685 -294 q 475 -410 572 -410 m 607 764 q 543 790 567 764 q 519 854 519 817 q 543 919 519 893 q 607 944 567 944 q 674 919 653 944 q 694 854 694 893 q 674 790 694 817 q 607 764 653 764 z "},"j":{"ha":397,"x_min":-78,"x_max":296,"o":"m 76 -410 q -36 -380 6 -410 q -78 -300 -78 -350 q -57 -242 -78 -264 q 0 -219 -36 -219 q 51 -236 32 -219 q 69 -279 69 -253 q 63 -310 69 -289 q 58 -326 60 -319 q 57 -339 57 -332 q 96 -375 57 -375 q 149 -332 132 -375 q 165 -201 165 -289 l 165 464 q 141 550 165 526 q 50 574 117 574 l 50 608 q 165 613 110 608 q 286 629 221 618 l 286 -194 q 230 -352 286 -294 q 76 -410 174 -410 m 208 764 q 144 790 168 764 q 121 854 121 817 q 144 919 121 893 q 208 944 168 944 q 275 919 254 944 q 296 854 296 893 q 275 790 296 817 q 208 764 254 764 z "},"ȷ":{"ha":397,"x_min":-78,"x_max":286,"o":"m 76 -410 q -36 -380 6 -410 q -78 -300 -78 -350 q -57 -242 -78 -264 q 0 -219 -36 -219 q 51 -236 32 -219 q 69 -279 69 -253 q 63 -310 69 -289 q 58 -326 60 -319 q 57 -339 57 -332 q 96 -375 57 -375 q 149 -332 132 -375 q 165 -201 165 -289 l 165 464 q 141 550 165 526 q 50 574 117 574 l 50 608 q 165 613 110 608 q 286 629 221 618 l 286 -194 q 230 -352 286 -294 q 76 -410 174 -410 z "},"k":{"ha":747,"x_min":19,"x_max":746,"o":"m 19 -4 l 19 32 l 42 35 q 104 51 85 40 q 129 88 124 61 q 135 169 135 115 l 135 838 q 112 924 135 900 q 31 950 89 949 l 19 950 l 19 986 q 151 990 97 986 q 256 1003 206 993 l 256 169 q 262 88 256 115 q 288 51 268 61 q 350 35 308 40 l 372 32 l 372 -4 l 196 0 l 19 -4 m 746 -4 l 568 0 l 303 314 l 382 406 l 632 110 q 688 52 667 68 q 725 35 708 36 l 746 32 l 746 -4 m 239 201 l 239 260 l 454 510 q 472 549 472 533 q 439 574 472 569 l 415 576 l 415 611 l 556 608 l 676 611 l 676 576 l 654 574 q 556 541 600 567 q 469 465 513 515 l 239 201 z "},"ķ":{"ha":747,"x_min":19,"x_max":746,"o":"m 19 -4 l 19 32 l 42 35 q 104 51 85 40 q 129 88 124 61 q 135 169 135 115 l 135 838 q 112 924 135 900 q 31 950 89 949 l 19 950 l 19 986 q 151 990 97 986 q 256 1003 206 993 l 256 169 q 262 88 256 115 q 288 51 268 61 q 350 35 308 40 l 372 32 l 372 -4 l 196 0 l 19 -4 m 746 -4 l 568 0 l 303 314 l 382 406 l 632 110 q 688 52 667 68 q 725 35 708 36 l 746 32 l 746 -4 m 239 201 l 239 260 l 454 510 q 472 549 472 533 q 439 574 472 569 l 415 576 l 415 611 l 556 608 l 676 611 l 676 576 l 654 574 q 556 541 600 567 q 469 465 513 515 l 239 201 m 324 -414 l 310 -392 q 391 -322 357 -362 q 425 -231 425 -281 q 417 -187 425 -208 q 385 -165 408 -165 l 406 -158 l 394 -181 l 388 -168 q 402 -177 397 -168 q 407 -201 407 -186 q 397 -229 407 -215 q 361 -243 386 -243 q 322 -226 338 -243 q 307 -182 307 -208 q 323 -141 307 -158 q 371 -124 339 -124 q 437 -156 415 -124 q 458 -228 458 -187 q 420 -333 458 -285 q 324 -414 382 -381 z "},"l":{"ha":390,"x_min":19,"x_max":372,"o":"m 19 -4 l 19 32 l 42 35 q 104 51 85 40 q 129 88 124 61 q 135 169 135 115 l 135 838 q 112 924 135 900 q 31 950 89 949 l 19 950 l 19 986 q 148 990 93 986 q 256 1003 203 993 l 256 169 q 262 88 256 115 q 288 51 268 61 q 350 35 308 40 l 372 32 l 372 -4 l 196 0 l 19 -4 z "},"ĺ":{"ha":390,"x_min":19,"x_max":372,"o":"m 19 -4 l 19 32 l 42 35 q 104 51 85 40 q 129 88 124 61 q 135 169 135 115 l 135 838 q 112 924 135 900 q 31 950 89 949 l 19 950 l 19 986 q 148 990 93 986 q 256 1003 203 993 l 256 169 q 262 88 256 115 q 288 51 268 61 q 350 35 308 40 l 372 32 l 372 -4 l 196 0 l 19 -4 m 147 1100 l 193 1306 q 222 1366 203 1349 q 260 1383 240 1383 q 296 1370 281 1383 q 311 1331 311 1357 q 305 1298 311 1315 q 288 1264 299 1281 l 181 1100 l 147 1100 z "},"ľ":{"ha":390,"x_min":19,"x_max":483,"o":"m 19 -4 l 19 32 l 42 35 q 104 51 85 40 q 129 88 124 61 q 135 169 135 115 l 135 838 q 112 924 135 900 q 31 950 89 949 l 19 950 l 19 986 q 148 990 93 986 q 256 1003 203 993 l 256 169 q 262 88 256 115 q 288 51 268 61 q 350 35 308 40 l 372 32 l 372 -4 l 196 0 l 19 -4 m 333 740 l 361 986 l 483 986 l 381 740 l 333 740 z "},"ļ":{"ha":390,"x_min":19,"x_max":372,"o":"m 19 -4 l 19 32 l 42 35 q 104 51 85 40 q 129 88 124 61 q 135 169 135 115 l 135 838 q 112 924 135 900 q 31 950 89 949 l 19 950 l 19 986 q 148 990 93 986 q 256 1003 203 993 l 256 169 q 262 88 256 115 q 288 51 268 61 q 350 35 308 40 l 372 32 l 372 -4 l 196 0 l 19 -4 m 146 -411 l 132 -389 q 213 -319 179 -360 q 247 -228 247 -278 q 239 -184 247 -206 q 207 -162 231 -162 l 228 -156 l 217 -178 l 210 -165 q 224 -174 219 -165 q 229 -199 229 -183 q 219 -226 229 -212 q 183 -240 208 -240 q 144 -223 160 -240 q 129 -179 129 -206 q 145 -138 129 -156 q 193 -121 161 -121 q 259 -153 238 -121 q 281 -225 281 -185 q 242 -330 281 -282 q 146 -411 204 -378 z "},"ŀ":{"ha":546,"x_min":19,"x_max":563,"o":"m 19 -4 l 19 32 l 42 35 q 104 51 85 40 q 129 88 124 61 q 135 169 135 115 l 135 838 q 112 924 135 900 q 31 950 89 949 l 19 950 l 19 986 q 148 990 93 986 q 256 1003 203 993 l 256 169 q 262 88 256 115 q 288 51 268 61 q 350 35 308 40 l 372 32 l 372 -4 l 196 0 l 19 -4 m 469 406 q 401 432 428 406 q 374 494 374 458 q 401 558 374 531 q 469 585 428 585 q 535 558 508 585 q 563 494 563 531 q 535 432 563 458 q 469 406 508 406 z "},"ł":{"ha":419,"x_min":17,"x_max":404,"o":"m 33 390 l 17 428 l 376 615 l 404 558 l 33 390 m 31 -4 l 31 32 l 54 35 q 115 51 96 40 q 141 88 135 61 q 147 169 147 115 l 147 838 q 124 924 147 900 q 42 950 101 949 l 31 950 l 31 986 q 160 990 106 986 q 268 1003 215 993 l 268 169 q 274 88 268 115 q 301 51 281 61 q 361 35 321 40 l 385 32 l 385 -4 l 208 0 l 31 -4 z "},"m":{"ha":1219,"x_min":33,"x_max":1206,"o":"m 261 506 q 359 600 301 568 q 489 632 417 632 q 630 581 579 632 q 681 438 681 529 l 681 169 q 686 87 681 114 q 708 49 692 60 q 758 35 724 39 l 783 32 l 783 -4 l 621 0 l 457 -4 l 457 32 l 482 35 q 532 50 515 39 q 554 88 549 61 q 560 169 560 115 l 560 450 q 528 544 560 511 q 444 578 497 578 q 336 539 386 578 q 264 435 286 500 l 261 506 m 868 -4 l 868 32 l 892 35 q 942 50 926 39 q 964 89 958 61 q 969 169 969 117 l 969 450 q 939 544 969 511 q 854 578 908 578 q 741 535 792 578 q 669 422 690 493 l 638 422 q 685 531 647 483 q 778 605 722 578 q 900 632 835 632 q 1040 581 990 632 q 1090 438 1090 529 l 1090 169 q 1097 88 1090 114 q 1122 51 1103 61 q 1183 35 1142 40 l 1206 32 l 1206 -4 l 1032 0 l 868 -4 m 269 169 q 275 87 269 114 q 297 49 281 60 q 349 35 314 39 l 372 32 l 372 -4 l 204 0 l 33 -4 l 33 32 l 56 35 q 117 51 97 40 q 142 88 136 61 q 149 169 149 115 l 149 460 q 124 549 149 525 q 33 574 99 574 l 33 608 q 163 612 110 608 q 268 625 217 615 l 268 518 l 269 513 l 269 169 z "},"n":{"ha":829,"x_min":33,"x_max":815,"o":"m 465 -4 l 465 32 l 490 35 q 548 50 529 39 q 573 89 567 61 q 579 169 579 117 l 579 442 q 547 542 579 507 q 456 578 514 578 q 341 539 393 578 q 264 435 289 500 l 261 503 q 364 599 303 565 q 500 632 425 632 q 646 583 592 632 q 700 447 700 533 l 700 169 q 706 88 700 115 q 732 51 713 61 q 793 35 751 40 l 815 32 l 815 -4 l 640 0 l 465 -4 m 33 -4 l 33 32 l 56 35 q 117 51 97 40 q 142 88 136 61 q 149 169 149 115 l 149 460 q 125 548 149 522 q 44 574 101 574 l 33 574 l 33 608 q 163 612 110 608 q 268 625 217 615 l 268 514 l 269 511 l 269 169 q 276 88 269 115 q 301 50 282 61 q 358 35 319 39 l 383 32 l 383 -4 l 208 0 l 33 -4 z "},"ń":{"ha":829,"x_min":33,"x_max":815,"o":"m 465 -4 l 465 32 l 490 35 q 548 50 529 39 q 573 89 567 61 q 579 169 579 117 l 579 442 q 547 542 579 507 q 456 578 514 578 q 341 539 393 578 q 264 435 289 500 l 261 503 q 364 599 303 565 q 500 632 425 632 q 646 583 592 632 q 700 447 700 533 l 700 169 q 706 88 700 115 q 732 51 713 61 q 793 35 751 40 l 815 32 l 815 -4 l 640 0 l 465 -4 m 33 -4 l 33 32 l 56 35 q 117 51 97 40 q 142 88 136 61 q 149 169 149 115 l 149 460 q 125 548 149 522 q 44 574 101 574 l 33 574 l 33 608 q 163 612 110 608 q 268 625 217 615 l 268 514 l 269 511 l 269 169 q 276 88 269 115 q 301 50 282 61 q 358 35 319 39 l 383 32 l 383 -4 l 208 0 l 33 -4 m 383 722 l 429 928 q 458 988 439 971 q 496 1006 476 1006 q 532 992 517 1006 q 547 953 547 979 q 541 920 547 938 q 524 886 535 903 l 417 722 l 383 722 z "},"ň":{"ha":829,"x_min":33,"x_max":815,"o":"m 465 -4 l 465 32 l 490 35 q 548 50 529 39 q 573 89 567 61 q 579 169 579 117 l 579 442 q 547 542 579 507 q 456 578 514 578 q 341 539 393 578 q 264 435 289 500 l 261 503 q 364 599 303 565 q 500 632 425 632 q 646 583 592 632 q 700 447 700 533 l 700 169 q 706 88 700 115 q 732 51 713 61 q 793 35 751 40 l 815 32 l 815 -4 l 640 0 l 465 -4 m 33 -4 l 33 32 l 56 35 q 117 51 97 40 q 142 88 136 61 q 149 169 149 115 l 149 460 q 125 548 149 522 q 44 574 101 574 l 33 574 l 33 608 q 163 612 110 608 q 268 625 217 615 l 268 514 l 269 511 l 269 169 q 276 88 269 115 q 301 50 282 61 q 358 35 319 39 l 383 32 l 383 -4 l 208 0 l 33 -4 m 407 722 l 279 986 l 317 986 l 428 850 l 436 850 l 547 986 l 585 986 l 457 722 l 407 722 z "},"ņ":{"ha":829,"x_min":33,"x_max":815,"o":"m 465 -4 l 465 32 l 490 35 q 548 50 529 39 q 573 89 567 61 q 579 169 579 117 l 579 442 q 547 542 579 507 q 456 578 514 578 q 341 539 393 578 q 264 435 289 500 l 261 503 q 364 599 303 565 q 500 632 425 632 q 646 583 592 632 q 700 447 700 533 l 700 169 q 706 88 700 115 q 732 51 713 61 q 793 35 751 40 l 815 32 l 815 -4 l 640 0 l 465 -4 m 33 -4 l 33 32 l 56 35 q 117 51 97 40 q 142 88 136 61 q 149 169 149 115 l 149 460 q 125 548 149 522 q 44 574 101 574 l 33 574 l 33 608 q 163 612 110 608 q 268 625 217 615 l 268 514 l 269 511 l 269 169 q 276 88 269 115 q 301 50 282 61 q 358 35 319 39 l 383 32 l 383 -4 l 208 0 l 33 -4 m 367 -411 l 353 -389 q 434 -319 400 -360 q 468 -228 468 -278 q 460 -184 468 -206 q 428 -162 451 -162 l 449 -156 l 438 -178 l 431 -165 q 445 -174 440 -165 q 450 -199 450 -183 q 440 -226 450 -212 q 404 -240 429 -240 q 365 -223 381 -240 q 350 -179 350 -206 q 366 -138 350 -156 q 414 -121 382 -121 q 480 -153 458 -121 q 501 -225 501 -185 q 463 -330 501 -282 q 367 -411 425 -378 z "},"ñ":{"ha":829,"x_min":33,"x_max":815,"o":"m 465 -4 l 465 32 l 490 35 q 548 50 529 39 q 573 89 567 61 q 579 169 579 117 l 579 442 q 547 542 579 507 q 456 578 514 578 q 341 539 393 578 q 264 435 289 500 l 261 503 q 364 599 303 565 q 500 632 425 632 q 646 583 592 632 q 700 447 700 533 l 700 169 q 706 88 700 115 q 732 51 713 61 q 793 35 751 40 l 815 32 l 815 -4 l 640 0 l 465 -4 m 33 -4 l 33 32 l 56 35 q 117 51 97 40 q 142 88 136 61 q 149 169 149 115 l 149 460 q 125 548 149 522 q 44 574 101 574 l 33 574 l 33 608 q 163 612 110 608 q 268 625 217 615 l 268 514 l 269 511 l 269 169 q 276 88 269 115 q 301 50 282 61 q 358 35 319 39 l 383 32 l 383 -4 l 208 0 l 33 -4 m 536 769 q 488 781 511 769 q 446 801 464 792 l 400 826 q 358 849 378 840 q 319 858 338 858 q 267 834 288 858 q 240 785 246 810 l 211 785 q 224 849 211 813 q 263 912 236 885 q 333 939 290 939 q 383 926 358 939 q 425 906 408 914 l 479 874 q 513 858 493 868 q 551 849 533 849 q 598 868 579 849 q 624 917 617 888 l 653 917 q 617 810 649 850 q 536 769 585 769 z "},"ŋ":{"ha":826,"x_min":33,"x_max":700,"o":"m 488 -410 q 376 -381 417 -410 q 335 -300 335 -351 q 356 -241 335 -262 q 411 -219 376 -219 q 463 -236 443 -219 q 483 -279 483 -253 q 483 -294 483 -287 q 478 -311 482 -300 q 475 -333 476 -325 q 474 -344 474 -340 q 508 -375 474 -375 q 561 -331 543 -375 q 579 -201 579 -287 l 579 442 q 547 542 579 507 q 454 578 515 578 q 338 536 393 578 q 260 426 283 494 l 228 426 q 281 533 242 486 q 378 606 321 579 q 500 632 436 632 q 646 583 592 632 q 700 447 700 533 l 700 -194 q 644 -352 700 -294 q 488 -410 588 -410 m 33 -4 l 33 32 l 56 35 q 117 51 97 40 q 142 88 136 61 q 149 169 149 115 l 149 460 q 125 548 149 522 q 44 574 101 574 l 33 574 l 33 608 q 161 612 107 608 q 268 625 215 615 l 268 500 l 269 490 l 269 169 q 276 88 269 115 q 301 50 282 61 q 358 35 319 39 l 383 32 l 383 -4 l 211 0 l 33 -4 z "},"o":{"ha":767,"x_min":56,"x_max":711,"o":"m 383 -17 q 217 26 292 -17 q 99 143 143 69 q 56 307 56 217 q 99 472 56 399 q 217 589 143 546 q 383 632 292 632 q 551 589 476 632 q 668 472 625 546 q 711 307 711 399 q 667 143 711 217 q 549 26 624 69 q 383 -17 475 -17 m 383 22 q 526 96 476 22 q 576 307 576 169 q 527 520 576 446 q 383 594 478 594 q 240 520 290 594 q 190 307 190 446 q 240 96 190 169 q 383 22 290 22 z "},"ó":{"ha":767,"x_min":56,"x_max":711,"o":"m 383 -17 q 217 26 292 -17 q 99 143 143 69 q 56 307 56 217 q 99 472 56 399 q 217 589 143 546 q 383 632 292 632 q 551 589 476 632 q 668 472 625 546 q 711 307 711 399 q 667 143 711 217 q 549 26 624 69 q 383 -17 475 -17 m 383 22 q 526 96 476 22 q 576 307 576 169 q 527 520 576 446 q 383 594 478 594 q 240 520 290 594 q 190 307 190 446 q 240 96 190 169 q 383 22 290 22 m 336 722 l 382 928 q 410 988 392 971 q 449 1006 429 1006 q 485 992 469 1006 q 500 953 500 979 q 494 920 500 938 q 476 886 488 903 l 369 722 l 336 722 z "},"ǒ":{"ha":767,"x_min":56,"x_max":711,"o":"m 383 -17 q 217 26 292 -17 q 99 143 143 69 q 56 307 56 217 q 99 472 56 399 q 217 589 143 546 q 383 632 292 632 q 551 589 476 632 q 668 472 625 546 q 711 307 711 399 q 667 143 711 217 q 549 26 624 69 q 383 -17 475 -17 m 383 22 q 526 96 476 22 q 576 307 576 169 q 527 520 576 446 q 383 594 478 594 q 240 520 290 594 q 190 307 190 446 q 240 96 190 169 q 383 22 290 22 m 358 722 l 231 986 l 268 986 l 379 850 l 388 850 l 499 986 l 536 986 l 408 722 l 358 722 z "},"ô":{"ha":767,"x_min":56,"x_max":711,"o":"m 383 -17 q 217 26 292 -17 q 99 143 143 69 q 56 307 56 217 q 99 472 56 399 q 217 589 143 546 q 383 632 292 632 q 551 589 476 632 q 668 472 625 546 q 711 307 711 399 q 667 143 711 217 q 549 26 624 69 q 383 -17 475 -17 m 383 22 q 526 96 476 22 q 576 307 576 169 q 527 520 576 446 q 383 594 478 594 q 240 520 290 594 q 190 307 190 446 q 240 96 190 169 q 383 22 290 22 m 231 722 l 358 986 l 408 986 l 536 722 l 499 722 l 388 858 l 379 858 l 268 722 l 231 722 z "},"ö":{"ha":767,"x_min":56,"x_max":711,"o":"m 383 -17 q 217 26 292 -17 q 99 143 143 69 q 56 307 56 217 q 99 472 56 399 q 217 589 143 546 q 383 632 292 632 q 551 589 476 632 q 668 472 625 546 q 711 307 711 399 q 667 143 711 217 q 549 26 624 69 q 383 -17 475 -17 m 383 22 q 526 96 476 22 q 576 307 576 169 q 527 520 576 446 q 383 594 478 594 q 240 520 290 594 q 190 307 190 446 q 240 96 190 169 q 383 22 290 22 m 249 774 q 191 797 211 774 q 171 856 171 821 q 191 913 171 889 q 249 936 211 936 q 306 913 288 936 q 324 856 324 889 q 306 797 324 821 q 249 774 288 774 m 518 774 q 462 797 482 774 q 442 856 442 821 q 462 913 442 889 q 518 936 482 936 q 576 913 558 936 q 594 856 594 889 q 576 797 594 821 q 518 774 558 774 z "},"ò":{"ha":767,"x_min":56,"x_max":711,"o":"m 383 -17 q 217 26 292 -17 q 99 143 143 69 q 56 307 56 217 q 99 472 56 399 q 217 589 143 546 q 383 632 292 632 q 551 589 476 632 q 668 472 625 546 q 711 307 711 399 q 667 143 711 217 q 549 26 624 69 q 383 -17 475 -17 m 383 22 q 526 96 476 22 q 576 307 576 169 q 527 520 576 446 q 383 594 478 594 q 240 520 290 594 q 190 307 190 446 q 240 96 190 169 q 383 22 290 22 m 388 722 l 281 886 q 264 920 271 903 q 257 953 257 938 q 272 992 257 979 q 308 1006 288 1006 q 347 988 328 1006 q 375 928 365 971 l 421 722 l 388 722 z "},"ő":{"ha":767,"x_min":56,"x_max":711,"o":"m 383 -17 q 217 26 292 -17 q 99 143 143 69 q 56 307 56 217 q 99 472 56 399 q 217 589 143 546 q 383 632 292 632 q 551 589 476 632 q 668 472 625 546 q 711 307 711 399 q 667 143 711 217 q 549 26 624 69 q 383 -17 475 -17 m 383 22 q 526 96 476 22 q 576 307 576 169 q 527 520 576 446 q 383 594 478 594 q 240 520 290 594 q 190 307 190 446 q 240 96 190 169 q 383 22 290 22 m 267 722 l 318 928 q 345 989 328 972 q 381 1006 363 1006 q 415 992 401 1006 q 429 954 429 978 q 424 921 429 938 q 407 888 418 904 l 300 722 l 267 722 m 447 722 l 499 928 q 526 989 508 972 q 561 1006 543 1006 q 596 992 582 1006 q 610 954 610 978 q 604 921 610 938 q 588 888 599 904 l 481 722 l 447 722 z "},"ō":{"ha":767,"x_min":56,"x_max":711,"o":"m 383 -17 q 217 26 292 -17 q 99 143 143 69 q 56 307 56 217 q 99 472 56 399 q 217 589 143 546 q 383 632 292 632 q 551 589 476 632 q 668 472 625 546 q 711 307 711 399 q 667 143 711 217 q 549 26 624 69 q 383 -17 475 -17 m 383 22 q 526 96 476 22 q 576 307 576 169 q 527 520 576 446 q 383 594 478 594 q 240 520 290 594 q 190 307 190 446 q 240 96 190 169 q 383 22 290 22 m 218 792 l 218 861 l 547 861 l 547 792 l 218 792 z "},"ø":{"ha":767,"x_min":56,"x_max":711,"o":"m 383 -17 q 217 26 292 -17 q 99 143 143 69 q 56 307 56 217 q 99 472 56 399 q 217 589 143 546 q 383 632 292 632 q 551 589 476 632 q 668 472 625 546 q 711 307 711 399 q 667 143 711 217 q 549 26 624 69 q 383 -17 475 -17 m 383 22 q 526 96 476 22 q 576 307 576 169 q 527 520 576 446 q 383 594 478 594 q 240 520 290 594 q 190 307 190 446 q 240 96 190 169 q 383 22 290 22 m 104 -64 l 72 -36 l 663 679 l 693 653 l 104 -64 z "},"õ":{"ha":767,"x_min":56,"x_max":711,"o":"m 383 -17 q 217 26 292 -17 q 99 143 143 69 q 56 307 56 217 q 99 472 56 399 q 217 589 143 546 q 383 632 292 632 q 551 589 476 632 q 668 472 625 546 q 711 307 711 399 q 667 143 711 217 q 549 26 624 69 q 383 -17 475 -17 m 383 22 q 526 96 476 22 q 576 307 576 169 q 527 520 576 446 q 383 594 478 594 q 240 520 290 594 q 190 307 190 446 q 240 96 190 169 q 383 22 290 22 m 488 769 q 439 781 463 769 q 397 801 415 792 l 351 826 q 309 849 329 840 q 271 858 289 858 q 218 834 239 858 q 192 785 197 810 l 163 785 q 175 849 163 813 q 215 912 188 885 q 285 939 242 939 q 335 926 310 939 q 376 906 360 914 l 431 874 q 465 858 444 868 q 503 849 485 849 q 549 868 531 849 q 575 917 568 888 l 604 917 q 568 810 600 850 q 488 769 536 769 z "},"œ":{"ha":1189,"x_min":56,"x_max":1144,"o":"m 383 -17 q 217 26 292 -17 q 99 143 143 69 q 56 307 56 217 q 99 472 56 399 q 217 589 143 546 q 383 632 292 632 q 551 589 476 632 q 668 472 625 546 q 711 307 711 399 q 667 143 711 217 q 549 26 624 69 q 383 -17 475 -17 m 383 22 q 526 96 476 22 q 576 307 576 169 q 527 520 576 446 q 383 594 478 594 q 240 520 290 594 q 190 307 190 446 q 240 96 190 169 q 383 22 290 22 m 892 -17 q 728 23 799 -17 q 617 133 657 63 q 578 297 578 204 q 619 469 578 393 q 732 588 661 544 q 892 632 803 632 q 1067 565 1001 632 q 1133 385 1133 497 q 1133 358 1133 371 q 1129 338 1132 344 l 688 338 l 690 374 l 892 374 q 1014 469 1014 374 q 978 558 1014 522 q 888 594 942 594 q 760 518 808 594 q 713 317 713 442 q 767 109 713 185 q 918 33 822 33 q 1033 69 983 33 q 1108 174 1082 106 l 1144 158 q 892 -17 1082 -17 z "},"p":{"ha":794,"x_min":21,"x_max":739,"o":"m 21 -393 l 21 -357 l 44 -354 q 106 -338 86 -349 q 131 -301 125 -328 q 138 -219 138 -274 l 138 464 q 113 550 138 526 q 21 574 88 574 l 21 608 q 133 613 78 608 q 257 629 189 618 l 247 535 l 257 519 l 258 -219 q 264 -301 258 -274 q 290 -338 269 -328 q 351 -354 311 -349 l 375 -357 l 375 -393 l 197 -389 l 21 -393 m 456 -17 q 332 13 390 -17 q 231 94 274 42 l 244 139 q 326 63 276 92 q 428 33 376 33 q 557 106 510 33 q 604 307 604 179 q 557 510 604 438 q 426 582 510 582 q 335 558 379 582 q 246 485 290 535 l 226 511 q 333 602 276 572 q 456 632 390 632 q 601 590 538 632 q 701 474 664 547 q 739 307 739 401 q 701 142 739 215 q 601 26 664 69 q 456 -17 538 -17 z "},"þ":{"ha":794,"x_min":21,"x_max":739,"o":"m 21 -393 l 21 -358 l 44 -354 q 106 -338 86 -349 q 131 -301 125 -328 q 138 -221 138 -274 l 138 840 q 113 925 138 903 q 21 950 89 947 l 21 986 q 139 990 83 986 q 258 1006 194 994 l 258 -221 q 264 -301 258 -274 q 290 -338 269 -328 q 351 -354 311 -349 l 375 -358 l 375 -393 l 197 -389 l 21 -393 m 450 -17 q 239 88 324 -17 l 246 138 q 330 60 282 88 q 428 33 378 33 q 558 106 511 33 q 604 308 604 178 q 558 514 604 440 q 429 588 511 588 q 333 560 381 588 q 246 482 285 533 l 242 532 q 451 632 324 632 q 599 590 533 632 q 701 474 664 549 q 739 307 739 400 q 701 141 739 214 q 599 26 664 68 q 450 -17 533 -17 z "},"q":{"ha":761,"x_min":56,"x_max":769,"o":"m 417 -393 l 417 -357 l 439 -354 q 501 -338 482 -349 q 527 -301 521 -328 q 533 -219 533 -274 l 533 544 l 629 626 l 654 626 l 654 -219 q 660 -301 654 -274 q 685 -338 665 -328 q 747 -354 706 -349 l 769 -357 l 769 -393 l 593 -389 l 417 -393 m 338 -17 q 193 26 257 -17 q 92 143 129 69 q 56 308 56 217 q 92 474 56 401 q 193 590 129 547 q 338 632 257 632 q 463 603 404 632 q 564 522 521 575 l 550 478 q 469 554 519 526 q 365 582 418 582 q 238 510 285 582 q 190 308 190 438 q 238 107 190 181 q 367 33 285 33 q 460 58 414 33 q 549 132 506 83 l 568 106 q 338 -17 471 -17 z "},"r":{"ha":564,"x_min":33,"x_max":540,"o":"m 33 -4 l 33 32 l 56 35 q 117 51 97 40 q 142 88 136 61 q 149 169 149 115 l 149 457 q 124 549 149 525 q 33 574 100 574 l 33 608 q 152 613 97 608 q 268 625 207 617 l 253 464 l 269 464 l 269 169 q 276 88 269 115 q 303 50 283 61 q 360 35 322 39 l 386 32 l 386 -4 l 204 0 l 33 -4 m 267 364 l 250 435 q 328 587 279 542 q 439 632 376 632 q 517 603 494 632 q 540 542 540 575 q 520 485 540 507 q 464 464 500 464 q 419 478 436 464 q 401 515 401 493 q 403 528 401 522 q 406 543 404 533 q 408 553 407 549 q 408 561 408 557 q 389 576 408 576 q 340 548 364 576 q 296 472 315 519 q 267 364 276 424 z "},"ŕ":{"ha":564,"x_min":33,"x_max":540,"o":"m 33 -4 l 33 32 l 56 35 q 117 51 97 40 q 142 88 136 61 q 149 169 149 115 l 149 457 q 124 549 149 525 q 33 574 100 574 l 33 608 q 152 613 97 608 q 268 625 207 617 l 253 464 l 269 464 l 269 169 q 276 88 269 115 q 303 50 283 61 q 360 35 322 39 l 386 32 l 386 -4 l 204 0 l 33 -4 m 267 364 l 250 435 q 328 587 279 542 q 439 632 376 632 q 517 603 494 632 q 540 542 540 575 q 520 485 540 507 q 464 464 500 464 q 419 478 436 464 q 401 515 401 493 q 403 528 401 522 q 406 543 404 533 q 408 553 407 549 q 408 561 408 557 q 389 576 408 576 q 340 548 364 576 q 296 472 315 519 q 267 364 276 424 m 214 722 l 260 928 q 288 988 269 971 q 326 1006 307 1006 q 363 992 347 1006 q 378 953 378 979 q 372 920 378 938 q 354 886 365 903 l 247 722 l 214 722 z "},"ř":{"ha":564,"x_min":33,"x_max":540,"o":"m 33 -4 l 33 32 l 56 35 q 117 51 97 40 q 142 88 136 61 q 149 169 149 115 l 149 457 q 124 549 149 525 q 33 574 100 574 l 33 608 q 152 613 97 608 q 268 625 207 617 l 253 464 l 269 464 l 269 169 q 276 88 269 115 q 303 50 283 61 q 360 35 322 39 l 386 32 l 386 -4 l 204 0 l 33 -4 m 267 364 l 250 435 q 328 587 279 542 q 439 632 376 632 q 517 603 494 632 q 540 542 540 575 q 520 485 540 507 q 464 464 500 464 q 419 478 436 464 q 401 515 401 493 q 403 528 401 522 q 406 543 404 533 q 408 553 407 549 q 408 561 408 557 q 389 576 408 576 q 340 548 364 576 q 296 472 315 519 q 267 364 276 424 m 238 722 l 110 986 l 147 986 l 258 850 l 267 850 l 378 986 l 415 986 l 288 722 l 238 722 z "},"ŗ":{"ha":564,"x_min":33,"x_max":540,"o":"m 33 -4 l 33 32 l 56 35 q 117 51 97 40 q 142 88 136 61 q 149 169 149 115 l 149 457 q 124 549 149 525 q 33 574 100 574 l 33 608 q 152 613 97 608 q 268 625 207 617 l 253 464 l 269 464 l 269 169 q 276 88 269 115 q 303 50 283 61 q 360 35 322 39 l 386 32 l 386 -4 l 204 0 l 33 -4 m 267 364 l 250 435 q 328 587 279 542 q 439 632 376 632 q 517 603 494 632 q 540 542 540 575 q 520 485 540 507 q 464 464 500 464 q 419 478 436 464 q 401 515 401 493 q 403 528 401 522 q 406 543 404 533 q 408 553 407 549 q 408 561 408 557 q 389 576 408 576 q 340 548 364 576 q 296 472 315 519 q 267 364 276 424 m 158 -411 l 144 -389 q 226 -319 192 -360 q 260 -228 260 -278 q 251 -184 260 -206 q 219 -162 243 -162 l 240 -156 l 229 -178 l 222 -165 q 237 -174 232 -165 q 242 -199 242 -183 q 231 -226 242 -212 q 196 -240 221 -240 q 157 -223 172 -240 q 142 -179 142 -206 q 158 -138 142 -156 q 206 -121 174 -121 q 272 -153 250 -121 q 293 -225 293 -185 q 255 -330 293 -282 q 158 -411 217 -378 z "},"s":{"ha":565,"x_min":65,"x_max":513,"o":"m 303 -17 q 161 15 233 -17 q 135 27 144 24 q 121 31 126 31 q 108 24 113 31 q 101 0 104 18 l 65 0 l 71 92 l 75 214 l 108 214 l 113 186 q 147 103 119 140 q 217 44 175 67 q 306 21 260 21 q 394 49 360 21 q 428 124 428 78 q 397 192 428 163 q 297 247 367 221 l 238 269 q 122 341 158 299 q 85 446 85 383 q 110 543 85 501 q 181 609 136 585 q 283 633 226 633 q 331 629 308 633 q 382 611 353 625 q 417 601 406 601 q 440 631 433 601 l 475 629 l 469 539 l 469 438 l 435 438 q 378 554 418 513 q 281 596 338 596 q 206 569 235 596 q 176 499 176 542 q 205 432 176 461 q 294 381 233 403 l 356 357 q 476 283 439 326 q 513 174 513 240 q 455 36 513 89 q 303 -17 397 -17 z "},"ś":{"ha":565,"x_min":65,"x_max":513,"o":"m 303 -17 q 161 15 233 -17 q 135 27 144 24 q 121 31 126 31 q 108 24 113 31 q 101 0 104 18 l 65 0 l 71 92 l 75 214 l 108 214 l 113 186 q 147 103 119 140 q 217 44 175 67 q 306 21 260 21 q 394 49 360 21 q 428 124 428 78 q 397 192 428 163 q 297 247 367 221 l 238 269 q 122 341 158 299 q 85 446 85 383 q 110 543 85 501 q 181 609 136 585 q 283 633 226 633 q 331 629 308 633 q 382 611 353 625 q 417 601 406 601 q 440 631 433 601 l 475 629 l 469 539 l 469 438 l 435 438 q 378 554 418 513 q 281 596 338 596 q 206 569 235 596 q 176 499 176 542 q 205 432 176 461 q 294 381 233 403 l 356 357 q 476 283 439 326 q 513 174 513 240 q 455 36 513 89 q 303 -17 397 -17 m 243 722 l 289 928 q 317 988 299 971 q 356 1006 336 1006 q 392 992 376 1006 q 407 953 407 979 q 401 920 407 938 q 383 886 394 903 l 276 722 l 243 722 z "},"š":{"ha":565,"x_min":65,"x_max":513,"o":"m 303 -17 q 161 15 233 -17 q 135 27 144 24 q 121 31 126 31 q 108 24 113 31 q 101 0 104 18 l 65 0 l 71 92 l 75 214 l 108 214 l 113 186 q 147 103 119 140 q 217 44 175 67 q 306 21 260 21 q 394 49 360 21 q 428 124 428 78 q 397 192 428 163 q 297 247 367 221 l 238 269 q 122 341 158 299 q 85 446 85 383 q 110 543 85 501 q 181 609 136 585 q 283 633 226 633 q 331 629 308 633 q 382 611 353 625 q 417 601 406 601 q 440 631 433 601 l 475 629 l 469 539 l 469 438 l 435 438 q 378 554 418 513 q 281 596 338 596 q 206 569 235 596 q 176 499 176 542 q 205 432 176 461 q 294 381 233 403 l 356 357 q 476 283 439 326 q 513 174 513 240 q 455 36 513 89 q 303 -17 397 -17 m 265 722 l 138 986 l 175 986 l 286 850 l 294 850 l 406 986 l 443 986 l 315 722 l 265 722 z "},"ş":{"ha":565,"x_min":65,"x_max":513,"o":"m 303 -17 q 161 15 233 -17 q 135 27 144 24 q 121 31 126 31 q 108 24 113 31 q 101 0 104 18 l 65 0 l 71 92 l 75 214 l 108 214 l 113 186 q 147 103 119 140 q 217 44 175 67 q 306 21 260 21 q 394 49 360 21 q 428 124 428 78 q 397 192 428 163 q 297 247 367 221 l 238 269 q 122 341 158 299 q 85 446 85 383 q 110 543 85 501 q 181 609 136 585 q 283 633 226 633 q 331 629 308 633 q 382 611 353 625 q 417 601 406 601 q 440 631 433 601 l 475 629 l 469 539 l 469 438 l 435 438 q 378 554 418 513 q 281 596 338 596 q 206 569 235 596 q 176 499 176 542 q 205 432 176 461 q 294 381 233 403 l 356 357 q 476 283 439 326 q 513 174 513 240 q 455 36 513 89 q 303 -17 397 -17 m 244 -406 q 147 -369 182 -406 q 101 -292 111 -332 l 133 -282 q 167 -339 140 -314 q 235 -364 194 -364 q 305 -324 279 -364 q 331 -232 331 -285 q 306 -150 331 -182 q 239 -118 282 -118 q 194 -133 217 -118 q 156 -171 171 -147 l 126 -151 q 185 -94 149 -112 q 263 -79 221 -76 q 338 -101 306 -81 q 390 -158 371 -122 q 410 -235 410 -193 q 387 -324 410 -286 q 326 -384 364 -362 q 244 -406 289 -406 m 285 -97 l 243 -93 l 275 0 l 319 0 l 285 -97 z "},"ș":{"ha":565,"x_min":65,"x_max":513,"o":"m 303 -17 q 161 15 233 -17 q 135 27 144 24 q 121 31 126 31 q 108 24 113 31 q 101 0 104 18 l 65 0 l 71 92 l 75 214 l 108 214 l 113 186 q 147 103 119 140 q 217 44 175 67 q 306 21 260 21 q 394 49 360 21 q 428 124 428 78 q 397 192 428 163 q 297 247 367 221 l 238 269 q 122 341 158 299 q 85 446 85 383 q 110 543 85 501 q 181 609 136 585 q 283 633 226 633 q 331 629 308 633 q 382 611 353 625 q 417 601 406 601 q 440 631 433 601 l 475 629 l 469 539 l 469 438 l 435 438 q 378 554 418 513 q 281 596 338 596 q 206 569 235 596 q 176 499 176 542 q 205 432 176 461 q 294 381 233 403 l 356 357 q 476 283 439 326 q 513 174 513 240 q 455 36 513 89 q 303 -17 397 -17 m 247 -411 l 233 -389 q 315 -319 281 -360 q 349 -228 349 -278 q 340 -184 349 -206 q 308 -162 332 -162 l 329 -156 l 318 -178 l 311 -165 q 326 -174 321 -165 q 331 -199 331 -183 q 320 -226 331 -212 q 285 -240 310 -240 q 246 -223 261 -240 q 231 -179 231 -206 q 247 -138 231 -156 q 294 -121 263 -121 q 360 -153 339 -121 q 382 -225 382 -185 q 344 -330 382 -282 q 247 -411 306 -378 z "},"ß":{"ha":861,"x_min":29,"x_max":810,"o":"m 571 -17 q 458 2 508 -17 q 377 54 407 21 q 347 128 347 88 q 368 185 347 163 q 424 207 389 207 q 473 190 454 207 q 492 147 492 172 q 490 133 492 142 q 486 115 489 124 q 481 85 481 99 q 508 40 481 57 q 578 22 535 22 q 683 59 643 22 q 724 156 724 96 q 701 224 724 192 q 617 299 679 257 l 500 378 q 425 442 447 411 q 403 513 403 474 q 415 569 403 542 q 464 647 426 597 l 494 692 q 531 756 519 725 q 543 817 543 786 q 507 926 543 886 q 408 967 471 967 q 304 915 340 967 q 268 764 268 864 l 268 169 q 272 79 268 119 q 282 -1 275 39 l 207 0 l 29 -4 l 29 32 l 53 35 q 114 51 94 40 q 140 88 133 61 q 146 169 146 115 l 146 703 q 212 931 146 856 q 415 1006 278 1006 q 604 960 532 1006 q 676 842 676 915 q 662 785 676 811 q 606 722 647 758 l 564 685 q 515 631 531 656 q 499 582 499 606 q 514 533 499 554 q 568 483 529 511 l 669 417 q 779 311 749 361 q 810 194 810 261 q 779 87 810 135 q 696 11 749 39 q 571 -17 643 -17 m 32 571 l 32 608 l 181 608 l 181 571 l 32 571 z "},"t":{"ha":485,"x_min":35,"x_max":474,"o":"m 300 -15 q 181 31 222 -15 q 139 164 139 76 l 139 569 l 35 569 l 35 608 l 72 613 q 172 660 136 619 q 218 783 207 701 l 260 783 l 260 156 q 279 72 260 100 q 338 43 299 43 q 394 63 371 43 q 440 126 418 83 l 474 110 q 453 72 465 90 q 428 38 442 53 q 300 -15 379 -15 m 250 569 l 250 608 l 435 608 l 435 569 l 250 569 z "},"ŧ":{"ha":485,"x_min":35,"x_max":474,"o":"m 35 410 l 35 449 l 435 449 l 435 410 l 35 410 m 300 -15 q 181 31 222 -15 q 139 164 139 76 l 139 569 l 35 569 l 35 608 l 72 613 q 172 660 136 619 q 218 783 207 701 l 260 783 l 260 156 q 279 72 260 100 q 338 43 299 43 q 394 63 371 43 q 440 126 418 83 l 474 110 q 453 72 465 90 q 428 38 442 53 q 300 -15 379 -15 m 250 569 l 250 608 l 435 608 l 435 569 l 250 569 z "},"ť":{"ha":485,"x_min":35,"x_max":496,"o":"m 300 -15 q 181 31 222 -15 q 139 164 139 76 l 139 569 l 35 569 l 35 608 l 72 613 q 172 660 136 619 q 218 783 207 701 l 260 783 l 260 156 q 279 72 260 100 q 338 43 299 43 q 394 63 371 43 q 440 126 418 83 l 474 110 q 453 72 465 90 q 428 38 442 53 q 300 -15 379 -15 m 250 569 l 250 608 l 435 608 l 435 569 l 250 569 m 346 740 l 374 986 l 496 986 l 393 740 l 346 740 z "},"ţ":{"ha":485,"x_min":35,"x_max":474,"o":"m 300 -15 q 181 31 222 -15 q 139 164 139 76 l 139 569 l 35 569 l 35 608 l 72 613 q 172 660 136 619 q 218 783 207 701 l 260 783 l 260 156 q 279 72 260 100 q 338 43 299 43 q 394 63 371 43 q 440 126 418 83 l 474 110 q 453 72 465 90 q 428 38 442 53 q 300 -15 379 -15 m 250 569 l 250 608 l 435 608 l 435 569 l 250 569 m 232 -406 q 134 -369 169 -406 q 89 -292 99 -332 l 121 -282 q 155 -339 128 -314 q 222 -364 182 -364 q 292 -324 267 -364 q 318 -232 318 -285 q 294 -150 318 -182 q 226 -118 269 -118 q 181 -133 204 -118 q 143 -171 158 -147 l 114 -151 q 172 -94 136 -112 q 250 -79 208 -76 q 326 -101 293 -81 q 378 -158 358 -122 q 397 -235 397 -193 q 374 -324 397 -286 q 314 -384 351 -362 q 232 -406 276 -406 m 272 -97 l 231 -93 l 263 0 l 307 0 l 272 -97 z "},"ț":{"ha":485,"x_min":35,"x_max":474,"o":"m 300 -15 q 181 31 222 -15 q 139 164 139 76 l 139 569 l 35 569 l 35 608 l 72 613 q 172 660 136 619 q 218 783 207 701 l 260 783 l 260 156 q 279 72 260 100 q 338 43 299 43 q 394 63 371 43 q 440 126 418 83 l 474 110 q 453 72 465 90 q 428 38 442 53 q 300 -15 379 -15 m 250 569 l 250 608 l 435 608 l 435 569 l 250 569 m 233 -411 l 219 -389 q 301 -319 267 -360 q 335 -228 335 -278 q 326 -184 335 -206 q 294 -162 318 -162 l 315 -156 l 304 -178 l 297 -165 q 312 -174 307 -165 q 317 -199 317 -183 q 306 -226 317 -212 q 271 -240 296 -240 q 232 -223 247 -240 q 217 -179 217 -206 q 233 -138 217 -156 q 281 -121 249 -121 q 347 -153 325 -121 q 368 -225 368 -185 q 330 -330 368 -282 q 233 -411 292 -378 z "},"u":{"ha":803,"x_min":13,"x_max":790,"o":"m 322 -17 q 179 32 231 -17 q 128 165 128 81 l 128 460 q 106 547 128 521 q 26 574 83 572 l 13 574 l 13 608 q 134 612 76 608 q 249 625 192 615 l 249 174 q 281 75 249 110 q 369 40 313 40 q 483 81 431 40 q 567 196 536 122 l 600 190 q 569 124 586 153 q 529 72 551 94 q 322 -17 447 -17 m 558 -12 l 558 460 q 535 547 558 521 q 456 574 513 572 l 442 574 l 442 608 q 565 612 507 608 q 679 625 622 615 l 679 156 q 703 63 679 88 q 790 36 726 38 l 790 0 q 692 -1 731 0 q 622 -4 653 -1 q 558 -12 592 -7 z "},"ú":{"ha":803,"x_min":13,"x_max":790,"o":"m 322 -17 q 179 32 231 -17 q 128 165 128 81 l 128 460 q 106 547 128 521 q 26 574 83 572 l 13 574 l 13 608 q 134 612 76 608 q 249 625 192 615 l 249 174 q 281 75 249 110 q 369 40 313 40 q 483 81 431 40 q 567 196 536 122 l 600 190 q 569 124 586 153 q 529 72 551 94 q 322 -17 447 -17 m 558 -12 l 558 460 q 535 547 558 521 q 456 574 513 572 l 442 574 l 442 608 q 565 612 507 608 q 679 625 622 615 l 679 156 q 703 63 679 88 q 790 36 726 38 l 790 0 q 692 -1 731 0 q 622 -4 653 -1 q 558 -12 592 -7 m 318 722 l 364 928 q 392 988 374 971 q 431 1006 411 1006 q 467 992 451 1006 q 482 953 482 979 q 476 920 482 938 q 458 886 469 903 l 351 722 l 318 722 z "},"ŭ":{"ha":803,"x_min":13,"x_max":790,"o":"m 322 -17 q 179 32 231 -17 q 128 165 128 81 l 128 460 q 106 547 128 521 q 26 574 83 572 l 13 574 l 13 608 q 134 612 76 608 q 249 625 192 615 l 249 174 q 281 75 249 110 q 369 40 313 40 q 483 81 431 40 q 567 196 536 122 l 600 190 q 569 124 586 153 q 529 72 551 94 q 322 -17 447 -17 m 558 -12 l 558 460 q 535 547 558 521 q 456 574 513 572 l 442 574 l 442 608 q 565 612 507 608 q 679 625 622 615 l 679 156 q 703 63 679 88 q 790 36 726 38 l 790 0 q 692 -1 731 0 q 622 -4 653 -1 q 558 -12 592 -7 m 365 750 q 256 797 292 750 q 221 911 221 843 l 221 960 l 260 960 l 260 950 q 288 865 260 888 q 365 843 315 843 q 443 865 415 843 q 471 950 471 888 l 471 960 l 510 960 l 510 911 q 474 797 510 843 q 365 750 439 750 z "},"ǔ":{"ha":803,"x_min":13,"x_max":790,"o":"m 322 -17 q 179 32 231 -17 q 128 165 128 81 l 128 460 q 106 547 128 521 q 26 574 83 572 l 13 574 l 13 608 q 134 612 76 608 q 249 625 192 615 l 249 174 q 281 75 249 110 q 369 40 313 40 q 483 81 431 40 q 567 196 536 122 l 600 190 q 569 124 586 153 q 529 72 551 94 q 322 -17 447 -17 m 558 -12 l 558 460 q 535 547 558 521 q 456 574 513 572 l 442 574 l 442 608 q 565 612 507 608 q 679 625 622 615 l 679 156 q 703 63 679 88 q 790 36 726 38 l 790 0 q 692 -1 731 0 q 622 -4 653 -1 q 558 -12 592 -7 m 340 722 l 213 986 l 250 986 l 361 850 l 369 850 l 481 986 l 518 986 l 390 722 l 340 722 z "},"û":{"ha":803,"x_min":13,"x_max":790,"o":"m 322 -17 q 179 32 231 -17 q 128 165 128 81 l 128 460 q 106 547 128 521 q 26 574 83 572 l 13 574 l 13 608 q 134 612 76 608 q 249 625 192 615 l 249 174 q 281 75 249 110 q 369 40 313 40 q 483 81 431 40 q 567 196 536 122 l 600 190 q 569 124 586 153 q 529 72 551 94 q 322 -17 447 -17 m 558 -12 l 558 460 q 535 547 558 521 q 456 574 513 572 l 442 574 l 442 608 q 565 612 507 608 q 679 625 622 615 l 679 156 q 703 63 679 88 q 790 36 726 38 l 790 0 q 692 -1 731 0 q 622 -4 653 -1 q 558 -12 592 -7 m 213 722 l 340 986 l 390 986 l 518 722 l 481 722 l 369 858 l 361 858 l 250 722 l 213 722 z "},"ü":{"ha":803,"x_min":13,"x_max":790,"o":"m 322 -17 q 179 32 231 -17 q 128 165 128 81 l 128 460 q 106 547 128 521 q 26 574 83 572 l 13 574 l 13 608 q 134 612 76 608 q 249 625 192 615 l 249 174 q 281 75 249 110 q 369 40 313 40 q 483 81 431 40 q 567 196 536 122 l 600 190 q 569 124 586 153 q 529 72 551 94 q 322 -17 447 -17 m 558 -12 l 558 460 q 535 547 558 521 q 456 574 513 572 l 442 574 l 442 608 q 565 612 507 608 q 679 625 622 615 l 679 156 q 703 63 679 88 q 790 36 726 38 l 790 0 q 692 -1 731 0 q 622 -4 653 -1 q 558 -12 592 -7 m 231 774 q 173 797 193 774 q 153 856 153 821 q 173 913 153 889 q 231 936 193 936 q 288 913 269 936 q 306 856 306 889 q 288 797 306 821 q 231 774 269 774 m 500 774 q 444 797 464 774 q 424 856 424 821 q 444 913 424 889 q 500 936 464 936 q 558 913 540 936 q 576 856 576 889 q 558 797 576 821 q 500 774 540 774 z "},"ǘ":{"ha":803,"x_min":13,"x_max":790,"o":"m 322 -17 q 179 32 231 -17 q 128 165 128 81 l 128 460 q 106 547 128 521 q 26 574 83 572 l 13 574 l 13 608 q 134 612 76 608 q 249 625 192 615 l 249 174 q 281 75 249 110 q 369 40 313 40 q 483 81 431 40 q 567 196 536 122 l 600 190 q 569 124 586 153 q 529 72 551 94 q 322 -17 447 -17 m 558 -12 l 558 460 q 535 547 558 521 q 456 574 513 572 l 442 574 l 442 608 q 565 612 507 608 q 679 625 622 615 l 679 156 q 703 63 679 88 q 790 36 726 38 l 790 0 q 692 -1 731 0 q 622 -4 653 -1 q 558 -12 592 -7 m 231 774 q 173 797 193 774 q 153 856 153 821 q 173 913 153 889 q 231 936 193 936 q 288 913 269 936 q 306 856 306 889 q 288 797 306 821 q 231 774 269 774 m 500 774 q 444 797 464 774 q 424 856 424 821 q 444 913 424 889 q 500 936 464 936 q 558 913 540 936 q 576 856 576 889 q 558 797 576 821 q 500 774 540 774 m 318 1056 l 364 1261 q 392 1322 374 1304 q 431 1339 411 1339 q 467 1326 451 1339 q 482 1286 482 1313 q 476 1253 482 1271 q 458 1219 469 1236 l 351 1056 l 318 1056 z "},"ǚ":{"ha":803,"x_min":13,"x_max":790,"o":"m 322 -17 q 179 32 231 -17 q 128 165 128 81 l 128 460 q 106 547 128 521 q 26 574 83 572 l 13 574 l 13 608 q 134 612 76 608 q 249 625 192 615 l 249 174 q 281 75 249 110 q 369 40 313 40 q 483 81 431 40 q 567 196 536 122 l 600 190 q 569 124 586 153 q 529 72 551 94 q 322 -17 447 -17 m 558 -12 l 558 460 q 535 547 558 521 q 456 574 513 572 l 442 574 l 442 608 q 565 612 507 608 q 679 625 622 615 l 679 156 q 703 63 679 88 q 790 36 726 38 l 790 0 q 692 -1 731 0 q 622 -4 653 -1 q 558 -12 592 -7 m 231 774 q 173 797 193 774 q 153 856 153 821 q 173 913 153 889 q 231 936 193 936 q 288 913 269 936 q 306 856 306 889 q 288 797 306 821 q 231 774 269 774 m 500 774 q 444 797 464 774 q 424 856 424 821 q 444 913 424 889 q 500 936 464 936 q 558 913 540 936 q 576 856 576 889 q 558 797 576 821 q 500 774 540 774 m 340 1056 l 213 1319 l 250 1319 l 361 1183 l 369 1183 l 481 1319 l 518 1319 l 390 1056 l 340 1056 z "},"ǜ":{"ha":803,"x_min":13,"x_max":790,"o":"m 322 -17 q 179 32 231 -17 q 128 165 128 81 l 128 460 q 106 547 128 521 q 26 574 83 572 l 13 574 l 13 608 q 134 612 76 608 q 249 625 192 615 l 249 174 q 281 75 249 110 q 369 40 313 40 q 483 81 431 40 q 567 196 536 122 l 600 190 q 569 124 586 153 q 529 72 551 94 q 322 -17 447 -17 m 558 -12 l 558 460 q 535 547 558 521 q 456 574 513 572 l 442 574 l 442 608 q 565 612 507 608 q 679 625 622 615 l 679 156 q 703 63 679 88 q 790 36 726 38 l 790 0 q 692 -1 731 0 q 622 -4 653 -1 q 558 -12 592 -7 m 231 774 q 173 797 193 774 q 153 856 153 821 q 173 913 153 889 q 231 936 193 936 q 288 913 269 936 q 306 856 306 889 q 288 797 306 821 q 231 774 269 774 m 500 774 q 444 797 464 774 q 424 856 424 821 q 444 913 424 889 q 500 936 464 936 q 558 913 540 936 q 576 856 576 889 q 558 797 576 821 q 500 774 540 774 m 369 1056 l 263 1219 q 246 1253 253 1236 q 239 1286 239 1271 q 254 1326 239 1313 q 290 1339 269 1339 q 328 1322 310 1339 q 357 1261 347 1304 l 403 1056 l 369 1056 z "},"ǖ":{"ha":803,"x_min":13,"x_max":790,"o":"m 322 -17 q 179 32 231 -17 q 128 165 128 81 l 128 460 q 106 547 128 521 q 26 574 83 572 l 13 574 l 13 608 q 134 612 76 608 q 249 625 192 615 l 249 174 q 281 75 249 110 q 369 40 313 40 q 483 81 431 40 q 567 196 536 122 l 600 190 q 569 124 586 153 q 529 72 551 94 q 322 -17 447 -17 m 558 -12 l 558 460 q 535 547 558 521 q 456 574 513 572 l 442 574 l 442 608 q 565 612 507 608 q 679 625 622 615 l 679 156 q 703 63 679 88 q 790 36 726 38 l 790 0 q 692 -1 731 0 q 622 -4 653 -1 q 558 -12 592 -7 m 231 774 q 173 797 193 774 q 153 856 153 821 q 173 913 153 889 q 231 936 193 936 q 288 913 269 936 q 306 856 306 889 q 288 797 306 821 q 231 774 269 774 m 500 774 q 444 797 464 774 q 424 856 424 821 q 444 913 424 889 q 500 936 464 936 q 558 913 540 936 q 576 856 576 889 q 558 797 576 821 q 500 774 540 774 m 200 1125 l 200 1194 l 529 1194 l 529 1125 l 200 1125 z "},"ù":{"ha":803,"x_min":13,"x_max":790,"o":"m 322 -17 q 179 32 231 -17 q 128 165 128 81 l 128 460 q 106 547 128 521 q 26 574 83 572 l 13 574 l 13 608 q 134 612 76 608 q 249 625 192 615 l 249 174 q 281 75 249 110 q 369 40 313 40 q 483 81 431 40 q 567 196 536 122 l 600 190 q 569 124 586 153 q 529 72 551 94 q 322 -17 447 -17 m 558 -12 l 558 460 q 535 547 558 521 q 456 574 513 572 l 442 574 l 442 608 q 565 612 507 608 q 679 625 622 615 l 679 156 q 703 63 679 88 q 790 36 726 38 l 790 0 q 692 -1 731 0 q 622 -4 653 -1 q 558 -12 592 -7 m 369 722 l 263 886 q 246 920 253 903 q 239 953 239 938 q 254 992 239 979 q 290 1006 269 1006 q 328 988 310 1006 q 357 928 347 971 l 403 722 l 369 722 z "},"ű":{"ha":803,"x_min":13,"x_max":790,"o":"m 322 -17 q 179 32 231 -17 q 128 165 128 81 l 128 460 q 106 547 128 521 q 26 574 83 572 l 13 574 l 13 608 q 134 612 76 608 q 249 625 192 615 l 249 174 q 281 75 249 110 q 369 40 313 40 q 483 81 431 40 q 567 196 536 122 l 600 190 q 569 124 586 153 q 529 72 551 94 q 322 -17 447 -17 m 558 -12 l 558 460 q 535 547 558 521 q 456 574 513 572 l 442 574 l 442 608 q 565 612 507 608 q 679 625 622 615 l 679 156 q 703 63 679 88 q 790 36 726 38 l 790 0 q 692 -1 731 0 q 622 -4 653 -1 q 558 -12 592 -7 m 249 722 l 300 928 q 327 989 310 972 q 363 1006 344 1006 q 397 992 383 1006 q 411 954 411 978 q 406 921 411 938 q 389 888 400 904 l 282 722 l 249 722 m 429 722 l 481 928 q 508 989 490 972 q 543 1006 525 1006 q 578 992 564 1006 q 592 954 592 978 q 586 921 592 938 q 569 888 581 904 l 463 722 l 429 722 z "},"ū":{"ha":803,"x_min":13,"x_max":790,"o":"m 322 -17 q 179 32 231 -17 q 128 165 128 81 l 128 460 q 106 547 128 521 q 26 574 83 572 l 13 574 l 13 608 q 134 612 76 608 q 249 625 192 615 l 249 174 q 281 75 249 110 q 369 40 313 40 q 483 81 431 40 q 567 196 536 122 l 600 190 q 569 124 586 153 q 529 72 551 94 q 322 -17 447 -17 m 558 -12 l 558 460 q 535 547 558 521 q 456 574 513 572 l 442 574 l 442 608 q 565 612 507 608 q 679 625 622 615 l 679 156 q 703 63 679 88 q 790 36 726 38 l 790 0 q 692 -1 731 0 q 622 -4 653 -1 q 558 -12 592 -7 m 200 792 l 200 861 l 529 861 l 529 792 l 200 792 z "},"ų":{"ha":803,"x_min":13,"x_max":790,"o":"m 588 -397 q 472 -357 515 -397 q 428 -251 428 -317 q 444 -177 428 -214 q 503 -91 461 -140 q 619 32 546 -42 l 558 -39 l 558 460 q 535 547 558 521 q 456 574 513 572 l 442 574 l 442 608 q 568 612 511 608 q 679 625 625 615 l 679 156 q 703 63 679 88 q 790 36 726 38 l 790 0 q 649 -26 710 0 q 553 -98 588 -51 q 519 -206 519 -144 q 546 -285 519 -256 q 618 -314 572 -314 q 744 -224 699 -314 l 769 -243 q 703 -358 750 -318 q 588 -397 656 -397 m 322 -17 q 179 32 231 -17 q 128 165 128 81 l 128 460 q 106 547 128 521 q 26 574 83 572 l 13 574 l 13 608 q 138 612 81 608 q 249 625 196 615 l 249 174 q 281 75 249 110 q 369 40 313 40 q 484 83 432 40 q 567 199 536 125 l 569 124 q 548 95 557 107 q 529 72 539 83 q 322 -17 449 -17 z "},"ů":{"ha":803,"x_min":13,"x_max":790,"o":"m 322 -17 q 179 32 231 -17 q 128 165 128 81 l 128 460 q 106 547 128 521 q 26 574 83 572 l 13 574 l 13 608 q 134 612 76 608 q 249 625 192 615 l 249 174 q 281 75 249 110 q 369 40 313 40 q 483 81 431 40 q 567 196 536 122 l 600 190 q 569 124 586 153 q 529 72 551 94 q 322 -17 447 -17 m 558 -12 l 558 460 q 535 547 558 521 q 456 574 513 572 l 442 574 l 442 608 q 565 612 507 608 q 679 625 622 615 l 679 156 q 703 63 679 88 q 790 36 726 38 l 790 0 q 692 -1 731 0 q 622 -4 653 -1 q 558 -12 592 -7 m 367 735 q 274 770 308 735 q 239 854 239 806 q 272 936 239 899 q 365 974 304 974 q 438 955 410 974 q 478 908 465 936 q 490 854 490 881 q 472 787 490 814 q 425 747 453 760 q 367 735 397 735 m 367 779 q 413 798 392 779 q 433 854 433 817 q 413 910 433 890 q 365 929 392 929 q 319 912 343 929 q 296 854 296 894 q 317 799 296 819 q 367 779 339 779 z "},"ũ":{"ha":803,"x_min":13,"x_max":790,"o":"m 322 -17 q 179 32 231 -17 q 128 165 128 81 l 128 460 q 106 547 128 521 q 26 574 83 572 l 13 574 l 13 608 q 134 612 76 608 q 249 625 192 615 l 249 174 q 281 75 249 110 q 369 40 313 40 q 483 81 431 40 q 567 196 536 122 l 600 190 q 569 124 586 153 q 529 72 551 94 q 322 -17 447 -17 m 558 -12 l 558 460 q 535 547 558 521 q 456 574 513 572 l 442 574 l 442 608 q 565 612 507 608 q 679 625 622 615 l 679 156 q 703 63 679 88 q 790 36 726 38 l 790 0 q 692 -1 731 0 q 622 -4 653 -1 q 558 -12 592 -7 m 469 769 q 421 781 444 769 q 379 801 397 792 l 333 826 q 291 849 311 840 q 253 858 271 858 q 200 834 221 858 q 174 785 179 810 l 144 785 q 157 849 144 813 q 197 912 169 885 q 267 939 224 939 q 317 926 292 939 q 358 906 342 914 l 413 874 q 447 858 426 868 q 485 849 467 849 q 531 868 513 849 q 557 917 550 888 l 586 917 q 550 810 582 850 q 469 769 518 769 z "},"v":{"ha":706,"x_min":-18,"x_max":704,"o":"m 307 0 l 85 500 q 52 552 69 536 q 7 571 35 568 l -18 574 l -18 608 l 133 604 l 288 608 l 288 574 l 261 571 q 213 544 222 565 q 221 486 204 524 l 403 72 l 365 60 l 542 481 q 551 545 561 525 q 492 571 540 565 l 464 574 l 464 608 l 594 604 l 704 608 l 704 574 l 676 569 q 624 545 644 567 q 581 467 604 524 l 382 0 l 307 0 z "},"w":{"ha":1082,"x_min":-18,"x_max":1079,"o":"m 263 0 l 86 478 q 48 547 68 524 q -1 572 28 569 l -18 574 l -18 608 l 136 604 l 286 608 l 286 574 l 267 572 q 210 546 224 568 q 213 481 197 524 l 358 75 l 325 76 l 483 443 q 501 517 501 488 q 433 574 501 574 l 403 574 l 403 608 l 440 608 q 542 538 529 608 l 524 538 q 633 608 524 608 l 703 608 l 703 574 l 678 572 q 635 547 644 571 q 643 479 626 522 l 796 76 l 764 76 l 919 475 q 927 547 939 528 q 867 571 915 567 l 840 574 l 840 608 l 975 604 l 1079 608 l 1079 574 l 1058 571 q 1003 544 1025 567 q 961 469 982 522 l 776 0 l 701 0 l 521 465 l 536 465 l 338 0 l 263 0 z "},"ẃ":{"ha":1082,"x_min":-18,"x_max":1079,"o":"m 263 0 l 86 478 q 48 547 68 524 q -1 572 28 569 l -18 574 l -18 608 l 136 604 l 286 608 l 286 574 l 267 572 q 210 546 224 568 q 213 481 197 524 l 358 75 l 325 76 l 483 443 q 501 517 501 488 q 433 574 501 574 l 403 574 l 403 608 l 440 608 q 542 538 529 608 l 524 538 q 633 608 524 608 l 703 608 l 703 574 l 678 572 q 635 547 644 571 q 643 479 626 522 l 796 76 l 764 76 l 919 475 q 927 547 939 528 q 867 571 915 567 l 840 574 l 840 608 l 975 604 l 1079 608 l 1079 574 l 1058 571 q 1003 544 1025 567 q 961 469 982 522 l 776 0 l 701 0 l 521 465 l 536 465 l 338 0 l 263 0 m 485 722 l 531 928 q 559 988 540 971 q 597 1006 578 1006 q 633 992 618 1006 q 649 953 649 979 q 642 920 649 938 q 625 886 636 903 l 518 722 l 485 722 z "},"ŵ":{"ha":1082,"x_min":-18,"x_max":1079,"o":"m 263 0 l 86 478 q 48 547 68 524 q -1 572 28 569 l -18 574 l -18 608 l 136 604 l 286 608 l 286 574 l 267 572 q 210 546 224 568 q 213 481 197 524 l 358 75 l 325 76 l 483 443 q 501 517 501 488 q 433 574 501 574 l 403 574 l 403 608 l 440 608 q 542 538 529 608 l 524 538 q 633 608 524 608 l 703 608 l 703 574 l 678 572 q 635 547 644 571 q 643 479 626 522 l 796 76 l 764 76 l 919 475 q 927 547 939 528 q 867 571 915 567 l 840 574 l 840 608 l 975 604 l 1079 608 l 1079 574 l 1058 571 q 1003 544 1025 567 q 961 469 982 522 l 776 0 l 701 0 l 521 465 l 536 465 l 338 0 l 263 0 m 379 722 l 507 986 l 557 986 l 685 722 l 647 722 l 536 858 l 528 858 l 417 722 l 379 722 z "},"ẅ":{"ha":1082,"x_min":-18,"x_max":1079,"o":"m 263 0 l 86 478 q 48 547 68 524 q -1 572 28 569 l -18 574 l -18 608 l 136 604 l 286 608 l 286 574 l 267 572 q 210 546 224 568 q 213 481 197 524 l 358 75 l 325 76 l 483 443 q 501 517 501 488 q 433 574 501 574 l 403 574 l 403 608 l 440 608 q 542 538 529 608 l 524 538 q 633 608 524 608 l 703 608 l 703 574 l 678 572 q 635 547 644 571 q 643 479 626 522 l 796 76 l 764 76 l 919 475 q 927 547 939 528 q 867 571 915 567 l 840 574 l 840 608 l 975 604 l 1079 608 l 1079 574 l 1058 571 q 1003 544 1025 567 q 961 469 982 522 l 776 0 l 701 0 l 521 465 l 536 465 l 338 0 l 263 0 m 397 774 q 340 797 360 774 q 319 856 319 821 q 340 913 319 889 q 397 936 360 936 q 454 913 436 936 q 472 856 472 889 q 454 797 472 821 q 397 774 436 774 m 667 774 q 610 797 631 774 q 590 856 590 821 q 610 913 590 889 q 667 936 631 936 q 725 913 707 936 q 743 856 743 889 q 725 797 743 821 q 667 774 707 774 z "},"ẁ":{"ha":1082,"x_min":-18,"x_max":1079,"o":"m 263 0 l 86 478 q 48 547 68 524 q -1 572 28 569 l -18 574 l -18 608 l 136 604 l 286 608 l 286 574 l 267 572 q 210 546 224 568 q 213 481 197 524 l 358 75 l 325 76 l 483 443 q 501 517 501 488 q 433 574 501 574 l 403 574 l 403 608 l 440 608 q 542 538 529 608 l 524 538 q 633 608 524 608 l 703 608 l 703 574 l 678 572 q 635 547 644 571 q 643 479 626 522 l 796 76 l 764 76 l 919 475 q 927 547 939 528 q 867 571 915 567 l 840 574 l 840 608 l 975 604 l 1079 608 l 1079 574 l 1058 571 q 1003 544 1025 567 q 961 469 982 522 l 776 0 l 701 0 l 521 465 l 536 465 l 338 0 l 263 0 m 536 722 l 429 886 q 413 920 419 903 q 406 953 406 938 q 421 992 406 979 q 457 1006 436 1006 q 495 988 476 1006 q 524 928 514 971 l 569 722 l 536 722 z "},"x":{"ha":743,"x_min":0,"x_max":747,"o":"m 415 -3 l 415 33 l 438 36 q 486 71 486 42 q 469 107 486 88 l 121 499 q 63 555 82 540 q 18 572 44 569 l 6 574 l 6 608 l 174 604 l 340 608 l 340 574 l 317 569 q 268 528 268 558 q 288 486 268 508 l 592 143 q 671 65 638 90 q 732 35 704 39 l 747 32 l 747 -3 l 597 0 l 415 -3 m 0 -4 l 0 32 l 19 35 q 76 53 50 40 q 131 89 103 65 q 193 150 160 113 l 322 290 l 354 269 l 221 122 q 197 76 197 96 q 246 36 197 43 l 268 33 l 268 -4 l 135 0 l 0 -4 m 415 319 l 385 342 l 514 482 q 533 522 533 503 q 471 572 533 561 l 460 574 l 460 608 l 618 604 l 728 608 l 728 574 l 713 571 q 631 540 671 567 q 540 457 590 513 l 415 319 z "},"y":{"ha":726,"x_min":-58,"x_max":725,"o":"m 57 -410 q -26 -387 6 -410 q -58 -329 -58 -365 q -36 -279 -58 -300 q 18 -258 -14 -258 q 48 -265 35 -258 q 78 -285 61 -271 q 107 -306 94 -300 q 133 -311 119 -311 q 192 -287 165 -311 q 243 -210 219 -262 l 558 472 q 571 543 582 521 q 508 571 560 565 l 483 574 l 483 608 l 619 604 l 725 608 l 725 574 l 706 571 q 647 544 669 567 q 596 460 625 521 l 283 -225 q 185 -364 240 -318 q 57 -410 129 -410 m 340 -39 l 99 493 q 64 549 81 533 q 21 569 47 565 l -10 574 l -10 608 l 143 604 l 297 608 l 297 574 l 274 571 q 222 544 231 565 q 233 479 214 524 l 408 92 l 340 -39 z "},"ý":{"ha":726,"x_min":-58,"x_max":725,"o":"m 57 -410 q -26 -387 6 -410 q -58 -329 -58 -365 q -36 -279 -58 -300 q 18 -258 -14 -258 q 48 -265 35 -258 q 78 -285 61 -271 q 107 -306 94 -300 q 133 -311 119 -311 q 192 -287 165 -311 q 243 -210 219 -262 l 558 472 q 571 543 582 521 q 508 571 560 565 l 483 574 l 483 608 l 619 604 l 725 608 l 725 574 l 706 571 q 647 544 669 567 q 596 460 625 521 l 283 -225 q 185 -364 240 -318 q 57 -410 129 -410 m 340 -39 l 99 493 q 64 549 81 533 q 21 569 47 565 l -10 574 l -10 608 l 143 604 l 297 608 l 297 574 l 274 571 q 222 544 231 565 q 233 479 214 524 l 408 92 l 340 -39 m 328 722 l 374 928 q 402 988 383 971 q 440 1006 421 1006 q 476 992 461 1006 q 492 953 492 979 q 485 920 492 938 q 468 886 479 903 l 361 722 l 328 722 z "},"ŷ":{"ha":726,"x_min":-58,"x_max":725,"o":"m 57 -410 q -26 -387 6 -410 q -58 -329 -58 -365 q -36 -279 -58 -300 q 18 -258 -14 -258 q 48 -265 35 -258 q 78 -285 61 -271 q 107 -306 94 -300 q 133 -311 119 -311 q 192 -287 165 -311 q 243 -210 219 -262 l 558 472 q 571 543 582 521 q 508 571 560 565 l 483 574 l 483 608 l 619 604 l 725 608 l 725 574 l 706 571 q 647 544 669 567 q 596 460 625 521 l 283 -225 q 185 -364 240 -318 q 57 -410 129 -410 m 340 -39 l 99 493 q 64 549 81 533 q 21 569 47 565 l -10 574 l -10 608 l 143 604 l 297 608 l 297 574 l 274 571 q 222 544 231 565 q 233 479 214 524 l 408 92 l 340 -39 m 224 722 l 351 986 l 401 986 l 529 722 l 492 722 l 381 858 l 372 858 l 261 722 l 224 722 z "},"ÿ":{"ha":726,"x_min":-58,"x_max":725,"o":"m 57 -410 q -26 -387 6 -410 q -58 -329 -58 -365 q -36 -279 -58 -300 q 18 -258 -14 -258 q 48 -265 35 -258 q 78 -285 61 -271 q 107 -306 94 -300 q 133 -311 119 -311 q 192 -287 165 -311 q 243 -210 219 -262 l 558 472 q 571 543 582 521 q 508 571 560 565 l 483 574 l 483 608 l 619 604 l 725 608 l 725 574 l 706 571 q 647 544 669 567 q 596 460 625 521 l 283 -225 q 185 -364 240 -318 q 57 -410 129 -410 m 340 -39 l 99 493 q 64 549 81 533 q 21 569 47 565 l -10 574 l -10 608 l 143 604 l 297 608 l 297 574 l 274 571 q 222 544 231 565 q 233 479 214 524 l 408 92 l 340 -39 m 242 774 q 184 797 204 774 q 164 856 164 821 q 184 913 164 889 q 242 936 204 936 q 299 913 281 936 q 317 856 317 889 q 299 797 317 821 q 242 774 281 774 m 511 774 q 455 797 475 774 q 435 856 435 821 q 455 913 435 889 q 511 936 475 936 q 569 913 551 936 q 588 856 588 889 q 569 797 588 821 q 511 774 551 774 z "},"ỳ":{"ha":726,"x_min":-58,"x_max":725,"o":"m 57 -410 q -26 -387 6 -410 q -58 -329 -58 -365 q -36 -279 -58 -300 q 18 -258 -14 -258 q 48 -265 35 -258 q 78 -285 61 -271 q 107 -306 94 -300 q 133 -311 119 -311 q 192 -287 165 -311 q 243 -210 219 -262 l 558 472 q 571 543 582 521 q 508 571 560 565 l 483 574 l 483 608 l 619 604 l 725 608 l 725 574 l 706 571 q 647 544 669 567 q 596 460 625 521 l 283 -225 q 185 -364 240 -318 q 57 -410 129 -410 m 340 -39 l 99 493 q 64 549 81 533 q 21 569 47 565 l -10 574 l -10 608 l 143 604 l 297 608 l 297 574 l 274 571 q 222 544 231 565 q 233 479 214 524 l 408 92 l 340 -39 m 381 722 l 274 886 q 257 920 264 903 q 250 953 250 938 q 265 992 250 979 q 301 1006 281 1006 q 340 988 321 1006 q 368 928 358 971 l 414 722 l 381 722 z "},"ỹ":{"ha":726,"x_min":-58,"x_max":725,"o":"m 57 -410 q -26 -387 6 -410 q -58 -329 -58 -365 q -36 -279 -58 -300 q 18 -258 -14 -258 q 48 -265 35 -258 q 78 -285 61 -271 q 107 -306 94 -300 q 133 -311 119 -311 q 192 -287 165 -311 q 243 -210 219 -262 l 558 472 q 571 543 582 521 q 508 571 560 565 l 483 574 l 483 608 l 619 604 l 725 608 l 725 574 l 706 571 q 647 544 669 567 q 596 460 625 521 l 283 -225 q 185 -364 240 -318 q 57 -410 129 -410 m 340 -39 l 99 493 q 64 549 81 533 q 21 569 47 565 l -10 574 l -10 608 l 143 604 l 297 608 l 297 574 l 274 571 q 222 544 231 565 q 233 479 214 524 l 408 92 l 340 -39 m 481 769 q 432 781 456 769 q 390 801 408 792 l 344 826 q 302 849 322 840 q 264 858 282 858 q 211 834 232 858 q 185 785 190 810 l 156 785 q 168 849 156 813 q 208 912 181 885 q 278 939 235 939 q 328 926 303 939 q 369 906 353 914 l 424 874 q 458 858 438 868 q 496 849 478 849 q 542 868 524 849 q 568 917 561 888 l 597 917 q 561 810 593 850 q 481 769 529 769 z "},"z":{"ha":653,"x_min":43,"x_max":606,"o":"m 54 0 l 43 31 l 467 592 l 528 572 l 369 572 q 228 553 283 572 q 140 493 172 535 q 90 381 107 451 l 56 381 l 86 510 l 101 608 l 596 608 l 606 579 l 169 4 l 133 39 l 331 39 q 497 82 442 39 q 569 224 551 125 l 604 224 l 589 74 l 588 0 l 54 0 z "},"ź":{"ha":653,"x_min":43,"x_max":606,"o":"m 54 0 l 43 31 l 467 592 l 528 572 l 369 572 q 228 553 283 572 q 140 493 172 535 q 90 381 107 451 l 56 381 l 86 510 l 101 608 l 596 608 l 606 579 l 169 4 l 133 39 l 331 39 q 497 82 442 39 q 569 224 551 125 l 604 224 l 589 74 l 588 0 l 54 0 m 281 722 l 326 928 q 355 988 336 971 q 393 1006 374 1006 q 429 992 414 1006 q 444 953 444 979 q 438 920 444 938 q 421 886 432 903 l 314 722 l 281 722 z "},"ž":{"ha":653,"x_min":43,"x_max":606,"o":"m 54 0 l 43 31 l 467 592 l 528 572 l 369 572 q 228 553 283 572 q 140 493 172 535 q 90 381 107 451 l 56 381 l 86 510 l 101 608 l 596 608 l 606 579 l 169 4 l 133 39 l 331 39 q 497 82 442 39 q 569 224 551 125 l 604 224 l 589 74 l 588 0 l 54 0 m 304 722 l 176 986 l 214 986 l 325 850 l 333 850 l 444 986 l 482 986 l 354 722 l 304 722 z "},"ż":{"ha":653,"x_min":43,"x_max":606,"o":"m 54 0 l 43 31 l 467 592 l 528 572 l 369 572 q 228 553 283 572 q 140 493 172 535 q 90 381 107 451 l 56 381 l 86 510 l 101 608 l 596 608 l 606 579 l 169 4 l 133 39 l 331 39 q 497 82 442 39 q 569 224 551 125 l 604 224 l 589 74 l 588 0 l 54 0 m 329 764 q 265 790 289 764 q 242 854 242 817 q 265 919 242 893 q 329 944 289 944 q 396 919 375 944 q 417 854 417 893 q 396 790 417 817 q 329 764 375 764 z "},"ﬁ":{"ha":801,"x_min":29,"x_max":789,"o":"m 38 -4 l 38 32 l 61 35 q 119 49 99 40 q 147 83 139 57 q 154 169 154 110 l 154 569 l 29 569 l 29 608 l 154 608 l 154 708 q 182 859 154 792 q 272 966 210 926 q 436 1006 333 1006 q 550 988 497 1006 q 637 935 603 971 q 671 844 671 899 q 651 785 671 808 q 594 763 631 763 q 544 780 564 763 q 524 825 524 797 q 530 851 524 840 q 542 869 536 861 q 547 890 547 878 q 515 942 547 919 q 440 965 483 965 q 335 929 371 965 q 288 834 300 893 q 275 710 275 775 l 275 608 l 481 608 l 481 569 l 275 569 l 275 169 q 281 83 275 110 q 305 49 288 57 q 354 35 322 40 l 376 32 l 376 -4 l 215 0 l 38 -4 m 436 -4 l 436 32 l 458 35 q 517 49 496 40 q 545 83 538 57 q 553 169 553 110 l 553 521 l 674 524 l 674 169 q 681 83 674 110 q 709 49 689 57 q 767 35 729 40 l 789 32 l 789 -4 l 613 0 l 436 -4 m 553 460 q 540 531 553 508 q 503 562 526 554 q 447 569 479 569 l 436 569 l 436 608 q 555 612 499 608 q 674 625 611 615 l 674 485 l 553 460 z "},"ﬂ":{"ha":811,"x_min":29,"x_max":793,"o":"m 29 -4 l 29 32 l 53 35 q 114 51 94 40 q 140 88 133 61 q 146 169 146 115 l 146 754 q 216 939 146 872 q 410 1006 286 1006 q 513 988 465 1006 q 592 939 560 971 l 544 953 l 660 1006 l 676 1006 l 676 169 q 683 88 676 115 q 709 51 689 61 q 769 35 729 40 l 793 32 l 793 -4 l 617 0 l 439 -4 l 439 32 l 472 36 q 524 51 507 40 q 549 87 542 61 q 556 161 556 113 l 556 818 q 519 928 556 890 q 417 967 483 967 q 306 921 346 967 q 267 789 267 875 l 267 169 q 273 90 267 117 q 298 51 279 63 q 353 35 317 40 l 376 32 l 376 -4 l 207 0 l 29 -4 m 32 569 l 32 608 l 156 608 l 156 569 l 32 569 m 257 569 l 258 608 l 417 608 l 417 569 l 257 569 z "},"ª":{"ha":588,"x_min":50,"x_max":588,"o":"m 474 481 q 394 510 421 481 q 367 599 367 539 l 367 863 q 344 946 367 922 q 267 969 321 969 q 205 959 226 969 q 183 929 183 949 q 185 919 183 924 q 189 906 186 914 q 196 872 196 882 q 178 835 196 850 q 131 821 160 821 q 88 838 104 821 q 71 882 71 854 q 99 944 71 917 q 178 988 128 972 q 293 1003 229 1003 q 435 960 389 1003 q 481 825 481 918 l 481 613 q 489 549 481 568 q 518 531 497 531 q 561 564 549 531 l 588 553 q 544 497 574 514 q 474 481 514 481 m 189 481 q 88 508 126 481 q 50 583 50 536 q 90 669 50 628 q 210 747 131 710 q 293 784 246 765 q 389 818 340 803 l 390 790 q 231 703 290 754 q 172 599 172 653 q 240 535 172 535 q 328 570 285 535 q 389 660 371 606 l 396 611 q 310 515 364 549 q 189 481 257 481 z "},"º":{"ha":650,"x_min":44,"x_max":606,"o":"m 326 481 q 183 515 247 481 q 81 609 118 550 q 44 742 44 668 q 81 875 44 815 q 182 969 118 935 q 326 1003 246 1003 q 469 969 406 1003 q 569 875 532 935 q 606 742 606 815 q 569 609 606 668 q 468 515 532 550 q 326 481 404 481 m 326 514 q 441 573 400 514 q 482 742 482 632 q 441 910 482 851 q 326 969 400 969 q 210 910 250 969 q 169 742 169 851 q 210 573 169 632 q 326 514 251 514 z "},"⁄":{"ha":293,"x_min":-224,"x_max":518,"o":"m -224 0 l 458 1003 l 518 1003 l -164 0 l -224 0 z "},"½":{"ha":1188,"x_min":42,"x_max":1124,"o":"m 42 421 l 42 450 l 72 451 q 120 466 107 454 q 133 522 133 478 l 133 843 q 120 899 133 888 q 78 915 107 911 l 43 921 l 43 953 q 138 965 99 954 q 217 994 178 975 l 251 994 l 251 522 q 265 466 251 478 q 314 451 278 454 l 342 450 l 342 421 l 193 424 l 42 421 m 146 0 l 828 1003 l 888 1003 l 206 0 l 146 0 m 718 0 l 718 29 l 879 186 q 971 300 943 247 q 999 410 999 353 q 972 501 999 468 q 894 533 944 533 q 830 515 857 533 q 803 471 803 497 q 829 425 803 450 q 853 401 849 410 q 858 381 858 392 q 840 342 858 357 q 794 328 821 328 q 740 351 761 328 q 718 413 718 375 q 747 493 718 457 q 823 551 775 529 q 928 574 871 574 q 1069 529 1015 574 q 1124 417 1124 485 q 1110 355 1124 385 q 1063 290 1097 325 q 967 207 1029 256 l 808 85 l 807 107 l 986 110 q 1049 115 1029 111 q 1077 127 1069 118 q 1088 154 1085 136 l 1092 167 l 1122 167 l 1119 24 l 1119 0 l 718 0 z "},"¼":{"ha":1140,"x_min":42,"x_max":1089,"o":"m 42 421 l 42 450 l 72 451 q 120 466 107 454 q 133 522 133 478 l 133 843 q 120 899 133 888 q 78 915 107 911 l 43 921 l 43 953 q 138 965 99 954 q 217 994 178 975 l 251 994 l 251 522 q 265 466 251 478 q 314 451 278 454 l 342 450 l 342 421 l 193 424 l 42 421 m 146 0 l 828 1003 l 888 1003 l 206 0 l 146 0 m 783 -3 l 783 25 l 821 28 q 875 44 864 31 q 886 99 886 57 l 886 129 l 636 129 l 636 156 l 671 206 q 783 380 731 288 q 876 563 835 472 l 1042 563 l 1042 539 l 685 164 l 886 164 l 886 289 q 931 301 907 290 q 969 329 956 311 l 1001 329 l 1001 164 l 1083 164 l 1083 129 l 1001 129 l 1001 99 q 1013 43 1001 56 q 1061 28 1025 31 l 1088 25 l 1088 -3 l 943 0 l 783 -3 z "},"¾":{"ha":1296,"x_min":50,"x_max":1244,"o":"m 235 415 q 101 448 151 415 q 50 531 50 481 q 68 581 50 561 q 115 600 86 600 q 152 588 138 600 q 167 556 167 576 q 157 525 167 544 q 151 509 153 515 q 149 496 149 503 q 168 461 149 475 q 219 447 188 447 q 315 490 279 447 q 351 600 351 532 q 249 713 351 713 q 214 710 232 713 q 175 700 196 707 l 176 735 q 294 792 258 761 q 329 872 329 824 q 305 938 329 914 q 238 961 281 961 q 177 946 203 961 q 151 907 151 931 q 155 893 151 900 q 167 875 158 886 q 185 839 185 856 q 169 807 185 819 q 131 794 153 794 q 82 815 101 794 q 63 867 63 835 q 122 960 63 922 q 268 997 181 997 q 401 964 351 997 q 450 876 450 931 q 424 803 450 836 q 350 751 397 771 q 240 729 303 731 l 236 739 q 257 739 249 739 q 270 740 265 739 q 279 740 275 740 q 288 740 283 740 q 424 699 374 740 q 475 589 475 658 q 444 499 475 539 q 360 438 414 460 q 235 415 306 415 m 301 0 l 983 1003 l 1043 1003 l 361 0 l 301 0 m 939 -3 l 939 25 l 976 28 q 1031 44 1019 31 q 1042 99 1042 57 l 1042 129 l 792 129 l 792 156 l 826 206 q 938 380 886 288 q 1032 563 990 472 l 1197 563 l 1197 539 l 840 164 l 1042 164 l 1042 289 q 1087 301 1063 290 q 1125 329 1111 311 l 1157 329 l 1157 164 l 1239 164 l 1239 129 l 1157 129 l 1157 99 q 1169 43 1157 56 q 1217 28 1181 31 l 1243 25 l 1243 -3 l 1099 0 l 939 -3 z "},"₀":{"ha":582,"x_min":42,"x_max":540,"o":"m 292 -290 q 160 -254 217 -290 q 72 -153 103 -218 q 42 0 42 -87 q 72 154 42 89 q 160 256 103 219 q 292 292 217 292 q 422 256 367 292 q 509 153 478 219 q 540 0 540 88 q 509 -152 540 -86 q 422 -254 478 -218 q 292 -290 367 -290 m 290 -257 q 365 -226 339 -257 q 402 -137 392 -196 q 413 0 413 -79 q 402 138 413 81 q 365 227 392 196 q 290 258 339 258 q 217 228 243 258 q 180 139 190 197 q 169 0 169 81 q 180 -138 169 -81 q 217 -226 190 -196 q 290 -257 243 -257 z "},"₁":{"ha":369,"x_min":42,"x_max":342,"o":"m 42 -285 l 42 -256 l 72 -254 q 120 -240 107 -251 q 133 -183 133 -228 l 133 138 q 120 194 133 182 q 78 210 107 206 l 43 215 l 43 247 q 138 259 99 249 q 217 289 178 269 l 251 289 l 251 -183 q 265 -240 251 -228 q 314 -254 278 -251 l 342 -256 l 342 -285 l 193 -282 l 42 -285 z "},"₂":{"ha":524,"x_min":56,"x_max":461,"o":"m 56 -282 l 56 -253 l 217 -96 q 308 18 281 -35 q 336 128 336 71 q 309 219 336 186 q 232 251 282 251 q 167 233 194 251 q 140 189 140 215 q 167 143 140 168 q 191 119 186 128 q 196 99 196 110 q 177 60 196 75 q 132 46 158 46 q 77 69 99 46 q 56 131 56 93 q 84 211 56 175 q 160 269 113 247 q 265 292 208 292 q 407 247 353 292 q 461 135 461 203 q 448 73 461 103 q 401 8 435 43 q 304 -75 367 -26 l 146 -197 l 144 -175 l 324 -172 q 387 -167 367 -171 q 415 -155 407 -164 q 425 -128 422 -146 l 429 -115 l 460 -115 l 457 -258 l 457 -282 l 56 -282 z "},"₃":{"ha":525,"x_min":50,"x_max":475,"o":"m 235 -290 q 101 -258 151 -290 q 50 -175 50 -225 q 68 -125 50 -144 q 115 -106 86 -106 q 152 -117 138 -106 q 167 -150 167 -129 q 157 -181 167 -161 q 151 -197 153 -190 q 149 -210 149 -203 q 168 -244 149 -231 q 219 -258 188 -258 q 315 -216 279 -258 q 351 -106 351 -174 q 249 7 351 7 q 214 4 232 7 q 175 -6 196 1 l 176 29 q 294 87 258 56 q 329 167 329 118 q 305 232 329 208 q 238 256 281 256 q 177 240 203 256 q 151 201 151 225 q 155 188 151 194 q 167 169 158 181 q 185 133 185 150 q 169 101 185 114 q 131 89 153 89 q 82 109 101 89 q 63 161 63 129 q 122 254 63 217 q 268 292 181 292 q 401 258 351 292 q 450 171 450 225 q 424 98 450 131 q 350 45 397 65 q 240 24 303 25 l 236 33 q 257 33 249 33 q 270 34 265 33 q 279 35 275 35 q 288 35 283 35 q 424 -6 374 35 q 475 -117 475 -47 q 444 -206 475 -167 q 360 -268 414 -246 q 235 -290 306 -290 z "},"₄":{"ha":546,"x_min":43,"x_max":494,"o":"m 190 -283 l 190 -256 l 228 -253 q 282 -237 271 -250 q 293 -182 293 -224 l 293 -151 l 43 -151 l 43 -125 l 78 -75 q 190 99 138 7 q 283 282 242 192 l 449 282 l 449 258 l 92 -117 l 293 -117 l 293 8 q 338 20 314 10 q 376 49 363 31 l 408 49 l 408 -117 l 490 -117 l 490 -151 l 408 -151 l 408 -182 q 420 -237 408 -225 q 468 -253 432 -250 l 494 -256 l 494 -283 l 350 -281 l 190 -283 z "}}}
